<svg xmlns="http://www.w3.org/2000/svg">
<defs>
<font id="PragmataPro-Bold" horiz-adv-x="1060" >
  <font-face 
    font-family="Pragmata Pro"
    font-weight="700"
    font-stretch="normal"
    units-per-em="2048"
    panose-1="2 0 5 9 3 0 0 2 0 4"
    ascent="1638"
    descent="-410"
    x-height="1172"
    cap-height="1580"
    bbox="-168 -375 3055 1950"
    underline-thickness="60"
    underline-position="-395"
    unicode-range="U+000D-1D7FF"
  />
<missing-glyph 
d="M798 917q0 -86 -35 -127q-35 -39 -161 -39q-125 0 -157 35q-30 34 -36 81q-5 -47 -36 -81q-32 -35 -157 -35q-126 0 -161 39q-34 40 -34 127t34 125q35 39 161 39q125 0 157 -35t36 -100q6 65 36 100q32 35 157 35q126 0 161 -39q35 -40 35 -125zM46 103v166
q153 -157 385 -157q189 0 304 115q116 116 116 356v247h157v-247q0 -283 -156 -443q-154 -160 -421 -162q-237 0 -385 125zM733 653q-50 -368 -324 -368q-273 0 -323 368q125 -182 323 -182q199 0 324 182zM46 1286v179q75 9 113 17q102 22 168 53q27 12 160 86
q-31 34 -65 57q-47 32 -105 32q-59 0 -148 -81q-36 -33 -57 -58l-66 -72v192q58 58 100 86q94 63 171 63q135 0 249 -116q26 -28 38 -43q39 14 73 14q33 0 70 -14l5.5 16.5t4.5 14.5q17 60 17 114v81h130v-81q0 -72 -21 -145q-11 -35 -24 -69q14 -11 43 -38q70 -65 149 -154
l-96 -87q-60 66 -122 132l-33 34q-24 -36 -45 -61l53 -106q58 -115 104 -174.5t96 -59.5v-130q-30 0 -57 7t-53 25.5t-46 34.5t-44.5 49.5t-39 54t-39.5 65t-35.5 65t-36.5 70.5q-34 -26 -52 -37q-150 -98 -322 -98q-35 0 -73 9q-72 18 -164 73zM595 1459l-29 52
q-1 -1 -10 -7q-43 -27 -116 -63q-68 -34 -164 -63q-37 -11 -86 -22l27 -10q35 -12 66 -12q134 0 251 78q29 19 61 47zM281 917q0 54 -65 54q-64 0 -64 -54q0 -56 64 -56q65 0 65 56zM668 917q0 54 -65 54q-64 0 -64 -54q0 -56 64 -56q65 0 65 56z" />
    <glyph glyph-name="exclam_exclam" unicode="&#x21;&#x21;" horiz-adv-x="2120" 
d="M798 1580v-991h-278v991h278zM835 154q0 -75 -50 -125q-49 -49 -126 -49q-76 0 -125 49t-49 125q0 77 49 126t125 49q77 0 126 -49q50 -50 50 -126zM1599 1580v-991h-278v991h278zM1636 154q0 -75 -50 -125q-49 -49 -126 -49q-76 0 -125 49t-49 125q0 77 49 126t125 49
q77 0 126 -49q50 -50 50 -126z" />
    <glyph glyph-name="exclam_equal" unicode="&#x21;&#x3d;" horiz-adv-x="2120" 
d="M1780 1031v-238h-554l-87 -212h641v-238h-739l-108 -259l-231 -2l108 261h-470v238h569l88 212h-657v238h755l109 266h230l-109 -266h455z" />
    <glyph glyph-name="exclam_equal_equal" unicode="&#x21;&#x3d;&#x3d;" horiz-adv-x="3180" 
d="M2820 1031v-238h-1594l-87 -212h1681v-238h-1779l-108 -259l-231 -2l108 261h-450v238h549l88 212h-637v238h735l109 266h230l-109 -266h1495z" />
    <glyph glyph-name="numbersign_parenleft" unicode="&#x23;&#x28;" horiz-adv-x="2120" 
d="M972 439l-76 -439h-247l76 439h-159l-76 -439h-247l76 439h-131v226h171l41 241h-150v226h189l76 448h247l-76 -448h159l76 448h247l-76 -448h247q112 401 520 666l125 -175q-433 -318 -433 -833t433 -833l-125 -175q-407 269 -518 657h-369zM1293 788q0 59 4 118h-244
l-41 -241h287q-6 71 -6 123zM606 665h158l42 241h-159z" />
    <glyph glyph-name="numbersign_underscore" unicode="&#x23;_" horiz-adv-x="2120" 
d="M691 634h199l54 312h-200zM1903 -238h-1128q0 211 36 416l41 231l-200 -1l-70 -408h-247l70 408h-155v226h194l54 312h-170v226h209l70 408h247l-70 -408h199l70 408h247l-70 -408h156v-226h-195l-54 -312h171v-225l-210 -1l-70 -408h875v-238z" />
    <glyph glyph-name="numbersign_braceleft" unicode="&#x23;&#x7b;" horiz-adv-x="2120" 
d="M1946 91v-228h-125q-182 0 -283 101t-101 272v23h-445l-44 -259h-247l44 259h-178l-44 -259h-248l44 259h-173v226h212l105 601h-211v226h250l45 268h248l-45 -268h178l45 268h247l-45 -268h262v30q0 172 101 273t283 101h125v-228h-84q-70 0 -119 -40q-49 -39 -49 -128
v-175q0 -265 -213 -355q213 -92 213 -353v-178q0 -89 49 -129q49 -39 119 -39h84zM1136 1086l-105 -601h406q-10 91 -65.5 141t-142.5 50h-28v228h27q86 0 142 50q56 49 67 132h-301zM606 485h178l105 601h-178z" />
    <glyph glyph-name="percent_equal" unicode="&#x25;&#x3d;" horiz-adv-x="2120" 
d="M833 1580h230l-632 -1580h-241zM1073 213q0 -101 -57 -167t-147 -66t-147 66q-56 67 -56 167q0 99 56 166q55 67 147 67q90 0 147 -67t57 -166zM587 1367q0 -101 -57 -167t-147 -66t-147 66q-56 67 -56 167q0 99 56 166q55 67 147 67q90 0 147 -67t57 -166zM1949 1193
v-238h-900v238h900zM1949 743v-238h-900v238h900z" />
    <glyph glyph-name="ampersand_percent" unicode="&#x26;&#x25;" horiz-adv-x="2120" 
d="M1061 837l-126 -415l171 -317l600 1475h230l-632 -1580h-399l-91 164q-82 -184 -280 -184q-155 0 -257 126q-102 128 -102 334q0 294 211 499l-38 68q-67 121 -67 222q0 163 98 267q99 104 239 104q261 0 341 -314l-233 -93q-33 174 -110 174q-36 0 -57 -40.5t-21 -107.5
q0 -80 58 -184l188 -338l63 205h214v-65zM541 225q40 -1 70 30.5t49 93.5l18 61l-167 302q-79 -95 -79 -272q0 -108 27 -162t82 -53zM1460 1367q0 -101 -57 -167t-147 -66t-147 66q-56 67 -56 167q0 99 56 166q55 67 147 67q90 0 147 -67t57 -166zM1946 213q0 -101 -57 -167
t-147 -66t-147 66q-56 67 -56 167q0 99 56 166q55 67 147 67q90 0 147 -67q57 -66 57 -166z" />
    <glyph glyph-name="ampersand_ampersand" unicode="&#x26;&#x26;" horiz-adv-x="2120" 
d="M1933 837l-126 -415l198 -357v-65h-228l-91 164q-82 -184 -383 -184q-371 0 -471 184q-82 -184 -280 -184q-155 0 -257 126q-102 128 -102 334q0 294 211 499l-38 69q-67 121 -67 221q0 164 98 268q99 105 239 105q261 0 341 -314l-233 -95q-33 172 -110 172
q-36 0 -55.5 -39t-19.5 -107q0 -80 55 -184l398 -720q39 -70 77 -108q-42 67 -42 233q0 294 211 499l-38 69q-67 121 -67 221q0 164 98 268q99 105 239 105q262 0 341 -316l-233 -93q-33 172 -110 172q-36 0 -57 -39.5t-21 -106.5q0 -80 58 -184l188 -338l63 205h214v-65z
M1413 225q82 0 119 124l18 61l-167 302q-79 -95 -79 -272q0 -215 109 -215zM559 225q82 0 119 124l18 61l-167 302q-79 -95 -79 -272q0 -215 109 -215z" />
    <glyph glyph-name="ampersand_asterisk" unicode="&#x26;&#x2a;" horiz-adv-x="2120" 
d="M1062 837l-126 -415l198 -357v-65h-228l-91 164q-82 -184 -280 -184q-155 0 -257 126q-102 128 -102 335q0 293 211 498l-38 68q-67 121 -67 222q0 164 98 268q99 105 239 105q261 0 341 -314l-233 -95q-33 172 -110 172q-36 0 -57 -39.5t-21 -106.5q0 -80 58 -184
l188 -338l63 205h214v-65zM542 225q82 0 119 124l18 61l-167 302q-79 -95 -79 -272q0 -102 30.5 -158.5t78.5 -56.5zM1120 1391l297 -130l-33 319h276l-34 -319l298 130l85 -262l-315 -66l218 -245l-223 -162l-167 293l-167 -293l-223 162l218 245l-316 66z" />
    <glyph glyph-name="ampersand_plus" unicode="&#x26;&#x2b;" horiz-adv-x="2120" 
d="M1946 902v-238h-321v-341h-258v341h-276l-73 -242l198 -357v-65h-228l-91 164q-82 -184 -280 -184q-155 0 -257 126q-102 128 -102 334q0 294 211 499l-38 68q-67 121 -67 222q0 164 98 268q99 105 239 105q261 0 341 -314l-233 -95q-33 172 -110 172q-37 0 -59 -40
t-19 -106q0 -80 58 -184l188 -338l63 205h437v341h258v-341h321zM624 225q82 0 119 124l18 61l-167 302q-79 -95 -79 -272q0 -215 109 -215z" />
    <glyph glyph-name="ampersand_hyphen" unicode="&#x26;&#x2d;" horiz-adv-x="2120" 
d="M1946 902v-238h-855l-73 -242l198 -357v-65h-228l-91 164q-82 -184 -280 -184q-155 0 -257 126q-102 128 -102 334q0 294 211 499l-38 69q-67 121 -67 221q0 164 98 268q99 105 239 105q261 0 341 -314l-233 -95q-33 172 -110 172q-37 0 -59 -39.5t-22 -106.5
q3 -80 61 -184l188 -338l63 205h1016zM624 225q82 0 119 124l18 61l-167 302q-79 -95 -79 -272q0 -215 109 -215z" />
    <glyph glyph-name="ampersand_slash" unicode="&#x26;&#x2f;" horiz-adv-x="2120" 
d="M1090 837l-126 -415l154 -281l576 1439h261l-632 -1580h-389l-91 164q-82 -184 -280 -184q-155 0 -257 126q-102 128 -102 334q0 294 211 499l-38 68q-67 121 -67 222q0 164 98 268q99 105 239 105q261 0 341 -314l-233 -95q-33 172 -110 172q-37 0 -59 -40t-19 -106
q0 -80 58 -184l188 -338l63 205h214v-65zM570 225q82 0 119 124l18 61l-167 302q-79 -95 -79 -272q0 -215 109 -215z" />
    <glyph glyph-name="ampersand_equal" unicode="&#x26;&#x3d;" horiz-adv-x="2120" 
d="M1930 1053v-238h-807l-121 -393l198 -357v-65h-228l-91 164q-85 -184 -279 -184q-156 0 -258 126q-102 128 -102 334q0 294 211 499l-38 69q-67 121 -67 221q0 164 98 268q99 105 239 105q262 0 341 -316l-233 -93q-33 172 -110 172q-37 0 -59 -39.5t-22 -106.5
q3 -80 61 -184l188 -338l111 356h968zM608 225q82 0 119 124l18 59l-167 304q-79 -95 -79 -272q0 -215 109 -215zM1930 603v-238h-727v238h727z" />
    <glyph glyph-name="ampersand_ampersand_amp" unicode="&#x26;&#x26;&#x26;" horiz-adv-x="3180" 
d="M2986 65v-65h-228l-91 164q-82 -184 -404 -184q-400 0 -500 184q-82 -184 -402 -184q-402 0 -502 184q-81 -184 -282 -184q-153 0 -255 126q-102 128 -102 334q0 294 211 499l-38 69q-67 121 -67 221q0 164 98 268q99 105 239 105q261 0 381 -316l-274 -93
q-31 172 -109 172q-36 0 -55.5 -39t-19.5 -107q0 -80 55 -184l398 -720q38 -68 127 -108q-42 67 -42 233q0 294 211 499l-38 69q-67 121 -67 221q0 164 98 268q99 105 240 105q261 0 340 -316l-233 -93q-33 172 -110 172q-36 0 -55.5 -39t-19.5 -107q0 -80 55 -184l398 -718
q38 -70 127 -110q-42 68 -42 233q0 294 211 499l-38 69q-67 121 -67 221q0 164 98 268q99 105 237 105q264 0 343 -316l-233 -93q-33 172 -110 172q-36 0 -57 -39.5t-21 -106.5q0 -80 58 -184l188 -338l63 205h214v-65l-126 -413zM2394 225q82 0 119 124l18 61l-167 302
q-81 -96 -81 -272q0 -123 28 -169t83 -46zM586 225q82 0 119 124l18 61l-167 302q-79 -95 -79 -272q0 -215 109 -215zM1490 225q82 0 119 124l18 61l-167 302q-79 -95 -79 -272q0 -122 29 -169q28 -46 80 -46z" />
    <glyph glyph-name="dollar_greater" unicode="&#x24;&#x3e;" horiz-adv-x="2120" 
d="M1724 690l-537 288v289l858 -487v-180l-858 -487v289zM1007 399q0 -180 -101 -286t-207 -119v-359h-237v353q-203 32 -325 242l230 130q82 -139 203 -134q76 -1 118 39t42 113q0 78 -101 140l-220 134q-222 135 -222 352q0 157 85 257q87 102 190 127v354h237v-350
q159 -30 279 -194l-235 -134q-57 93 -141 93q-66 0 -102 -36t-36 -104q0 -84 92 -140l253 -154q198 -121 198 -324z" />
    <glyph glyph-name="asterisk_asterisk_asterisk" unicode="&#x2a;&#x2a;&#x2a;" horiz-adv-x="3180" 
d="M1188 1271l297 -130l-33 319h276l-34 -319l298 130l85 -262l-315 -66l218 -245l-223 -162l-167 293l-167 -293l-223 162l218 245l-316 66zM2161 1001l297 -130l-33 319h276l-34 -319l298 130l85 -262l-315 -66l218 -245l-223 -162l-167 293l-167 -293l-223 162l218 245
l-316 66zM215 1001l297 -130l-33 319h276l-34 -319l298 130l85 -262l-315 -66l218 -245l-223 -162l-167 293l-167 -293l-223 162l218 245l-316 66z" />
    <glyph glyph-name="asterisk_equal" unicode="&#x2a;&#x3d;" horiz-adv-x="2120" 
d="M178 1031l297 -130l-33 319h276l-34 -319l298 130l85 -262l-315 -66l218 -245l-223 -162l-167 293l-167 -293l-223 162l218 245l-316 66zM1907 1033v-238h-810v238h810zM1907 583v-238h-810v238h810z" />
    <glyph glyph-name="asterisk_slash" unicode="&#x2a;&#x2f;" horiz-adv-x="2120" 
d="M259 1201l297 -130l-33 319h276l-34 -319l298 130l85 -262l-315 -66l218 -245l-223 -162l-167 293l-167 -293l-223 162l218 245l-316 66zM1661 1580h262l-682 -1580h-262z" />
    <glyph glyph-name="asterisk_greater" unicode="&#x2a;&#x3e;" horiz-adv-x="2120" 
d="M1649 690l-557 288v289l878 -487v-180l-878 -487v289zM442 690l-293 167l162 223l245 -218l66 315l262 -85l-130 -298l319 34v-276l-319 33l130 -297l-262 -86l-66 316l-245 -218l-162 223z" />
    <glyph glyph-name="plus_plus" unicode="&#x2b;&#x2b;" horiz-adv-x="2120" 
d="M1940 810v-238h-321v-341h-258v341h-602v-341h-258v341h-321v238h321v341h258v-341h602v341h258v-341h321z" />
    <glyph glyph-name="plus_plus_plus" unicode="&#x2b;&#x2b;&#x2b;" horiz-adv-x="3180" 
d="M2970 810v-238h-341v-341h-258v341h-652v-341h-258v341h-652v-341h-258v341h-341v238h341v341h258v-341h652v341h258v-341h652v341h258v-341h341z" />
    <glyph glyph-name="plus_equal" unicode="&#x2b;&#x3d;" horiz-adv-x="2120" 
d="M970 810v-238h-321v-341h-258v341h-321v238h321v341h258v-341h321zM1960 1033v-238h-901v238h901zM1960 583v-238h-901v238h901z" />
    <glyph glyph-name="plus_greater" unicode="&#x2b;&#x3e;" horiz-adv-x="2120" 
d="M140 572v238h321v341h258v-341h321v-238h-321v-341h-258v341h-321zM1639 690l-557 288v289l878 -487v-180l-878 -487v289z" />
    <glyph glyph-name="hyphen_hyphen" unicode="&#x2d;&#x2d;" horiz-adv-x="2120" 
d="M1920 810v-238h-1720v238h1720z" />
    <glyph glyph-name="hyphen_less" unicode="&#x2d;&#x3c;" horiz-adv-x="2120" 
d="M1890 968l-537 -278l537 -278v-299l-830 459h-860v238h860l830 457v-299z" />
    <glyph glyph-name="hyphen_less_less" unicode="&#x2d;&#x3c;&#x3c;" horiz-adv-x="3180" 
d="M2010 978l-537 -288l537 -288v-289l-810 459h-1000v238h1000l810 457v-289zM2890 978l-557 -288l557 -288v-289l-960 532v90l960 532v-289z" />
    <glyph glyph-name="hyphen_equal" unicode="&#x2d;&#x3d;" horiz-adv-x="2120" 
d="M972 810v-238h-882v238h882zM1930 1033v-238h-879v238h879zM1930 583v-238h-879v238h879z" />
    <glyph glyph-name="hyphen_greater" unicode="&#x2d;&#x3e;" horiz-adv-x="2120" 
d="M1622 690l-380 278v299l698 -557v-40l-698 -557v299zM180 810h871q207 0 406 -100v-40q-201 -97 -406 -98h-871v238z" />
    <glyph glyph-name="hyphen_greater_greater" unicode="&#x2d;&#x3e;&#x3e;" horiz-adv-x="3180" 
d="M2682 690l-380 278v299l698 -557v-40l-698 -557v299zM180 810h1267q207 0 406 -100v-40q-201 -97 -406 -98h-1267v238zM2018 690l-380 278v299l698 -557v-40l-698 -557v299z" />
    <glyph glyph-name="period_period" unicode="&#x2e;&#x2e;" horiz-adv-x="2120" 
d="M893 213q0 -111 -67 -172t-167 -61t-167 61q-66 61 -66 172q0 109 66 171q67 62 167 62q99 0 167 -62q67 -61 67 -171zM1694 213q0 -111 -67 -172t-167 -61t-167 61q-66 61 -66 172q0 109 66 171q67 62 167 62q99 0 167 -62q67 -61 67 -171z" />
    <glyph glyph-name="period_period_period" unicode="&#x2e;&#x2e;&#x2e;" horiz-adv-x="3180" 
d="M916 213q0 -111 -67 -172t-167 -61t-167 61q-66 61 -66 172q0 109 66 171q67 62 167 62q99 0 167 -62q67 -61 67 -171zM1823 213q0 -111 -67 -172t-167 -61t-167 61q-66 61 -66 172q0 109 66 171q67 62 167 62q99 0 167 -62q67 -61 67 -171zM2729 213q0 -111 -67 -172
t-167 -61t-167 61q-66 61 -66 172q0 109 66 171q67 62 167 62q99 0 167 -62q67 -61 67 -171z" />
    <glyph glyph-name="period_period_less" unicode="&#x2e;&#x2e;&#x3c;" horiz-adv-x="3180" 
d="M916 213q0 -111 -67 -172t-167 -61t-167 61q-66 61 -66 172q0 109 66 171q67 62 167 62q99 0 167 -62q67 -61 67 -171zM1783 213q0 -111 -67 -172t-167 -61t-167 61q-66 61 -66 172q0 109 66 171q67 62 167 62q99 0 167 -62q67 -61 67 -171zM2815 978l-557 -288l557 -288
v-289l-878 487v180l878 487v-289z" />
    <glyph glyph-name="slash_asterisk" unicode="&#x2f;&#x2a;" horiz-adv-x="2120" 
d="M1101 1201l297 -130l-33 319h276l-34 -319l298 130l85 -262l-315 -66l218 -245l-223 -162l-167 293l-167 -293l-223 162l218 245l-316 66zM820 1580h262l-682 -1580h-262z" />
    <glyph glyph-name="slash_slash" unicode="&#x2f;&#x2f;" horiz-adv-x="2120" 
d="M1659 1580h262l-682 -1580h-262zM882 1580h262l-682 -1580h-262z" />
    <glyph glyph-name="slash_greater" unicode="&#x2f;&#x3e;" horiz-adv-x="2120" 
d="M812 1580h262l-682 -1580h-262zM1568 690l-557 288v289l878 -487v-180l-878 -487v289z" />
    <glyph glyph-name="slash_equal" unicode="&#x2f;&#x3d;" horiz-adv-x="2120" 
d="M190 0l682 1580h262l-236 -547h884v-238h-987l-91 -212h1078v-238h-1181l-149 -345h-262z" />
    <glyph glyph-name="slash_equal_equal" unicode="&#x2f;&#x3d;&#x3d;" horiz-adv-x="3180" 
d="M190 0l682 1580h261l-235 -547h719v-238h-822l-91 -212h913v-238h-1016l-149 -345h-262zM2820 583v-238h-1023v238h1023zM2820 1033v-238h-1023v238h1023z" />
    <glyph glyph-name="slash_slash_slash" unicode="&#x2f;&#x2f;&#x2f;" horiz-adv-x="3180" 
d="M1801 1580h262l-682 -1580h-262zM942 1580h262l-682 -1580h-262zM2659 1580h262l-682 -1580h-262z" />
    <glyph glyph-name="colon_colon" unicode="&#x3a;&#x3a;" horiz-adv-x="2120" 
d="M1719 998q0 -112 -67 -173t-167 -61t-167 61q-66 62 -66 173q0 110 66 171q67 62 167 62q99 0 167 -62q67 -61 67 -171zM1719 213q0 -111 -67 -172t-167 -61t-167 61q-66 61 -66 172q0 109 66 171q67 62 167 62q99 0 167 -62q67 -61 67 -171zM866 998q0 -112 -67 -173
t-167 -61t-167 61q-66 62 -66 173q0 110 66 171q67 62 167 62q99 0 167 -62q67 -61 67 -171zM866 213q0 -111 -67 -172t-167 -61t-167 61q-66 61 -66 172q0 109 66 171q67 62 167 62q99 0 167 -62q67 -61 67 -171z" />
    <glyph glyph-name="colon_equal" unicode="&#x3a;&#x3d;" horiz-adv-x="2120" 
d="M1846 1033v-238h-901v238h901zM1846 583v-238h-901v238h901zM716 360q0 -111 -67 -172t-167 -61t-167 61q-66 61 -66 172q0 110 66 171q68 62 167 62t167 -62q67 -61 67 -171zM716 1021q0 -112 -67 -173t-167 -61t-167 61q-66 61 -66 173q0 109 66 171q68 62 167 62
t167 -62q67 -61 67 -171z" />
    <glyph glyph-name="less_dollar_greater" unicode="&#x3c;&#x24;&#x3e;" horiz-adv-x="3180" 
d="M2734 690l-537 288v289l858 -487v-180l-858 -487v289zM983 978l-537 -288l537 -288v-289l-858 487v180l858 487v-289zM2017 399q0 -180 -101 -286t-207 -119v-359h-237v353q-203 32 -325 242l230 130q82 -139 203 -134q76 -1 118 39t42 113q0 78 -101 140l-220 134
q-222 135 -222 352q0 157 85 257q87 102 190 127v354h237v-350q159 -30 279 -194l-235 -134q-57 93 -141 93q-66 0 -102 -36t-36 -104q0 -84 92 -140l253 -154q198 -121 198 -324z" />
    <glyph glyph-name="less_asterisk" unicode="&#x3c;&#x2a;" horiz-adv-x="2120" 
d="M1027 978l-557 -288l557 -288v-289l-878 487v180l878 487v-289zM1970 857l-293 -167l293 -167l-162 -223l-245 218l-66 -316l-262 86l130 297l-319 -33v276l319 -34l-130 298l262 85l66 -315l245 218z" />
    <glyph glyph-name="less_asterisk_greater" unicode="&#x3c;&#x2a;&#x3e;" horiz-adv-x="3180" 
d="M1757 248l-167 293l-167 -293l-223 162l218 245l-316 66l86 262l297 -130l-33 319h276l-34 -319l298 130l85 -262l-315 -66l218 -245zM1058 978l-557 -288l557 -288v-289l-878 487v180l878 487v-289zM2679 690l-557 288v289l878 -487v-180l-878 -487v289z" />
    <glyph glyph-name="less_plus_greater" unicode="&#x3c;&#x2b;&#x3e;" horiz-adv-x="3180" 
d="M2040 810v-238h-321v-341h-258v341h-321v238h321v341h258v-341h321zM1058 978l-557 -288l557 -288v-289l-878 487v180l878 487v-289zM2679 690l-557 288v289l878 -487v-180l-878 -487v289z" />
    <glyph glyph-name="less_hyphen" unicode="&#x3c;&#x2d;" horiz-adv-x="2120" 
d="M878 968l-380 -278l380 -278v-299l-698 557v40l698 557v-299zM1069 810h871v-238h-871q-205 1 -406 98v40q199 100 406 100z" />
    <glyph glyph-name="less_less" unicode="&#x3c;&#x3c;" horiz-adv-x="2120" 
d="M1058 978l-557 -288l557 -288v-289l-878 487v180l878 487v-289zM1880 978l-557 -288l557 -288v-289l-878 487v180l878 487v-289z" />
    <glyph glyph-name="less_less_less" unicode="&#x3c;&#x3c;&#x3c;" horiz-adv-x="3180" 
d="M1118 978l-557 -288l557 -288v-289l-878 487v180l878 487v-289zM2008 978l-557 -288l557 -288v-289l-878 487v180l878 487v-289zM2900 978l-557 -288l557 -288v-289l-878 487v180l878 487v-289z" />
    <glyph glyph-name="less_less_equal" unicode="&#x3c;&#x3c;&#x3d;" horiz-adv-x="3180" 
d="M2920 795h-1112q-189 0 -249 125l-333 -230l333 -230q60 125 249 125h1112v-238h-1062q-112 0 -141 -83l-62 -181l-791 587v40l791 587l62 -181q29 -83 141 -83h1062v-238zM979 1058l-481 -368l481 -368l-84 -239l-735 587v40l735 587z" />
    <glyph glyph-name="less_equal" unicode="&#x3c;&#x3d;" horiz-adv-x="2120" 
d="M1750 1330v-256l-950 -179l950 -163v-256l-1440 324v186zM1750 270v-232l-1440 328v232z" />
    <glyph glyph-name="less_equal_greater" unicode="&#x3c;&#x3d;&#x3e;" horiz-adv-x="3180" 
d="M1023 264l-62 -181l-791 587v40l791 587l62 -181q29 -83 141 -83h852q112 0 141 83l62 181l791 -587v-40l-791 -587l-62 181q-29 83 -141 83h-852q-112 0 -141 -83zM2066 795h-952q-189 0 -249 125l-333 -230l333 -230q60 125 249 125h952q189 0 249 -125l333 230
l-333 230q-60 -125 -249 -125z" />
    <glyph glyph-name="less_greater" unicode="&#x3c;&#x3e;" horiz-adv-x="2120" 
d="M1060 1267l878 -487v-180l-878 -487l-878 487v180zM1060 978l-557 -288l557 -288l557 288z" />
    <glyph glyph-name="less_bar_greater" unicode="&#x3c;&#x7c;&#x3e;" horiz-adv-x="3180" 
d="M1178 978l-557 -288l557 -288v-289l-878 487v180l878 487v-289zM2559 690l-557 288v289l878 -487v-180l-878 -487v289zM1709 1755v-2130h-237v2130h237z" />
    <glyph glyph-name="less_less_hyphen" unicode="&#x3c;&#x3c;&#x2d;" horiz-adv-x="3180" 
d="M878 968l-380 -278l380 -278v-299l-698 557v40l698 557v-299zM1733 810h1267v-238h-1267q-205 1 -406 98v40q199 100 406 100zM1542 968l-380 -278l380 -278v-299l-698 557v40l698 557v-299z" />
    <glyph glyph-name="less_bar" unicode="&#x3c;&#x7c;" horiz-adv-x="2120" 
d="M1302 1248l-801 -558l801 -558v-299l-1072 767v180l1072 767v-299zM1730 1680v-1980h-237v1980h237z" />
    <glyph glyph-name="less_equal_less" unicode="&#x3c;&#x3d;&#x3c;" horiz-adv-x="3180" 
d="M2718 517l192 -143v-291l-358 264h-1398q-112 0 -141 -83l-62 -181l-791 587v40l791 587l62 -181q29 -83 141 -83h1398l358 264v-291l-192 -143q-92 -68 -220 -68h-1394q-189 0 -249 125l-333 -230l333 -230q60 125 249 125h1394q128 0 220 -68z" />
    <glyph glyph-name="less_asciitilde" unicode="&#x3c;&#x7e;" horiz-adv-x="2120" 
d="M1745 1050h220l-103 -450q-61 -280 -269 -280q-203 0 -269 288l-35 154q-13 60 -55 60q-38 0 -55 -60l-6 -20q-49 -171 -246 -171h-189v238h222q37 0 46 32q63 219 238 219q195 0 256 -268l38 -164q16 -70 55 -70q40 0 55 70zM453 690l380 -278v-299l-698 557v40l698 557
v-299z" />
    <glyph glyph-name="less_asciitilde_asciitilde" unicode="&#x3c;&#x7e;&#x7e;" horiz-adv-x="3180" 
d="M1756 320q-180 0 -265 214l-98 249q-17 39 -45 39q-30 0 -47 -39l-16 -41q-67 -171 -265 -171h-237v238h248q36 0 50 32l4 10q83 209 263 209q178 0 263 -214l98 -249q15 -39 47 -39q30 0 47 39l98 249q85 214 265 214t265 -214l98 -249q17 -39 47 -39t47 39l178 453h242
l-202 -516q-85 -214 -265 -214t-265 214l-98 249q-17 39 -47 39t-47 -39l-98 -249q-85 -214 -265 -214zM498 690l380 -278v-299l-698 557v40l698 557v-299z" />
    <glyph glyph-name="less_less_asciitilde" unicode="&#x3c;&#x3c;&#x7e;" horiz-adv-x="3180" 
d="M2769 1050h241l-199 -506q-89 -224 -272 -224q-185 0 -274 224l-91 228q-20 50 -60 50t-60 -50l-16 -41q-64 -160 -255 -160h-326v238h339q30 0 37 19l4 8q89 224 277 224t277 -224l91 -228q20 -50 56 -50q35 0 58 50zM508 690l380 -278v-299l-698 557v40l698 557v-299z
M1172 690l380 -278v-299l-698 557v40l698 557v-299z" />
    <glyph glyph-name="less_dollar" unicode="&#x3c;&#x24;" horiz-adv-x="2120" 
d="M933 978l-537 -288l537 -288v-289l-858 487v180l858 487v-289zM1967 399q0 -180 -101 -286t-207 -119v-359h-237v353q-203 32 -325 242l230 130q82 -139 203 -134q76 -1 118 39t42 113q0 78 -101 140l-220 134q-222 135 -222 352q0 156 84 260q87 105 191 124v354h237
v-350q159 -30 279 -194l-235 -134q-57 93 -141 93q-66 0 -102 -36t-36 -104q0 -84 92 -140l253 -154q198 -121 198 -324z" />
    <glyph glyph-name="less_plus" unicode="&#x3c;&#x2b;" horiz-adv-x="2120" 
d="M1980 810v-238h-321v-341h-258v341h-321v238h321v341h258v-341h321zM998 978l-557 -288l557 -288v-289l-878 487v180l878 487v-289z" />
    <glyph glyph-name="equal_less_less" unicode="&#x3d;&#x3c;&#x3c;" horiz-adv-x="3180" 
d="M2860 978l-557 -288l557 -288v-289l-956 532v90l956 532v-289zM300 795v238h1360l388 234v-261l-222 -143q-107 -68 -254 -68h-1272zM300 347v238h1272q147 0 254 -68l222 -143v-261l-388 234h-1360z" />
    <glyph glyph-name="equal_equal_greater" unicode="&#x3d;&#x3d;&#x3e;" horiz-adv-x="3180" 
d="M2026 347h-1746v238h1796q189 0 249 -125l333 230l-333 230q-60 -125 -249 -125h-1796v238h1746q112 0 141 83l62 181l791 -587v-40l-791 -587l-62 181q-29 83 -141 83z" />
    <glyph glyph-name="equal_greater" unicode="&#x3d;&#x3e;" horiz-adv-x="2120" 
d="M976 347h-716v238h766q189 0 249 -125l333 230l-333 230q-60 -125 -249 -125h-766v238h716q112 0 141 83l62 181l791 -587v-40l-791 -587l-62 181q-29 83 -141 83z" />
    <glyph glyph-name="equal_asciitilde" unicode="&#x3d;&#x7e;" horiz-adv-x="2120" 
d="M190 345v239h812q46 469 295 469q176 0 241 -191l94 -284q10 -33 33 -33q77 0 85 488h230q-5 -708 -310 -708q-176 0 -241 191l-94 284q-11 33 -33 33q-77 0 -85 -488h-1027zM190 796v237h683v-237h-683z" />
    <glyph glyph-name="equal_greater_greater" unicode="&#x3d;&#x3e;&#x3e;" horiz-adv-x="3180" 
d="M1372 795h-1112v238h1062q112 0 141 83l62 181l791 -587v-40l-791 -587l-62 181q-29 83 -141 83h-1062v238h1112q189 0 249 -125l333 230l-333 230q-60 -125 -249 -125zM2682 690l-481 368l84 239l735 -587v-40l-735 -587l-84 239z" />
    <glyph glyph-name="greater_hyphen" unicode="&#x3e;&#x2d;" horiz-adv-x="2120" 
d="M767 690l-537 278v299l830 -457h860v-238h-860l-830 -459v299z" />
    <glyph glyph-name="greater_equal" unicode="&#x3e;&#x3d;" horiz-adv-x="2120" 
d="M370 1074v256l1440 -344v-186l-1440 -324v256l950 163zM370 38v232l1440 328v-232z" />
    <glyph glyph-name="greater_greater" unicode="&#x3e;&#x3e;" horiz-adv-x="2120" 
d="M797 690l-557 288v289l878 -487v-180l-878 -487v289zM1619 690l-557 288v289l878 -487v-180l-878 -487v289z" />
    <glyph glyph-name="greater_greater_hyphen" unicode="&#x3e;&#x3e;&#x2d;" horiz-adv-x="3180" 
d="M1707 690l-537 288v289l810 -457h1000v-238h-1000l-810 -459v289zM847 690l-557 288v289l960 -532v-90l-960 -532v289z" />
    <glyph glyph-name="greater_greater_equal" unicode="&#x3e;&#x3e;&#x3d;" horiz-adv-x="3180" 
d="M877 690l-557 288v289l956 -532v-90l-956 -532v289zM2880 1033v-238h-1272q-147 0 -254 68l-222 143v261l388 -234h1360zM2880 585v-238h-1360l-388 -234v261l222 143q107 68 254 68h1272z" />
    <glyph glyph-name="greater_greater_greater" unicode="&#x3e;&#x3e;&#x3e;" horiz-adv-x="3180" 
d="M837 690l-557 288v289l878 -487v-180l-878 -487v289zM1727 690l-557 288v289l878 -487v-180l-878 -487v289zM2619 690l-557 288v289l878 -487v-180l-878 -487v289z" />
    <glyph glyph-name="greater_equal_greater" unicode="&#x3e;&#x3d;&#x3e;" horiz-adv-x="3180" 
d="M270 374l192 143q92 68 220 68h1394q189 0 249 -125l333 230l-333 230q-60 -125 -249 -125h-1394q-128 0 -220 68l-192 143v291l358 -264h1398q112 0 141 83l62 181l791 -587v-40l-791 -587l-62 181q-29 83 -141 83h-1398l-358 -264v291z" />
    <glyph glyph-name="question_question" unicode="&#x3f;&#x3f;" horiz-adv-x="2120" 
d="M1011 1212q0 -119 -66 -218l-161 -235q-32 -47 -32 -113v-57h-277v58q0 118 70 222l145 211q44 68 44 143q0 67 -35.5 104.5t-93.5 37.5q-127 0 -207 -167l-209 143q145 261 417 261q180 0 292 -115q113 -115 113 -275zM792 154q0 -75 -50 -125q-49 -49 -126 -49
q-76 0 -125 49t-49 125q0 77 49 126t125 49q77 0 126 -49q50 -50 50 -126zM1931 1212q0 -119 -66 -218l-161 -235q-32 -47 -32 -113v-57h-277v58q0 118 70 222l145 211q44 68 44 143q0 67 -35.5 104.5t-93.5 37.5q-127 0 -207 -167l-209 143q145 261 417 261q180 0 292 -115
q113 -115 113 -275zM1712 154q0 -75 -50 -125q-49 -49 -126 -49q-76 0 -125 49t-49 125q0 77 49 126t125 49q77 0 126 -49q50 -50 50 -126z" />
    <glyph glyph-name="question_asciitilde" unicode="&#x3f;&#x7e;" horiz-adv-x="2120" 
d="M1011 1212q0 -119 -66 -218l-161 -235q-32 -47 -32 -113v-57h-277v58q0 118 70 222l145 211q44 68 44 143q0 67 -35.5 104.5t-93.5 37.5q-127 0 -207 -167l-209 143q145 261 417 261q180 0 292 -115q113 -115 113 -275zM792 154q0 -75 -50 -125q-49 -49 -126 -49
q-76 0 -125 49t-49 125q0 77 49 126t125 49q77 0 126 -49q50 -50 50 -126zM1749 948h230q-14 -449 -300 -449q-126 0 -219 100l-89 97q-21 23 -48 23q-73 0 -73 -222h-230q14 449 300 449q125 0 219 -100l89 -97q21 -23 48 -23q73 0 73 222z" />
    <glyph glyph-name="question_equal" unicode="&#x3f;&#x3d;" horiz-adv-x="2120" 
d="M1007 1212q0 -119 -66 -218l-161 -235q-32 -47 -32 -113v-57h-277v58q0 118 70 222l145 211q44 68 44 143q0 67 -35.5 104.5t-93.5 37.5q-127 0 -207 -167l-209 143q145 261 417 261q180 0 292 -115q113 -115 113 -275zM788 154q0 -75 -50 -125q-49 -49 -126 -49
q-76 0 -125 49t-49 125q0 77 49 126t125 49q77 0 126 -49q50 -50 50 -126zM1956 1033v-238h-900v238h900zM1956 583v-238h-900v238h900z" />
    <glyph glyph-name="asciicircum_equal" unicode="^&#x3d;" horiz-adv-x="2120" 
d="M801 1470l292 -887h807v-238h-1000l-241 780l-241 -780h-280l379 1125h284zM1139 795v238h761v-238h-761z" />
    <glyph glyph-name="asciicircum_period" unicode="^&#x2e;" horiz-adv-x="2120" 
d="M880 1580l335 -958h-268l-197 683l-204 -683h-260l332 958h262zM1823 213q0 -111 -67 -172t-167 -61t-167 61q-66 61 -66 172q0 109 66 171q67 62 167 62q99 0 167 -62q67 -61 67 -171z" />
    <glyph glyph-name="asciicircum_question" unicode="^&#x3f;" horiz-adv-x="2120" 
d="M720 1580l335 -958h-268l-197 683l-204 -683h-260l332 958h262zM1951 1212q0 -119 -66 -218l-161 -235q-32 -47 -32 -113v-57h-277v58q0 118 70 222l145 211q44 68 44 143q0 67 -35.5 104.5t-93.5 37.5q-127 0 -207 -167l-209 143q145 261 417 261q180 0 292 -115
q113 -115 113 -275zM1732 154q0 -75 -50 -125q-49 -49 -126 -49q-76 0 -125 49t-49 125q0 77 49 126t125 49q77 0 126 -49q50 -50 50 -126z" />
    <glyph glyph-name="asciicircum_period_period" unicode="^&#x2e;&#x2e;" horiz-adv-x="3180" 
d="M920 1580l335 -958h-268l-197 683l-204 -683h-260l332 958h262zM1873 213q0 -111 -67 -172t-167 -61t-167 61q-66 61 -66 172q0 109 66 171q67 62 167 62q99 0 167 -62q67 -61 67 -171zM2745 213q0 -111 -67 -172t-167 -61t-167 61q-66 61 -66 172q0 109 66 171
q67 62 167 62q99 0 167 -62q67 -61 67 -171z" />
    <glyph glyph-name="backslash_backslash" unicode="\\" horiz-adv-x="2120" 
d="M1248 1580l683 -1580h-261l-683 1580h261zM451 1580l683 -1580h-261l-683 1580h261z" />
    <glyph glyph-name="bar_equal" unicode="&#x7c;&#x3d;" horiz-adv-x="2120" 
d="M647 1755v-2130h-237v2130h237zM1800 1033v-238h-901v238h901zM1800 583v-238h-901v238h901z" />
    <glyph glyph-name="bar_bar" unicode="&#x7c;&#x7c;" horiz-adv-x="2120" 
d="M736 1755v-2130h-237v2130h237zM1621 1755v-2130h-237v2130h237z" />
    <glyph glyph-name="bar_greater" unicode="&#x7c;&#x3e;" horiz-adv-x="2120" 
d="M1619 690l-801 558v299l1072 -767v-180l-1072 -767v299zM390 -300v1980h237v-1980h-237z" />
    <glyph glyph-name="bar_bar_bar" unicode="&#x7c;&#x7c;&#x7c;" horiz-adv-x="3180" 
d="M1708 1755v-2130h-237v2130h237zM777 1755v-2130h-237v2130h237zM2640 1755v-2130h-237v2130h237z" />
    <glyph glyph-name="asciitilde_equal" unicode="&#x7e;&#x3d;" horiz-adv-x="2120" 
d="M1930 1033v-237l-812 -2q-46 -469 -295 -469q-176 0 -241 191l-94 284q-10 33 -33 33q-77 0 -85 -488h-230q4 708 310 708q176 0 241 -191l94 -284q11 -33 33 -33q77 0 85 488h1027zM1930 582v-237h-683v237h683z" />
    <glyph glyph-name="asciitilde_greater" unicode="&#x7e;&#x3e;" horiz-adv-x="2120" 
d="M375 330h-220l103 450q61 280 269 280q203 0 269 -288l35 -154q14 -60 56 -60q37 0 54 60l6 20q49 171 246 171h189v-238h-222q-37 0 -46 -32q-63 -219 -238 -219q-195 0 -256 268l-38 164q-16 70 -55 70q-40 0 -55 -70zM1287 412l380 278l-380 278v299l698 -557v-40
l-698 -557v299z" />
    <glyph glyph-name="asciitilde_asciitilde_greater" unicode="&#x7e;&#x7e;&#x3e;" horiz-adv-x="3180" 
d="M1424 1060q180 0 265 -214l98 -249q17 -39 45 -39q31 0 47 39l16 41q67 171 265 171h237v-238h-248q-36 0 -50 -32l-4 -10q-83 -209 -263 -209q-178 0 -263 214l-98 249q-15 39 -47 39q-30 0 -47 -39l-98 -249q-85 -214 -265 -214t-265 214l-98 249q-16 39 -47 39
q-30 0 -47 -39l-178 -453h-242l202 516q85 214 265 214t265 -214l98 -249q17 -39 47 -39t47 39l98 249q85 214 265 214zM2302 412l380 278l-380 278v299l698 -557v-40l-698 -557v299z" />
    <glyph glyph-name="asciitilde_greater_greater" unicode="&#x7e;&#x3e;&#x3e;" horiz-adv-x="3180" 
d="M411 330h-241l199 506q89 224 272 224q185 0 274 -224l91 -228q20 -50 60 -50t60 50l16 41q64 160 255 160h326v-238h-339q-30 0 -37 -19l-4 -8q-89 -224 -277 -224t-277 224l-91 228q-20 50 -56 50q-35 0 -58 -50zM1628 412l380 278l-380 278v299l698 -557v-40
l-698 -557v299zM2292 412l380 278l-380 278v299l698 -557v-40l-698 -557v299z" />
    <glyph glyph-name="period_asciitilde" unicode="&#x2e;&#x7e;" horiz-adv-x="2120" 
d="M1624 948h230q-14 -449 -300 -449q-126 0 -219 100l-89 97q-21 23 -48 23q-73 0 -73 -222h-230q14 449 300 449q125 0 219 -100l89 -97q21 -23 48 -23q73 0 73 222zM720 213q0 -111 -67 -172t-167 -61t-167 61q-66 61 -66 172q0 109 66 171q67 62 167 62q99 0 167 -62
q67 -61 67 -171z" />
    <glyph glyph-name="period_equal" unicode="&#x2e;&#x3d;" horiz-adv-x="2120" 
d="M1835 1033v-238h-900v238h900zM1835 583v-238h-900v238h900zM690 213q0 -111 -67 -172t-167 -61t-167 61q-66 61 -66 172q0 109 66 171q67 62 167 62q99 0 167 -62q67 -61 67 -171z" />
    <glyph glyph-name=".notdef" 
d="M798 917q0 -86 -35 -127q-35 -39 -161 -39q-125 0 -157 35q-30 34 -36 81q-5 -47 -36 -81q-32 -35 -157 -35q-126 0 -161 39q-34 40 -34 127t34 125q35 39 161 39q125 0 157 -35t36 -100q6 65 36 100q32 35 157 35q126 0 161 -39q35 -40 35 -125zM46 103v166
q153 -157 385 -157q189 0 304 115q116 116 116 356v247h157v-247q0 -283 -156 -443q-154 -160 -421 -162q-237 0 -385 125zM733 653q-50 -368 -324 -368q-273 0 -323 368q125 -182 323 -182q199 0 324 182zM46 1286v179q75 9 113 17q102 22 168 53q27 12 160 86
q-31 34 -65 57q-47 32 -105 32q-59 0 -148 -81q-36 -33 -57 -58l-66 -72v192q58 58 100 86q94 63 171 63q135 0 249 -116q26 -28 38 -43q39 14 73 14q33 0 70 -14l5.5 16.5t4.5 14.5q17 60 17 114v81h130v-81q0 -72 -21 -145q-11 -35 -24 -69q14 -11 43 -38q70 -65 149 -154
l-96 -87q-60 66 -122 132l-33 34q-24 -36 -45 -61l53 -106q58 -115 104 -174.5t96 -59.5v-130q-30 0 -57 7t-53 25.5t-46 34.5t-44.5 49.5t-39 54t-39.5 65t-35.5 65t-36.5 70.5q-34 -26 -52 -37q-150 -98 -322 -98q-35 0 -73 9q-72 18 -164 73zM595 1459l-29 52
q-1 -1 -10 -7q-43 -27 -116 -63q-68 -34 -164 -63q-37 -11 -86 -22l27 -10q35 -12 66 -12q134 0 251 78q29 19 61 47zM281 917q0 54 -65 54q-64 0 -64 -54q0 -56 64 -56q65 0 65 56zM668 917q0 54 -65 54q-64 0 -64 -54q0 -56 64 -56q65 0 65 56z" />
    <glyph glyph-name=".null" 
 />
    <glyph glyph-name="uni000D" unicode="&#xd;" 
 />
    <glyph glyph-name="space" unicode=" " 
 />
    <glyph glyph-name="exclam" unicode="!" 
d="M668 1580v-991h-278v991h278zM705 154q0 -75 -50 -125q-49 -49 -126 -49q-76 0 -125 49t-49 125q0 77 49 126t125 49q77 0 126 -49q50 -50 50 -126z" />
    <glyph glyph-name="quotedbl" unicode="&#x22;" 
d="M898 1580v-592h-278v592h278zM439 1580v-592h-278v592h278z" />
    <glyph glyph-name="numbersign" unicode="#" 
d="M968 634v-226h-180l-70 -408h-247l70 408h-159l-70 -408h-247l70 408h-125v226h164l54 312h-140v226h179l70 408h247l-70 -408h159l70 408h247l-70 -408h126v-226h-165l-54 -312h141zM421 634h159l54 312h-159z" />
    <glyph glyph-name="dollar" unicode="$" 
d="M980 449q0 -180 -101 -286t-207 -119v-255h-237v249q-203 32 -325 242l230 130q82 -139 203 -134q76 -1 118 39t42 113q0 78 -73 138l-308 250q-162 130 -162 316q0 177 85 277q87 102 190 127v256h237v-252q159 -30 279 -194l-235 -134q-57 93 -141 93q-66 0 -102 -36
t-36 -104q0 -85 75 -143l288 -228q180 -142 180 -345z" />
    <glyph glyph-name="percent" unicode="%" 
d="M743 1580h230l-632 -1580h-241zM983 213q0 -101 -57 -167t-147 -66t-147 66q-56 67 -56 167q0 99 56 166q55 67 147 67q90 0 147 -67t57 -166zM497 1367q0 -101 -57 -167t-147 -66t-147 66q-56 67 -56 167q0 99 56 166q55 67 147 67q90 0 147 -67t57 -166z" />
    <glyph glyph-name="ampersand" unicode="&#x26;" 
d="M962 837l-126 -415l198 -357v-65h-228l-91 164q-82 -184 -280 -184q-155 0 -257 126q-102 128 -102 335q0 293 211 498l-38 68q-67 121 -67 222q0 164 98 268q99 105 239 105q261 0 341 -314l-233 -95q-33 172 -110 172q-36 0 -57 -39.5t-21 -106.5q0 -80 58 -184
l188 -338l63 205h214v-65zM442 225q82 0 119 124l18 61l-167 302q-79 -95 -79 -272q0 -102 30.5 -158.5t78.5 -56.5z" />
    <glyph glyph-name="quotesingle" unicode="'" 
d="M668 1580v-592h-278v592h278z" />
    <glyph glyph-name="parenleft" unicode="(" 
d="M196 790q0 640 566 1008l125 -175q-433 -318 -433 -833t433 -833l-125 -175q-566 368 -566 1008z" />
    <glyph glyph-name="parenright" unicode=")" 
d="M864 790q0 -640 -566 -1008l-125 175q433 318 433 833t-433 833l125 175q566 -368 566 -1008z" />
    <glyph glyph-name="asterisk" unicode="*" 
d="M128 1201l297 -130l-33 319h276l-34 -319l298 130l85 -262l-315 -66l218 -245l-223 -162l-167 293l-167 -293l-223 162l218 245l-316 66z" />
    <glyph glyph-name="plus" unicode="+" 
d="M980 810v-238h-321v-341h-258v341h-321v238h321v341h258v-341h321z" />
    <glyph glyph-name="comma" unicode="," 
d="M763 175q0 -211 -192 -540h-243q125 182 177 365q-82 3 -146 59q-63 57 -63 156q0 109 63 171q65 62 160 62q115 0 179.5 -72t64.5 -201z" />
    <glyph glyph-name="hyphen" unicode="-" 
d="M980 810v-238h-900v238h900z" />
    <glyph glyph-name="period" unicode="." 
d="M763 213q0 -111 -67 -172t-167 -61t-167 61q-66 61 -66 172q0 109 66 171q67 62 167 62q99 0 167 -62q67 -61 67 -171z" />
    <glyph glyph-name="slash" unicode="/" 
d="M740 1580h262l-682 -1580h-262z" />
    <glyph glyph-name="zero" unicode="0" 
d="M538 960l73 -290h-88l-74 290h89zM741 791q0 165 -71 426q-37 136 -140 137q-103 -1 -140 -137q-71 -261 -71 -426t71 -426q37 -136 140 -137q103 1 140 137q71 261 71 426zM996 791q0 -167 -99 -534q-76 -277 -367 -277t-367 277q-99 367 -99 534t99 534q76 277 367 277
t367 -277q99 -367 99 -534z" />
    <glyph glyph-name="one" unicode="1" 
d="M790 0h-278v1247l-287 -216l-118 210l435 339h248v-1580z" />
    <glyph glyph-name="two" unicode="2" 
d="M941 238v-238h-812v151q0 251 194 499l265 341q76 97 76 222q0 75 -35.5 113t-98.5 38q-129 0 -202 -166l-209 143q145 261 417 261q180 0 292 -105q113 -104 113 -275q0 -184 -145 -369l-282 -362q-114 -144 -114 -253h541z" />
    <glyph glyph-name="three" unicode="3" 
d="M974 466q0 -238 -123 -362t-335 -124q-272 0 -428 260l209 143q89 -165 218 -165q78 0 129 52q52 52 52 196q0 152 -56 202q-56 51 -165 51h-77v238h77q189 0 189 216q0 90 -42 140.5t-117 50.5q-118 0 -187 -166l-209 143q145 261 417 261q191 0 303 -115
q113 -115 113 -314q0 -237 -190 -336q222 -89 222 -371z" />
    <glyph glyph-name="four" unicode="4" 
d="M972 619v-238h-82v-381h-278v381h-514v238l456 961h336v-961h82zM322 619h290v612z" />
    <glyph glyph-name="five" unicode="5" 
d="M961 507q0 -270 -118 -398q-119 -129 -317 -129q-282 0 -407 260l209 143q69 -165 187 -165q74 0 121 62t47 227q0 130 -47 197q-46 67 -183 67h-253v809h708v-238h-430v-333h47q211 0 324 -114q112 -113 112 -388z" />
    <glyph glyph-name="six" unicode="6" 
d="M974 510q0 -281 -113 -406q-112 -124 -302 -124q-179 0 -298 119q-118 118 -118 408v537q0 299 123 428q123 130 312 130q242 0 378 -216l-209 -143q-72 120 -167 120q-86 0 -123 -67q-37 -65 -37 -227l1 -166q85 105 211 105q144 0 243 -111q99 -109 99 -387zM697 510
q0 162 -37 211q-38 50 -100 50q-84 0 -139 -123v-217q0 -110 41 -163q42 -51 98 -51t96 51q41 53 41 242z" />
    <glyph glyph-name="seven" unicode="7" 
d="M807 978l-90 -179q-149 -306 -158 -641l-5 -158h-276l5 171q10 365 190 726l125 251q51 102 51 194h-508v238h784v-133q0 -223 -118 -469z" />
    <glyph glyph-name="eight" unicode="8" 
d="M530 -20q-180 0 -313 114t-133 338q0 256 244 425q-202 141 -202 375q0 150 107 260q108 110 297 110t296 -110q108 -110 108 -260q0 -234 -202 -375q244 -169 244 -425q0 -224 -133 -338t-313 -114zM530 1365q-64 0 -95.5 -39.5t-31.5 -103.5q0 -163 127 -236
q127 73 127 236q0 64 -31.5 103.5t-95.5 39.5zM530 726q-169 -81 -169 -294q0 -108 45 -162t124 -54t124 54t45 162q0 213 -169 294z" />
    <glyph glyph-name="nine" unicode="9" 
d="M86 1072q0 281 113 406q112 124 302 124q178 0 297 -119t119 -408v-537q0 -298 -123 -429q-123 -129 -312 -129q-242 0 -378 216l209 143q72 -120 167 -120q86 0 123 66q37 67 37 228l-1 166q-85 -105 -211 -105q-144 0 -243 110q-99 111 -99 388zM363 1072
q0 -162 37 -211q38 -50 100 -50q84 0 139 123v217q0 111 -42 162q-40 52 -97 52t-97 -52q-40 -50 -40 -241z" />
    <glyph glyph-name="colon" unicode=":" 
d="M763 998q0 -112 -67 -173t-167 -61t-167 61q-66 62 -66 173q0 110 66 171q67 62 167 62q99 0 167 -62q67 -61 67 -171zM763 213q0 -111 -67 -172t-167 -61t-167 61q-66 61 -66 172q0 109 66 171q67 62 167 62q99 0 167 -62q67 -61 67 -171z" />
    <glyph glyph-name="semicolon" unicode=";" 
d="M763 998q0 -112 -67 -173t-167 -61t-167 61q-66 62 -66 173q0 110 66 171q67 62 167 62q99 0 167 -62q67 -61 67 -171zM763 175q0 -211 -192 -540h-243q125 182 177 365q-82 3 -146 59q-63 57 -63 156q0 109 63 171q65 62 160 62q115 0 179.5 -72t64.5 -201z" />
    <glyph glyph-name="less" unicode="&#x3c;" 
d="M949 978l-557 -288l557 -288v-289l-878 487v180l878 487v-289z" />
    <glyph glyph-name="equal" unicode="=" 
d="M980 1033v-238h-900v238h900zM980 583v-238h-900v238h900z" />
    <glyph glyph-name="greater" unicode="&#x3e;" 
d="M668 690l-557 288v289l878 -487v-180l-878 -487v289z" />
    <glyph glyph-name="question" unicode="?" 
d="M941 1212q0 -119 -66 -218l-161 -235q-32 -47 -32 -113v-57h-277v58q0 118 70 222l145 211q44 68 44 143q0 67 -35.5 104.5t-93.5 37.5q-127 0 -207 -167l-209 143q145 261 417 261q180 0 292 -115q113 -115 113 -275zM722 154q0 -75 -50 -125q-49 -49 -126 -49
q-76 0 -125 49t-49 125q0 77 49 126t125 49q77 0 126 -49q50 -50 50 -126z" />
    <glyph glyph-name="at" unicode="@" 
d="M560 1388q-143 0 -204 -106q-60 -105 -60 -334v-333q0 -211 86 -316t264 -105q202 0 355 157v-246q-148 -125 -358 -125q-244 0 -404 151t-160 484v333q0 353 135 503q136 151 346 151q188 0 314 -128q127 -127 127 -393v-361q0 -212 -87 -299q-86 -86 -208 -86
q-121 0 -207 86q-86 88 -86 299v17q0 375 253 375q68 0 118 -40v32q0 284 -224 284zM784 669v89q0 148 -78 148q-76 0 -76 -148v-89q0 -128 76 -128q78 0 78 128z" />
    <glyph glyph-name="A" unicode="A" 
d="M359 88v-88h-276v88q0 230 79 573l209 919h318l209 -919q79 -343 79 -573v-88h-276v88q0 118 -17 260h-308q-17 -142 -17 -260zM644 585l-114 581l-114 -581h228z" />
    <glyph glyph-name="B" unicode="B" 
d="M976 480q0 -261 -113 -371q-112 -109 -294 -109h-406v1580h364q202 0 304 -109t102 -292q0 -132 -58 -214q-60 -84 -137 -106q128 -45 183 -129q55 -82 55 -250zM655 1179q0 89 -35.5 127t-114.5 38h-64v-378h74q70 0 105 49t35 164zM698 480q0 156 -41 203t-118 47h-98
v-493h107q67 0 108 41q42 42 42 202z" />
    <glyph glyph-name="C" unicode="C" 
d="M792 362l209 -143q-147 -239 -397 -239q-187 0 -307 120t-120 420v542q0 300 120 420t307 120q250 0 397 -239l-209 -143q-73 135 -188 135q-68 0 -109 -50q-40 -49 -40 -207v-615q0 -157 40 -207q41 -50 109 -50q115 0 188 136z" />
    <glyph glyph-name="D" unicode="D" 
d="M929 1053v-525q0 -298 -113 -414q-112 -114 -324 -114h-361v1580h361q212 0 324 -115q113 -115 113 -412zM651 503v575q0 153 -46 203q-45 51 -134 51h-63v-1084h63q89 0 134 51q46 52 46 204z" />
    <glyph glyph-name="E" unicode="E" 
d="M964 238v-238h-798v1580h788v-238h-510v-396h366v-238h-366v-470h520z" />
    <glyph glyph-name="F" unicode="F" 
d="M964 1580v-238h-520v-396h408v-238h-408v-708h-278v1580h798z" />
    <glyph glyph-name="G" unicode="G" 
d="M935 895v-388q0 -298 -113 -413q-112 -114 -292 -114t-292 114q-113 115 -113 413v567q0 298 113 413q112 115 292 115q248 0 385 -216l-209 -143q-64 112 -168 112q-69 0 -102.5 -59t-33.5 -193v-632q0 -130 26 -188q27 -57 103 -57q75 0 101 56q25 56 25 189v187h-95
v237h373z" />
    <glyph glyph-name="H" unicode="H" 
d="M934 1580v-1580h-278v730h-253v-730h-278v1580h278v-612h253v612h278z" />
    <glyph glyph-name="I" unicode="I" 
d="M876 228v-228h-692v228h207v1124h-164v228h606v-228h-164v-1124h207z" />
    <glyph glyph-name="J" unicode="J" 
d="M883 1580v-1095q0 -276 -113 -391q-112 -114 -292 -114t-292 114q-113 115 -113 391v221h278v-226q0 -140 30 -202t96 -62q67 0 97.5 62.5t30.5 201.5v1100h278z" />
    <glyph glyph-name="K" unicode="K" 
d="M140 1580h278v-659l141 207q103 153 129 380l8 72h276l-19 -160q-23 -201 -159 -403l-73 -107l97 -165q143 -243 174 -508l28 -237h-286l-21 176q-35 291 -136 463l-49 81l-110 -162v-558h-278v1580z" />
    <glyph glyph-name="L" unicode="L" 
d="M987 238v-238h-788v1580h278v-1342h510z" />
    <glyph glyph-name="M" unicode="M" 
d="M371 1580l159 -527l159 527h255v-1580h-255v247q0 409 80 1099l-184 -606h-110l-184 606q80 -690 80 -1099v-247h-255v1580h255z" />
    <glyph glyph-name="N" unicode="N" 
d="M914 1580v-1580h-266l-310 1000q33 -350 33 -723v-277h-226v1580h266l310 -1000q-33 350 -33 723v277h226z" />
    <glyph glyph-name="O" unicode="O" 
d="M938 1075v-568q0 -297 -111 -412q-109 -115 -297 -115q-187 0 -298 115q-110 116 -110 412v568q0 297 110 412q111 115 298 115q188 0 297 -115q111 -114 111 -412zM660 473v635q0 158 -33 201q-31 45 -98 45q-64 0 -97 -45q-32 -44 -32 -201v-635q0 -155 32 -201
q33 -44 99 -44q64 0 96 44q33 45 33 201z" />
    <glyph glyph-name="P" unicode="P" 
d="M998 1180v-72q0 -171 -113 -287q-113 -114 -293 -114h-126v-707h-278v1580h404q201 0 303 -115q103 -113 103 -285zM720 1117v54q0 68 -32 121q-31 52 -118 52h-104v-400h104q75 0 112.5 46t37.5 127z" />
    <glyph glyph-name="Q" unicode="Q" 
d="M938 1075v-568q0 -379 -192 -474l120 -302h-287l-100 252q-144 4 -251 117q-106 112 -106 409v566q0 298 110 413q111 114 298 114q188 0 297 -114q111 -114 111 -413zM660 473v635q0 158 -33 201q-31 45 -98 45q-64 0 -97 -45q-32 -44 -32 -201v-635q0 -155 32 -201
q33 -44 99 -44q64 0 96 44q33 45 33 201z" />
    <glyph glyph-name="R" unicode="R" 
d="M981 173l10 -173h-282l-9 137q-22 351 -166 549h-99v-686h-278v1580h405q395 0 395 -452q0 -280 -181 -386q184 -250 205 -569zM678 1128q0 112 -31 164q-30 52 -117 52h-95v-422h95q84 0 116 49.5t32 156.5z" />
    <glyph glyph-name="S" unicode="S" 
d="M980 399q0 -182 -112 -300q-113 -119 -334 -119q-267 0 -424 250l209 143q94 -147 224 -147q76 0 118 39.5t42 112.5q0 78 -73 151l-324 324q-146 144 -146 329q0 192 109 305q109 115 295 115q240 0 387 -206l-209 -143q-82 102 -167 102q-138 0 -138 -150
q0 -73 75 -147l301 -300q167 -156 167 -359z" />
    <glyph glyph-name="T" unicode="T" 
d="M964 1580v-238h-295v-1342h-278v1342h-295v238h868z" />
    <glyph glyph-name="U" unicode="U" 
d="M935 1580v-1116q0 -254 -112 -369q-111 -115 -293 -115t-294 115q-111 115 -111 369v1116h278v-1139q0 -125 31 -169q32 -44 95 -44t95 44q33 45 33 169v1139h278z" />
    <glyph glyph-name="V" unicode="V" 
d="M530 392l126 579q55 253 55 521v88h276v-88q0 -276 -78 -573l-240 -919h-278l-240 919q-78 297 -78 573v88h276v-88q0 -268 55 -521z" />
    <glyph glyph-name="W" unicode="W" 
d="M474 914h112l131 -636v1302h258v-381q0 -375 -50 -731l-66 -468h-217l-112 532l-112 -532h-217l-66 468q-50 356 -50 731v381h258v-1302z" />
    <glyph glyph-name="X" unicode="X" 
d="M530 524l-90 -180q-75 -149 -83 -289l-3 -55h-276l4 70q9 133 105 325l204 405l-169 339q-111 216 -120 371l-4 70h276l3 -55q11 -167 83 -310l70 -139l70 139q72 143 83 310l3 55h276l-4 -70q-9 -155 -120 -371l-170 -338l205 -406q96 -192 105 -325l4 -70h-276l-3 55
q-8 140 -83 289z" />
    <glyph glyph-name="Y" unicode="Y" 
d="M456 1079l74 -146l74 146q76 148 90 428l2 73h276l-2 -73q-14 -288 -147 -547l-154 -301v-659h-278v659l-154 301q-133 259 -147 547l-2 73h276l2 -73q14 -280 90 -428z" />
    <glyph glyph-name="Z" unicode="Z" 
d="M184 1580h732v-150q0 -244 -112 -443l-287 -503q-68 -124 -68 -246h477v-238h-752v150q0 244 112 443l287 503q68 124 68 246h-457v238z" />
    <glyph glyph-name="bracketleft" unicode="[" 
d="M874 91v-228h-659v1853h659v-228h-401v-1397h401z" />
    <glyph glyph-name="backslash" unicode="\" 
d="M319 1580l683 -1580h-261l-683 1580h261z" />
    <glyph glyph-name="bracketright" unicode="]" 
d="M186 -137v228h401v1397h-401v228h659v-1853h-659z" />
    <glyph glyph-name="asciicircum" unicode="^" 
d="M659 1580l335 -958h-268l-197 683l-204 -683h-260l332 958h262z" />
    <glyph glyph-name="underscore" unicode="_" 
d="M1061 0v-238h-1062v238h1062z" />
    <glyph glyph-name="grave" unicode="`" 
d="M579 1580l219 -592h-227l-289 592h297z" />
    <glyph glyph-name="a" unicode="a" 
d="M924 813v-813h-278v135q-80 -155 -231 -155q-123 0 -212 98q-88 98 -88 248q0 175 110 279q112 104 325 104h96v126q0 121 -128 121q-124 0 -186 -132l-199 163q145 207 386 207q190 0 297 -97q108 -96 108 -284zM646 360v172h-96q-79 0 -119 -43t-40 -123
q0 -139 118 -139q124 0 137 133z" />
    <glyph glyph-name="b" unicode="b" 
d="M956 694v-220q0 -269 -81 -382q-81 -112 -211 -112q-149 0 -240 151v-131h-278v1580h278v-543q92 152 240 152q130 0 211 -113q81 -112 81 -382zM678 513v142q0 165 -33 229q-32 65 -93 65q-94 0 -128 -132v-466q36 -133 128 -133q62 0 93 66q33 68 33 229z" />
    <glyph glyph-name="c" unicode="c" 
d="M733 348l229 -153q-135 -215 -385 -215q-190 0 -304 124q-113 125 -113 372v221q0 247 113 372q114 125 304 125q250 0 385 -217l-209 -143q-71 122 -176 122q-77 0 -108 -57q-30 -57 -30 -197v-241q0 -125 31.5 -184.5t106.5 -59.5q94 0 156 131z" />
    <glyph glyph-name="d" unicode="d" 
d="M915 1580v-1580h-278v131q-91 -151 -220 -151q-150 0 -231 112q-81 113 -81 382v220q0 270 81 382q81 113 231 113q128 0 220 -152v543h278zM637 351v466q-35 132 -128 132q-61 0 -94 -65q-32 -66 -32 -229v-142q0 -163 32 -230q33 -65 94 -65q92 0 128 133z" />
    <glyph glyph-name="e" unicode="e" 
d="M934 697v-146h-532v-130q0 -104 32.5 -153.5t106.5 -49.5q111 0 177 110l209 -143q-135 -205 -397 -205q-180 0 -293 114q-113 115 -113 382v221q0 267 113 382q112 115 293 115q178 0 291 -114q113 -115 113 -383zM401 729h257v43q0 204 -128 204q-129 0 -129 -204v-43z
" />
    <glyph glyph-name="f" unicode="f" 
d="M994 1459l-209 -143q-35 57 -93 57q-97 0 -97 -143v-123h352v-228h-352v-879h-279v879h-177v228h177v127q0 180 98 273q97 94 253 94q207 0 327 -142z" />
    <glyph glyph-name="g" unicode="g" 
d="M969 1172v-200h-61l-47 10q30 -57 30 -136q0 -136 -99 -226q-98 -90 -279 -90q-51 0 -78 1q-56 -56 -56 -107q0 -72 128 -72h77q200 0 297 -99q98 -98 98 -250q0 -171 -130 -274q-131 -104 -353 -104q-214 0 -315 102q-100 100 -100 233q0 160 169 256q-122 68 -122 181
q0 106 141 190q-144 85 -144 267q0 154 102 244q104 90 287 90q44 0 103 -9q73 -7 352 -7zM624 865q0 142 -114 142q-117 0 -117 -145q0 -151 116 -151q58 0 86.5 35t28.5 119zM701 -7q0 67 -36.5 104t-104.5 37h-47q-72 0 -113.5 -40.5t-41.5 -110.5q0 -65 38 -103t118 -38
q187 0 187 151z" />
    <glyph glyph-name="h" unicode="h" 
d="M935 748v-748h-278v738q0 132 -33 171q-31 40 -93 40q-103 0 -128 -142v-807h-278v1580h278v-543q92 152 240 152q130 0 211 -97q81 -98 81 -344z" />
    <glyph glyph-name="i" unicode="i" 
d="M683 1549q0 -76 -51 -127q-50 -50 -135 -50t-135 50q-50 52 -50 127t50 127q50 51 135 51t135 -51q51 -51 51 -127zM879 228v-228h-699v228h211v716h-181v228h459v-944h210z" />
    <glyph glyph-name="j" unicode="j" 
d="M789 1549q0 -76 -51 -127q-50 -50 -135 -50t-135 50q-50 52 -50 127t50 127q50 51 135 51t135 -51q51 -51 51 -127zM496 26v918h-265v228h542v-1140q0 -208 -92 -307.5t-279 -99.5q-227 0 -350 185l210 120q39 -67 128 -67q52 0 79 37.5t27 125.5z" />
    <glyph glyph-name="k" unicode="k" 
d="M997 41l3 -41h-276q-8 130 -192 422l-27 39l-82 -100v-361h-276v1580h276v-871l103 129q160 197 167 334h276l-2 -38q-9 -158 -232 -429l-54 -66l54 -81q254 -364 262 -517z" />
    <glyph glyph-name="l" unicode="l" 
d="M890 228v-228h-700v228h212v1124h-172v228h450v-1352h210z" />
    <glyph glyph-name="m" unicode="m" 
d="M959 873v-873h-194v795q-3 161 -59 161q-52 0 -79 -107v-849h-194v795q-2 161 -58 161q-57 0 -80 -107v-849h-194v1172h194v-115q59 137 173 137q100 0 140 -130q66 130 161 130q190 0 190 -321z" />
    <glyph glyph-name="n" unicode="n" 
d="M935 750v-750h-278v750q0 120 -33 159q-31 40 -93 40q-103 0 -128 -142v-807h-278v1172h278v-135q92 152 240 152q130 0 211 -97q81 -98 81 -342z" />
    <glyph glyph-name="o" unicode="o" 
d="M934 697v-222q0 -267 -113 -382q-113 -113 -291 -113q-179 0 -292 113q-113 115 -113 382v222q0 268 113 383q113 114 292 114q178 0 291 -114q113 -115 113 -383zM656 472v222q0 159 -30 210q-30 52 -96 52t-97 -52q-30 -51 -30 -210v-222q0 -150 30 -203q31 -51 97 -51
t96 51q30 52 30 203z" />
    <glyph glyph-name="p" unicode="p" 
d="M145 -365v1537h278v-131q91 151 240 151q130 0 211 -113t81 -381v-220q0 -271 -81 -383t-211 -112q-148 0 -240 152v-500h-278zM423 821v-466q35 -132 128 -132q61 0 93 65q33 65 33 229v142q0 165 -33 229q-32 66 -93 66q-92 0 -128 -133z" />
    <glyph glyph-name="q" unicode="q" 
d="M915 1172v-1537h-278v500q-92 -152 -240 -152q-130 0 -211 112t-81 383v220q0 268 81 381t211 113q149 0 240 -151v131h278zM637 355v466q-36 133 -128 133q-61 0 -94 -66q-32 -66 -32 -229v-142q0 -163 32 -229q33 -65 94 -65q93 0 128 132z" />
    <glyph glyph-name="r" unicode="r" 
d="M1020 974l-264 -120q-39 95 -108 95q-148 0 -148 -246v-703h-278v1172h278v-135q94 157 250 157q165 0 270 -220z" />
    <glyph glyph-name="s" unicode="s" 
d="M958 326q0 -151 -103 -248q-104 -98 -313 -98q-264 0 -420 239l191 131q80 -143 221 -143q146 0 146 121q0 66 -82 106l-177 86q-230 116 -230 321q0 164 103 258q104 95 282 95q231 0 376 -217l-193 -132q-64 121 -173 121q-54 0 -86 -28.5t-32 -78.5q0 -77 90 -120
l149 -73q251 -123 251 -340z" />
    <glyph glyph-name="t" unicode="t" 
d="M776 297l209 -143q-133 -174 -329 -174t-289.5 97.5t-93.5 299.5v567h-156v228h156v408h278v-408h355v-228h-355v-587q0 -74 25.5 -106.5t79.5 -32.5q63 0 120 79z" />
    <glyph glyph-name="u" unicode="u" 
d="M935 1172v-1172h-278v135q-92 -152 -240 -152q-130 0 -211 97q-81 98 -81 342v750h278v-750q0 -119 32 -160q33 -39 94 -39q103 0 128 142v807h278z" />
    <glyph glyph-name="v" unicode="v" 
d="M897 732l-228 -732h-278l-228 732q-63 202 -72 356l-5 84h276l5 -84q11 -171 41 -292l122 -477l122 477q30 121 41 292l5 84h276l-5 -84q-9 -154 -72 -356z" />
    <glyph glyph-name="w" unicode="w" 
d="M628 737l97 -538v973h270v-155q0 -221 -66 -540l-99 -477h-193l-107 595l-107 -595h-193l-99 477q-66 319 -66 540v155h270v-973l97 538h196z" />
    <glyph glyph-name="x" unicode="x" 
d="M368 0h-276l2 40q7 122 120 298l176 273l-158 246q-97 149 -104 276l-2 39h275q10 -160 64 -244l65 -101l65 101q54 84 64 244h275l-2 -39q-7 -127 -104 -276l-159 -246l177 -273q113 -176 120 -298l2 -40h-276q-9 158 -69 251l-93 144l-93 -144q-60 -93 -69 -251z" />
    <glyph glyph-name="y" unicode="y" 
d="M506 -365h-276l2 38q8 127 69 285l101 262l-215 538q-79 198 -86 324l-5 90h276l5 -84q11 -186 51 -289l102 -264l94 264q50 129 59 289l5 84h276l-6 -90q-8 -131 -83 -324l-310 -805q-46 -121 -57 -280z" />
    <glyph glyph-name="z" unicode="z" 
d="M936 238v-238h-772v188q0 174 143 347l201 238q88 106 88 161h-422v238h732v-160q0 -150 -121 -305l-212 -272q-98 -128 -98 -197h461z" />
    <glyph glyph-name="braceleft" unicode="{" 
d="M902 91v-228h-125q-182 0 -283 101t-101 272v198q0 138 -61 190t-147 52h-28v228h27q86 0 147 52q62 53 62 189v197q0 172 101 273t283 101h125v-228h-84q-70 0 -119 -40q-49 -39 -49 -128v-175q0 -263 -213 -355q213 -92 213 -353v-178q0 -89 49 -129q50 -39 119 -39h84
z" />
    <glyph glyph-name="bar" unicode="|" 
d="M648 1950v-2325h-237v2325h237z" />
    <glyph glyph-name="braceright" unicode="}" 
d="M902 904v-228h-28q-86 0 -147 -52t-61 -190v-198q0 -171 -101 -272t-283 -101h-125v228h84q69 0 118 39q50 41 50 129v178q0 261 213 353q-213 92 -213 355v175q0 89 -50 128q-49 40 -118 40h-84v228h125q182 0 283 -101t101 -273v-197q0 -137 61 -189t148 -52h27z" />
    <glyph glyph-name="asciitilde" unicode="~" 
d="M779 948h230q-14 -449 -300 -449q-126 0 -219 100l-89 97q-21 23 -48 23q-73 0 -73 -222h-230q14 449 300 449q125 0 219 -100l89 -97q21 -23 48 -23q73 0 73 222z" />
    <glyph glyph-name="nbspace" unicode="&#xa0;" 
 />
    <glyph glyph-name="exclamdown" unicode="&#xa1;" 
d="M706 1072q0 -75 -50 -125q-49 -49 -126 -49q-76 0 -125 49t-49 125q0 77 49 126t125 49q77 0 126 -49q50 -50 50 -126zM669 638v-991h-278v991h278z" />
    <glyph glyph-name="cent" unicode="&#xa2;" 
d="M733 348l229 -153q-116 -174 -275 -202v-205h-227v206q-114 22 -208 136q-92 115 -92 346v221q0 220 86 338q85 118 214 145v205h227v-202q164 -35 275 -206l-209 -143q-71 122 -176 122q-76 0 -107 -56t-31 -188v-251q0 -125 31.5 -184.5t106.5 -59.5q94 0 156 131z" />
    <glyph glyph-name="sterling" unicode="&#xa3;" 
d="M979 238v-238h-900v238q205 15 180 328l-12 142h-168v238h142l-12 181q-15 225 98 350q114 125 291 125q250 0 387 -216l-209 -143q-72 121 -167 121q-55 0 -92 -40t-27 -189l12 -189h230v-238h-204l9 -136q15 -244 -133 -334h575z" />
    <glyph glyph-name="currency" unicode="&#xa4;" 
d="M126 698q0 102 58 181l-171 173l163 166l174 -175q77 58 179 58t179 -58l174 175l163 -166l-171 -173q58 -79 58 -181t-58 -181l171 -173l-163 -166l-174 175q-79 -59 -179 -59t-179 59l-174 -176l-163 167l171 173q-58 79 -58 181zM376 698q0 -72 45 -119
q47 -45 108 -45q62 0 107 45q46 46 46 119q0 72 -46 117q-45 46 -107 46t-108 -46q-45 -45 -45 -117z" />
    <glyph glyph-name="yen" unicode="&#xa5;" 
d="M456 1079l74 -146l74 146q76 148 90 428l2 73h276l-2 -73q-14 -288 -147 -547l-77 -150h189v-215h-266v-129h266v-215h-266v-251h-278v251h-266v215h266v129h-266v215h188l-76 150q-133 259 -147 547l-2 73h276l2 -73q14 -280 90 -428z" />
    <glyph glyph-name="brokenbar" unicode="&#xa6;" 
d="M648 1950v-930h-237v930h237zM648 554v-929h-237v929h237z" />
    <glyph glyph-name="section" unicode="&#xa7;" 
d="M922 44q0 -182 -112 -300q-113 -119 -334 -119q-247 0 -404 250l209 143q95 -147 204 -147q76 0 118 39.5t42 112.5q0 78 -73 151l-279 278q-146 144 -146 289q0 189 106 265q-53 88 -53 176q0 192 109 305q109 115 295 115q220 0 357 -206l-209 -143q-63 102 -137 102
q-138 0 -138 -150q0 -73 75 -147l257 -256q167 -156 167 -319q0 -170 -109 -255q55 -91 55 -184zM499 587l180 -181q20 43 20 92q0 72 -73 145l-183 190q-19 -41 -19 -99q0 -74 75 -147z" />
    <glyph glyph-name="dieresis" unicode="&#xa8;" 
d="M341 1330q-56 0 -93 37t-37 89q0 51 37 87q37 37 93 37t93 -37q37 -36 37 -87q0 -52 -37 -89t-93 -37zM718 1330q-56 0 -93 37t-37 89q0 51 37 87q37 37 93 37t93 -37q37 -36 37 -87q0 -52 -37 -89t-93 -37z" />
    <glyph glyph-name="copyright" unicode="&#xa9;" 
d="M684 692v-30q0 -151 -86 -239q-86 -86 -217 -86t-219 86q-86 88 -86 239v249q0 152 86 238q87 87 219 87q131 0 217 -87q86 -86 86 -238v-35h-207v46q0 56 -20 98q-19 40 -76 40q-59 0 -78 -40q-20 -42 -20 -98v-271q0 -56 20 -98q19 -40 78 -40q57 0 76 40q20 42 20 98
v41h207zM811 514v554q0 189 -106 274q-106 86 -234 86q-222 0 -395 -142v179q167 137 398 137q243 0 393 -151q151 -150 151 -403v-514q0 -253 -151 -404q-150 -150 -393 -150q-231 0 -398 137v179q173 -142 395 -142q130 0 234 85q106 85 106 275z" />
    <glyph glyph-name="ordfeminine" unicode="&#xaa;" 
d="M858 1272v-598h-227v79q-62 -95 -185 -95q-101 0 -173 81q-71 83 -71 212t93 209q92 79 294 79h42v64q0 107 -102 107q-97 0 -143 -76l-163 110q111 158 306 158q145 0 237 -74t92 -256zM631 926v171h-42q-86 0 -123 -37t-37 -109q0 -101 89 -101q77 0 113 76zM870 403
v-208h-680v208h680z" />
    <glyph glyph-name="guillemotleft" unicode="&#xab;" 
d="M706 602l303 -478h-239l-312 478l312 478h239zM299 602l303 -478h-239l-312 478l312 478h239z" />
    <glyph glyph-name="logicalnot" unicode="&#xac;" 
d="M980 735v-617h-276v383h-665v234h941z" />
    <glyph glyph-name="softhyphen" unicode="&#xad;" 
d="M835 753v-258h-611v258h611z" />
    <glyph glyph-name="registered" unicode="&#xae;" 
d="M684 920q0 -168 -148 -244l148 -318h-220l-123 289h-58v-289h-207v857h275q181 0 257 -82q76 -80 76 -213zM477 930q0 58 -28.5 83.5t-87.5 25.5h-78v-227h78q60 0 88 26t28 92zM811 514v554q0 189 -106 274q-106 86 -234 86q-222 0 -395 -142v179q167 137 398 137
q243 0 393 -151q151 -150 151 -403v-514q0 -253 -151 -404q-150 -150 -393 -150q-231 0 -398 137v179q173 -142 395 -142q130 0 234 85q106 85 106 275z" />
    <glyph glyph-name="macron" unicode="&#xaf;" 
d="M815 1580v-176h-571v176h571z" />
    <glyph glyph-name="degree" unicode="&#xb0;" 
d="M892 1240q0 -147 -98 -256q-98 -107 -265 -107t-265 107q-97 107 -97 256t97 255q98 107 265 107t265 -107t98 -255zM676 1240q0 64 -38 110q-37 46 -109 46q-71 0 -108 -46q-38 -46 -38 -110q0 -68 39 -112.5t107 -44.5q71 0 108 46q39 47 39 111z" />
    <glyph glyph-name="plusminus" unicode="&#xb1;" 
d="M1010 466v-238h-960v238h960zM1010 1116v-238h-351v-311h-258v311h-351v238h351v311h258v-311h351z" />
    <glyph glyph-name="twosuperior" unicode="&#xb2;" 
d="M851 861v-188h-571v99q0 238 208 392l72 56q70 52 70 119q0 41 -24 63t-65 22q-65 0 -122 -87l-165 104q122 161 287 161q138 0 224 -74t86 -186q0 -138 -164 -261l-85 -64q-98 -73 -99 -156h348z" />
    <glyph glyph-name="threesuperior" unicode="&#xb3;" 
d="M850 950q0 -126 -81 -208q-79 -81 -233 -81q-188 0 -294 157l171 117q46 -96 122 -96q46 0 70 30.5t24 87.5q0 113 -110 113h-57v168h57q49 0 70 21.5t21 75.5q0 43 -20.5 66t-55.5 23q-68 0 -109 -86l-181 113q105 151 292 151q142 0 219 -69q76 -67 76 -177
q0 -140 -124 -198q143 -51 143 -208z" />
    <glyph glyph-name="acute" unicode="&#xb4;" 
d="M299 1335l180 245h280l-236 -245h-224z" />
    <glyph glyph-name="micro" unicode="&#xb5;" 
d="M915 1172v-1172h-258v115q-51 -135 -151 -135q-60 0 -103 45v-390h-258v1537h258v-750q0 -107 31.5 -153t94.5 -46q103 0 128 142v807h258z" />
    <glyph glyph-name="paragraph" unicode="&#xb6;" 
d="M972 1580v-1580h-183v1580h183zM675 1580v-1580h-183v667h-39q-159 0 -262 114q-103 115 -103 296v93q0 182 103 295q103 115 262 115h222z" />
    <glyph glyph-name="periodcentered" unicode="&#xb7;" 
d="M763 751q0 -111 -67 -172q-68 -62 -167 -62t-167 62q-66 61 -66 172t66 172q65 61 167 61q99 0 167 -62q67 -61 67 -171z" />
    <glyph glyph-name="cedilla" unicode="&#xb8;" 
d="M339 -375v134q146 -11 146 46q0 53 -81 46l49 99q246 -8 246 -144q0 -82 -67 -131q-68 -50 -293 -50z" />
    <glyph glyph-name="onesuperior" unicode="&#xb9;" 
d="M733 1580v-916h-222v677l-169 -119l-94 154l283 204h202z" />
    <glyph glyph-name="ordmasculine" unicode="&#xba;" 
d="M857 1275v-290q0 -153 -94 -240q-93 -87 -233 -87t-234 87t-94 240v290q0 153 94 240t234 87t233 -87q94 -87 94 -240zM630 994v272q0 78 -25 111t-75 33q-101 0 -101 -144v-272q0 -77 25.5 -110.5t75.5 -33.5t75 33t25 111zM870 403v-208h-680v208h680z" />
    <glyph glyph-name="guillemotright" unicode="&#xbb;" 
d="M697 1080l312 -478l-312 -478h-239l303 478l-303 478h239zM290 1080l312 -478l-312 -478h-239l303 478l-303 478h239z" />
    <glyph glyph-name="onequarter" unicode="&#xbc;" 
d="M683 1875v-875h-222v636l-169 -119l-87 155l276 203h202zM944 858v-129h-830v129h830zM818 72v-177h-78v-209h-206v209h-292v200l283 466h215v-489h78zM388 72h146v254z" />
    <glyph glyph-name="onehalf" unicode="&#xbd;" 
d="M944 858v-129h-830v129h830zM683 1875v-875h-222v636l-169 -119l-87 155l276 203h202zM831 -113v-188h-571v99q0 202 208 356l72 56q70 52 70 109q0 41 -24 63t-65 22q-65 0 -122 -87l-165 104q122 161 287 161q138 0 224 -74t86 -186q0 -128 -164 -251l-85 -64
q-98 -73 -99 -120h348z" />
    <glyph glyph-name="threequarters" unicode="&#xbe;" 
d="M820 1252q0 -105 -80 -188q-80 -81 -234 -81q-168 0 -274 147l168 106q40 -75 105 -75q46 0 70 25.5t24 72.5q0 106 -110 106h-57v168h57q91 0 91 84q0 82 -76 82q-60 0 -94 -75l-176 102q105 151 272 151q142 0 219 -69q76 -67 76 -167q0 -130 -124 -188
q143 -51 143 -201zM944 858v-129h-830v129h830zM808 72v-177h-78v-209h-206v209h-292v200l283 466h215v-489h78zM378 72h146v254z" />
    <glyph glyph-name="questiondown" unicode="&#xbf;" 
d="M688 1071q0 -75 -49 -124t-125 -49q-78 0 -127 49t-49 124q0 78 49 127t127 49q76 0 125 -49t49 -127zM717 14l224 -128q-145 -261 -417 -261q-180 0 -292 115q-113 115 -113 274q0 118 66 217l161 237q32 47 32 113v57h277v-58q0 -118 -70 -222l-157 -230
q-32 -49 -32 -124q0 -67 35.5 -104.5t93.5 -37.5q127 0 192 152z" />
    <glyph glyph-name="Agrave" unicode="&#xc0;" 
d="M484 1950l180 -245h-224l-236 245h280zM359 88v-88h-276v88q0 230 79 573l188 829h359l189 -829q79 -343 79 -573v-88h-276v88q0 122 -15 260h-313q-14 -143 -14 -260zM652 585l-122 673l-122 -673h244z" />
    <glyph glyph-name="Aacute" unicode="&#xc1;" 
d="M416 1705l180 245h280l-236 -245h-224zM359 88v-88h-276v88q0 230 79 573l188 829h359l189 -829q79 -343 79 -573v-88h-276v88q0 122 -15 260h-313q-14 -143 -14 -260zM652 585l-122 673l-122 -673h244z" />
    <glyph glyph-name="Acircumflex" unicode="&#xc2;" 
d="M749 1950l143 -245h-225l-137 152l-138 -152h-225l143 245h439zM359 88v-88h-276v88q0 230 79 573l188 829h359l189 -829q79 -343 79 -573v-88h-276v88q0 122 -15 260h-313q-14 -143 -14 -260zM652 585l-122 673l-122 -673h244z" />
    <glyph glyph-name="Atilde" unicode="&#xc3;" 
d="M779 1950l127 -92q-115 -214 -243 -214q-50 0 -135 58q-85 59 -122 59q-64 0 -126 -117l-127 92q115 214 243 214q49 0 134 -59q85 -58 123 -58q65 0 126 117zM359 88v-88h-276v88q0 230 79 573l188 829h359l189 -829q79 -343 79 -573v-88h-276v88q0 122 -15 260h-313
q-14 -143 -14 -260zM652 585l-122 673l-122 -673h244z" />
    <glyph glyph-name="Adieresis" unicode="&#xc4;" 
d="M341 1700q-56 0 -93 37t-37 89q0 51 37 87q37 37 93 37t93 -37q37 -36 37 -87q0 -52 -37 -89t-93 -37zM718 1700q-56 0 -93 37t-37 89q0 51 37 87q37 37 93 37t93 -37q37 -36 37 -87q0 -52 -37 -89t-93 -37zM359 88v-88h-276v88q0 230 79 573l188 829h359l189 -829
q79 -343 79 -573v-88h-276v88q0 122 -15 260h-313q-14 -143 -14 -260zM652 585l-122 673l-122 -673h244z" />
    <glyph glyph-name="Aring" unicode="&#xc5;" 
d="M794 1706q0 -102 -72 -174q-71 -71 -193 -71t-193 71q-71 73 -71 174q0 102 71 173t193 71t193 -71q72 -71 72 -173zM630 1706q0 46 -27 73t-74 27q-46 0 -73 -27t-27 -73t27 -73.5t73 -27.5t73.5 28t27.5 73zM359 88v-88h-276v88q0 230 79 573l180 789h376l180 -789
q79 -343 79 -573v-88h-276v88q0 122 -15 260h-313q-14 -143 -14 -260zM652 585l-122 673l-122 -673h244z" />
    <glyph glyph-name="AE" unicode="&#xc6;" 
d="M990 237v-237h-507v467h-158v-467h-256v569l258 1011h663v-236h-251v-399h210v-237h-210v-471h251zM364 704h119v607z" />
    <glyph glyph-name="Ccedilla" unicode="&#xc7;" 
d="M728 362l209 -143q-147 -239 -397 -239q-187 0 -307 120t-120 420v542q0 300 120 420t307 120q250 0 397 -239l-209 -143q-74 135 -188 135q-68 0 -109 -50q-40 -49 -40 -207v-615q0 -157 40 -207q41 -50 109 -50q115 0 188 136zM339 -375v134q146 -11 146 46
q0 53 -81 46l49 99q246 -8 246 -144q0 -82 -67 -131q-68 -50 -293 -50z" />
    <glyph glyph-name="Egrave" unicode="&#xc8;" 
d="M449 1950l180 -245h-224l-236 245h280zM944 238v-238h-788v1490h788v-238h-510v-351h366v-238h-366v-425h510z" />
    <glyph glyph-name="Eacute" unicode="&#xc9;" 
d="M381 1705l180 245h280l-236 -245h-224zM944 238v-238h-788v1490h788v-238h-510v-351h366v-238h-366v-425h510z" />
    <glyph glyph-name="Ecircumflex" unicode="&#xca;" 
d="M749 1950l143 -245h-225l-137 152l-138 -152h-225l143 245h439zM944 238v-238h-788v1490h788v-238h-510v-351h366v-238h-366v-425h510z" />
    <glyph glyph-name="Edieresis" unicode="&#xcb;" 
d="M341 1700q-56 0 -93 37t-37 89q0 51 37 87q37 37 93 37t93 -37q37 -36 37 -87q0 -52 -37 -89t-93 -37zM718 1700q-56 0 -93 37t-37 89q0 51 37 87q37 37 93 37t93 -37q37 -36 37 -87q0 -52 -37 -89t-93 -37zM944 238v-238h-788v1490h788v-238h-510v-351h366v-238h-366
v-425h510z" />
    <glyph glyph-name="Igrave" unicode="&#xcc;" 
d="M484 1950l180 -245h-224l-236 245h280zM876 228v-228h-692v228h207v1034h-164v228h606v-228h-164v-1034h207z" />
    <glyph glyph-name="Iacute" unicode="&#xcd;" 
d="M416 1705l180 245h280l-236 -245h-224zM876 228v-228h-692v228h207v1034h-164v228h606v-228h-164v-1034h207z" />
    <glyph glyph-name="Icircumflex" unicode="&#xce;" 
d="M749 1950l143 -245h-225l-137 152l-138 -152h-225l143 245h439zM876 228v-228h-692v228h207v1034h-164v228h606v-228h-164v-1034h207z" />
    <glyph glyph-name="Idieresis" unicode="&#xcf;" 
d="M341 1700q-56 0 -93 37t-37 89q0 51 37 87q37 37 93 37t93 -37q37 -36 37 -87q0 -52 -37 -89t-93 -37zM718 1700q-56 0 -93 37t-37 89q0 51 37 87q37 37 93 37t93 -37q37 -36 37 -87q0 -52 -37 -89t-93 -37zM876 228v-228h-692v228h207v1034h-164v228h606v-228h-164
v-1034h207z" />
    <glyph glyph-name="Eth" unicode="&#xd0;" 
d="M54 710v235h107v635h311q213 0 344 -115q133 -114 133 -412v-525q0 -299 -133 -414q-132 -114 -344 -114h-311v710h-107zM671 503v575q0 152 -51 203q-50 51 -139 51h-43v-387h108v-235h-108v-462h43q89 0 139 51q51 53 51 204z" />
    <glyph glyph-name="Ntilde" unicode="&#xd1;" 
d="M779 1950l127 -92q-115 -214 -243 -214q-50 0 -135 58q-85 59 -122 59q-64 0 -126 -117l-127 92q115 214 243 214q49 0 134 -59q85 -58 123 -58q65 0 126 117zM914 1490v-1490h-264l-312 980q33 -330 33 -703v-277h-226v1490h266l310 -980q-33 330 -33 703v277h226z" />
    <glyph glyph-name="Ograve" unicode="&#xd2;" 
d="M484 1950l180 -245h-224l-236 245h280zM938 982v-475q0 -298 -113 -413q-113 -114 -295 -114q-183 0 -295 114q-113 115 -113 413v475q0 298 113 413q112 115 295 115t295 -115q113 -115 113 -413zM660 473v543q0 131 -26 189q-26 57 -105 57t-104 -57q-25 -54 -25 -189
v-543q0 -130 26 -188q26 -57 105 -57q78 0 104 56q25 56 25 189z" />
    <glyph glyph-name="Oacute" unicode="&#xd3;" 
d="M416 1705l180 245h280l-236 -245h-224zM938 982v-475q0 -298 -113 -413q-113 -114 -295 -114q-183 0 -295 114q-113 115 -113 413v475q0 298 113 413q112 115 295 115t295 -115q113 -115 113 -413zM660 473v543q0 131 -26 189q-26 57 -105 57t-104 -57q-25 -54 -25 -189
v-543q0 -130 26 -188q26 -57 105 -57q78 0 104 56q25 56 25 189z" />
    <glyph glyph-name="Ocircumflex" unicode="&#xd4;" 
d="M749 1950l143 -245h-225l-137 152l-138 -152h-225l143 245h439zM938 982v-475q0 -298 -113 -413q-113 -114 -295 -114q-183 0 -295 114q-113 115 -113 413v475q0 298 113 413q112 115 295 115t295 -115q113 -115 113 -413zM660 473v543q0 131 -26 189q-26 57 -105 57
t-104 -57q-25 -54 -25 -189v-543q0 -130 26 -188q26 -57 105 -57q78 0 104 56q25 56 25 189z" />
    <glyph glyph-name="Otilde" unicode="&#xd5;" 
d="M779 1950l127 -92q-115 -214 -243 -214q-50 0 -135 58q-85 59 -122 59q-64 0 -126 -117l-127 92q115 214 243 214q49 0 134 -59q85 -58 123 -58q65 0 126 117zM938 982v-475q0 -298 -113 -413q-113 -114 -295 -114q-183 0 -295 114q-113 115 -113 413v475q0 298 113 413
q112 115 295 115t295 -115q113 -115 113 -413zM660 473v543q0 131 -26 189q-26 57 -105 57t-104 -57q-25 -54 -25 -189v-543q0 -130 26 -188q26 -57 105 -57q78 0 104 56q25 56 25 189z" />
    <glyph glyph-name="Odieresis" unicode="&#xd6;" 
d="M341 1700q-56 0 -93 37t-37 89q0 51 37 87q37 37 93 37t93 -37q37 -36 37 -87q0 -52 -37 -89t-93 -37zM718 1700q-56 0 -93 37t-37 89q0 51 37 87q37 37 93 37t93 -37q37 -36 37 -87q0 -52 -37 -89t-93 -37zM938 982v-475q0 -298 -113 -413q-113 -114 -295 -114
q-183 0 -295 114q-113 115 -113 413v475q0 298 113 413q112 115 295 115t295 -115q113 -115 113 -413zM660 473v543q0 131 -26 189q-26 57 -105 57t-104 -57q-25 -54 -25 -189v-543q0 -130 26 -188q26 -57 105 -57q78 0 104 56q25 56 25 189z" />
    <glyph glyph-name="multiply" unicode="&#xd7;" 
d="M994 382l-163 -166l-300 302l-300 -302l-165 166l301 299l-301 300l165 166l300 -302l300 302l163 -166l-297 -300z" />
    <glyph glyph-name="Oslash" unicode="&#xd8;" 
d="M381 -195l-172 38l48 230q-135 105 -135 434v567q0 298 113 413q112 115 295 115q63 0 114 -13l35 165l171 -38l-45 -209q133 -114 133 -433v-567q0 -298 -113 -413q-113 -114 -295 -114q-58 0 -111 12zM529 1354q-79 0 -114 -57t-35 -189v-730l212 963q-25 13 -63 13z
M680 473v723l-211 -956q25 -12 62 -12q79 0 114 57t35 188z" />
    <glyph glyph-name="Ugrave" unicode="&#xd9;" 
d="M485 1950l180 -245h-224l-236 245h280zM935 1490v-1026q0 -255 -113 -370q-112 -114 -292 -114t-292 114q-113 115 -113 370v1026h278v-1059q0 -110 30 -161.5t96 -51.5t97 52t31 161v1059h278z" />
    <glyph glyph-name="Uacute" unicode="&#xda;" 
d="M417 1705l180 245h280l-236 -245h-224zM935 1490v-1026q0 -255 -113 -370q-112 -114 -292 -114t-292 114q-113 115 -113 370v1026h278v-1059q0 -110 30 -161.5t96 -51.5t97 52t31 161v1059h278z" />
    <glyph glyph-name="Ucircumflex" unicode="&#xdb;" 
d="M750 1950l143 -245h-225l-137 152l-138 -152h-225l143 245h439zM935 1490v-1026q0 -255 -113 -370q-112 -114 -292 -114t-292 114q-113 115 -113 370v1026h278v-1059q0 -110 30 -161.5t96 -51.5t97 52t31 161v1059h278z" />
    <glyph glyph-name="Udieresis" unicode="&#xdc;" 
d="M342 1700q-56 0 -93 37t-37 89q0 51 37 87q37 37 93 37t93 -37q37 -36 37 -87q0 -52 -37 -89t-93 -37zM719 1700q-56 0 -93 37t-37 89q0 51 37 87q37 37 93 37t93 -37q37 -36 37 -87q0 -52 -37 -89t-93 -37zM935 1490v-1026q0 -255 -113 -370q-112 -114 -292 -114
t-292 114q-113 115 -113 370v1026h278v-1059q0 -110 30 -161.5t96 -51.5t97 52t31 161v1059h278z" />
    <glyph glyph-name="Yacute" unicode="&#xdd;" 
d="M416 1705l180 245h280l-236 -245h-224zM456 989l74 -146l74 146q76 148 90 428l2 73h276l-2 -73q-14 -288 -147 -547l-154 -301v-569h-278v569l-154 301q-133 259 -147 547l-2 73h276l2 -73q14 -280 90 -428z" />
    <glyph glyph-name="Thorn" unicode="&#xde;" 
d="M998 824v-72q0 -171 -113 -287q-113 -114 -293 -114h-126v-351h-278v1580h278v-356h126q201 0 303 -115q103 -113 103 -285zM720 761v54q0 69 -31 121t-117 52h-106v-400h104q75 0 112.5 46t37.5 127z" />
    <glyph glyph-name="germandbls" unicode="&#xdf;" 
d="M975 363q0 -177 -104.5 -272.5t-310.5 -95.5h-49v237h38q150 0 150 131q0 81 -107 227q-107 148 -107 266q0 104 61 198q62 95 62 182q0 57 -25 92.5t-74 35.5q-58 0 -82.5 -53.5t-24.5 -157.5v-1153h-277v1140q0 232 103 345q103 115 282 115q159 0 267 -105
q108 -103 108 -259q0 -109 -62 -209q-61 -97 -61 -171q0 -78 106 -214q107 -137 107 -279z" />
    <glyph glyph-name="agrave" unicode="&#xe0;" 
d="M913 813v-813h-278v135q-80 -155 -231 -155q-123 0 -212 98q-88 98 -88 248q0 175 110 279q112 104 325 104h96v126q0 121 -128 121q-125 0 -186 -132l-199 163q145 207 386 207q190 0 297 -97q108 -96 108 -284zM635 360v172h-96q-79 0 -119 -43t-40 -123
q0 -139 118 -139q124 0 137 133zM490 1580l180 -245h-224l-236 245h280z" />
    <glyph glyph-name="aacute" unicode="&#xe1;" 
d="M913 813v-813h-278v135q-80 -155 -231 -155q-123 0 -212 98q-88 98 -88 248q0 175 110 279q112 104 325 104h96v126q0 121 -128 121q-125 0 -186 -132l-199 163q145 207 386 207q190 0 297 -97q108 -96 108 -284zM635 360v172h-96q-79 0 -119 -43t-40 -123
q0 -139 118 -139q124 0 137 133zM411 1335l180 245h280l-236 -245h-224z" />
    <glyph glyph-name="acircumflex" unicode="&#xe2;" 
d="M911 813v-813h-278v135q-80 -155 -231 -155q-123 0 -212 98q-88 98 -88 248q0 175 110 279q112 104 325 104h96v126q0 121 -128 121q-125 0 -186 -132l-199 163q146 207 386 207q190 0 297 -97q108 -96 108 -284zM633 360v172h-96q-79 0 -119 -43t-40 -123
q0 -139 118 -139q124 0 137 133zM730 1580l143 -245h-225l-137 152l-138 -152h-225l143 245h439z" />
    <glyph glyph-name="atilde" unicode="&#xe3;" 
d="M913 813v-813h-278v135q-80 -155 -231 -155q-123 0 -212 98q-88 98 -88 248q0 175 110 279q112 104 325 104h96v126q0 121 -128 121q-125 0 -186 -132l-199 163q145 207 386 207q190 0 297 -97q108 -96 108 -284zM635 360v172h-96q-79 0 -119 -43t-40 -123
q0 -139 118 -139q124 0 137 133zM796 1600l127 -92q-115 -214 -243 -214q-50 0 -135 58q-85 59 -122 59q-65 0 -126 -117l-127 92q115 214 243 214q49 0 134 -59q85 -58 123 -58q64 0 126 117z" />
    <glyph glyph-name="adieresis" unicode="&#xe4;" 
d="M913 813v-813h-278v135q-80 -155 -231 -155q-123 0 -212 98q-88 98 -88 248q0 175 110 279q112 104 325 104h96v126q0 121 -128 121q-125 0 -186 -132l-199 163q145 207 386 207q190 0 297 -97q108 -96 108 -284zM635 360v172h-96q-79 0 -119 -43t-40 -123
q0 -139 118 -139q124 0 137 133zM358 1330q-56 0 -93 37t-37 89q0 51 37 87q37 37 93 37t93 -37q37 -36 37 -87q0 -52 -37 -89t-93 -37zM735 1330q-56 0 -93 37t-37 89q0 51 37 87q37 37 93 37t93 -37q37 -36 37 -87q0 -52 -37 -89t-93 -37z" />
    <glyph glyph-name="aring" unicode="&#xe5;" 
d="M913 813v-813h-278v135q-80 -155 -231 -155q-123 0 -212 98q-88 98 -88 248q0 175 110 279q112 104 325 104h96v126q0 121 -128 121q-125 0 -186 -132l-199 163q145 207 386 207q190 0 297 -97q108 -96 108 -284zM635 360v172h-96q-79 0 -119 -43t-40 -123
q0 -139 118 -139q124 0 137 133zM811 1498q0 -102 -72 -174q-71 -71 -193 -71t-193 71q-71 73 -71 174q0 102 71 173t193 71t193 -71q72 -70 72 -173zM647 1498q0 46 -27 73t-74 27q-46 0 -73 -27t-27 -73t27 -73.5t73 -27.5t73.5 28t27.5 73z" />
    <glyph glyph-name="ae" unicode="&#xe6;" 
d="M1020 797v-259h-366v-213q0 -125 75 -125q64 0 93 101l186 -127q-93 -194 -259 -194q-154 0 -215 136q-72 -136 -233 -136q-119 0 -191 85q-71 86 -71 277q0 182 86.5 279.5t246.5 97.5h34v129q0 125 -70 125q-59 0 -82 -83l-202 109q82 195 259 195q158 0 223 -131
q68 131 215 131q129 0 200 -86t71 -311zM653 719h140v135q0 119 -69 119q-71 0 -71 -119v-135zM406 319v219h-34q-106 0 -106 -191q0 -147 70 -147t70 119z" />
    <glyph glyph-name="ccedilla" unicode="&#xe7;" 
d="M713 348l229 -153q-135 -215 -385 -215q-190 0 -304 124q-113 125 -113 372v221q0 247 113 372q114 125 304 125q250 0 385 -217l-209 -143q-71 122 -176 122q-77 0 -108 -57q-30 -57 -30 -197v-241q0 -125 31.5 -184.5t106.5 -59.5q94 0 156 131zM339 -375v134
q146 -11 146 46q0 53 -81 46l49 99q246 -8 246 -144q0 -82 -67 -131q-68 -50 -293 -50z" />
    <glyph glyph-name="egrave" unicode="&#xe8;" 
d="M934 697v-146h-532v-130q0 -104 32.5 -153.5t106.5 -49.5q111 0 177 110l209 -143q-135 -205 -397 -205q-180 0 -293 114q-113 115 -113 382v221q0 267 113 382q112 115 293 115q178 0 291 -114q113 -115 113 -383zM401 729h257v43q0 204 -128 204q-129 0 -129 -204v-43z
M473 1580l180 -245h-224l-236 245h280z" />
    <glyph glyph-name="eacute" unicode="&#xe9;" 
d="M934 697v-146h-532v-130q0 -104 32.5 -153.5t106.5 -49.5q111 0 177 110l209 -143q-135 -205 -397 -205q-180 0 -293 114q-113 115 -113 382v221q0 267 113 382q112 115 293 115q178 0 291 -114q113 -115 113 -383zM401 729h257v43q0 204 -128 204q-129 0 -129 -204v-43z
M394 1335l180 245h280l-236 -245h-224z" />
    <glyph glyph-name="ecircumflex" unicode="&#xea;" 
d="M934 697v-146h-532v-130q0 -104 32.5 -153.5t106.5 -49.5q111 0 177 110l209 -143q-135 -205 -397 -205q-180 0 -293 114q-113 115 -113 382v221q0 267 113 382q112 115 293 115q178 0 291 -114q113 -115 113 -383zM401 729h257v43q0 204 -128 204q-129 0 -129 -204v-43z
M749 1580l143 -245h-225l-137 152l-138 -152h-225l143 245h439z" />
    <glyph glyph-name="edieresis" unicode="&#xeb;" 
d="M934 697v-146h-532v-130q0 -104 32.5 -153.5t106.5 -49.5q111 0 177 110l209 -143q-135 -205 -397 -205q-180 0 -293 114q-113 115 -113 382v221q0 267 113 382q112 115 293 115q178 0 291 -114q113 -115 113 -383zM401 729h257v43q0 204 -128 204q-129 0 -129 -204v-43z
M341 1330q-56 0 -93 37t-37 89q0 51 37 87q37 37 93 37t93 -37q37 -36 37 -87q0 -52 -37 -89t-93 -37zM718 1330q-56 0 -93 37t-37 89q0 51 37 87q37 37 93 37t93 -37q37 -36 37 -87q0 -52 -37 -89t-93 -37z" />
    <glyph glyph-name="igrave" unicode="&#xec;" 
d="M879 228v-228h-699v228h211v716h-181v228h459v-944h210zM452 1580l180 -245h-224l-236 245h280z" />
    <glyph glyph-name="iacute" unicode="&#xed;" 
d="M875 228v-228h-699v228h211v716h-181v228h459v-944h210zM475 1335l180 245h280l-236 -245h-224z" />
    <glyph glyph-name="icircumflex" unicode="&#xee;" 
d="M891 228v-228h-699v228h211v716h-181v228h459v-944h210zM718 1580l143 -245h-225l-137 152l-138 -152h-225l143 245h439z" />
    <glyph glyph-name="idieresis" unicode="&#xef;" 
d="M883 228v-228h-699v228h211v716h-181v228h459v-944h210zM313 1330q-56 0 -93 37t-37 89q0 51 37 87q37 37 93 37t93 -37q37 -36 37 -87q0 -52 -37 -89t-93 -37zM690 1330q-56 0 -93 37t-37 89q0 51 37 87q37 37 93 37t93 -37q37 -36 37 -87q0 -52 -37 -89t-93 -37z" />
    <glyph glyph-name="eth" unicode="&#xf0;" 
d="M921 1585l53 -164l-148 -51q68 -125 68 -329v-632q0 -203 -112 -316q-113 -113 -291 -113q-158 0 -282 113q-123 114 -123 381v136q0 273 85 385q86 113 206 113q159 0 242 -125v138q0 98 -32 165l-201 -70l-54 165l152 53q-35 43 -101 84l129 192q140 -81 220 -191z
M619 449v285q-36 133 -139 133q-118 0 -118 -232v-162q0 -132 31.5 -194t97.5 -62q77 0 102 61q26 63 26 171z" />
    <glyph glyph-name="ntilde" unicode="&#xf1;" 
d="M935 750v-750h-278v750q0 120 -33 159q-31 40 -93 40q-103 0 -128 -142v-807h-278v1172h278v-135q92 152 240 152q130 0 211 -97q81 -98 81 -342zM779 1600l127 -92q-115 -214 -243 -214q-50 0 -135 58q-85 59 -122 59q-64 0 -126 -117l-127 92q115 214 243 214
q49 0 134 -59q85 -58 123 -58q65 0 126 117z" />
    <glyph glyph-name="ograve" unicode="&#xf2;" 
d="M934 697v-222q0 -267 -113 -382q-113 -113 -291 -113q-179 0 -292 113q-113 115 -113 382v222q0 268 113 383q113 114 292 114q178 0 291 -114q113 -115 113 -383zM656 472v222q0 159 -30 210q-30 52 -96 52t-97 -52q-30 -51 -30 -210v-222q0 -150 30 -203q31 -51 97 -51
t96 51q30 52 30 203zM473 1580l180 -245h-224l-236 245h280z" />
    <glyph glyph-name="oacute" unicode="&#xf3;" 
d="M934 697v-222q0 -267 -113 -382q-113 -113 -291 -113q-179 0 -292 113q-113 115 -113 382v222q0 268 113 383q113 114 292 114q178 0 291 -114q113 -115 113 -383zM656 472v222q0 159 -30 210q-30 52 -96 52t-97 -52q-30 -51 -30 -210v-222q0 -150 30 -203q31 -51 97 -51
t96 51q30 52 30 203zM394 1335l180 245h280l-236 -245h-224z" />
    <glyph glyph-name="ocircumflex" unicode="&#xf4;" 
d="M935 697v-222q0 -267 -113 -382q-113 -113 -291 -113q-179 0 -292 113q-113 115 -113 382v222q0 268 113 383q113 114 292 114t291 -114q113 -115 113 -383zM657 472v222q0 159 -30 210q-30 52 -96 52t-97 -52q-30 -51 -30 -210v-222q0 -150 30 -203q31 -51 97 -51t96 51
q30 52 30 203zM750 1580l143 -245h-225l-137 152l-138 -152h-225l143 245h439z" />
    <glyph glyph-name="otilde" unicode="&#xf5;" 
d="M934 697v-222q0 -267 -113 -382q-113 -113 -291 -113q-179 0 -292 113q-113 115 -113 382v222q0 268 113 383q113 114 292 114q178 0 291 -114q113 -115 113 -383zM656 472v222q0 159 -30 210q-30 52 -96 52t-97 -52q-30 -51 -30 -210v-222q0 -150 30 -203q31 -51 97 -51
t96 51q30 52 30 203zM779 1600l127 -92q-115 -214 -243 -214q-50 0 -135 58q-85 59 -122 59q-64 0 -126 -117l-127 92q115 214 243 214q49 0 134 -59q85 -58 123 -58q65 0 126 117z" />
    <glyph glyph-name="odieresis" unicode="&#xf6;" 
d="M934 697v-222q0 -267 -113 -382q-113 -113 -291 -113q-179 0 -292 113q-113 115 -113 382v222q0 268 113 383q113 114 292 114q178 0 291 -114q113 -115 113 -383zM656 472v222q0 159 -30 210q-30 52 -96 52t-97 -52q-30 -51 -30 -210v-222q0 -150 30 -203q31 -51 97 -51
t96 51q30 52 30 203zM341 1330q-56 0 -93 37t-37 89q0 51 37 87q37 37 93 37t93 -37q37 -36 37 -87q0 -52 -37 -89t-93 -37zM718 1330q-56 0 -93 37t-37 89q0 51 37 87q37 37 93 37t93 -37q37 -36 37 -87q0 -52 -37 -89t-93 -37z" />
    <glyph glyph-name="divide" unicode="&#xf7;" 
d="M733 1112q0 -91 -60 -148q-59 -56 -144 -56t-144 56q-59 57 -59 148t58 146q59 57 145 57q85 0 144 -57q60 -57 60 -146zM1010 790v-198h-961v198h961zM733 267q0 -91 -60 -147q-59 -56 -144 -56t-144 56t-59 147t58 146q58 57 145 57q85 0 144 -57q60 -57 60 -146z" />
    <glyph glyph-name="oslash" unicode="&#xf8;" 
d="M358 -185l-169 49l61 218q-125 113 -125 393v222q0 268 113 383q113 114 292 114q67 0 122 -16l52 183l168 -49l-62 -221q124 -115 124 -394v-222q0 -267 -113 -382q-113 -113 -291 -113q-65 0 -122 15zM530 956q-66 0 -97 -52q-30 -51 -30 -210v-368l185 616
q-25 14 -58 14zM656 472v372l-184 -613q25 -13 58 -13q66 0 96 51q30 52 30 203z" />
    <glyph glyph-name="ugrave" unicode="&#xf9;" 
d="M935 1172v-1172h-278v135q-92 -152 -240 -152q-130 0 -211 97q-81 98 -81 342v750h278v-750q0 -119 32 -160q33 -39 94 -39q103 0 128 142v807h278zM473 1580l180 -245h-224l-236 245h280z" />
    <glyph glyph-name="uacute" unicode="&#xfa;" 
d="M935 1172v-1172h-278v135q-92 -152 -240 -152q-130 0 -211 97q-81 98 -81 342v750h278v-750q0 -119 32 -160q33 -39 94 -39q103 0 128 142v807h278zM394 1335l180 245h280l-236 -245h-224z" />
    <glyph glyph-name="ucircumflex" unicode="&#xfb;" 
d="M935 1172v-1172h-278v135q-92 -152 -240 -152q-130 0 -211 97q-81 98 -81 342v750h278v-750q0 -119 32 -160q33 -39 94 -39q103 0 128 142v807h278zM749 1580l143 -245h-225l-137 152l-138 -152h-225l143 245h439z" />
    <glyph glyph-name="udieresis" unicode="&#xfc;" 
d="M935 1172v-1172h-278v135q-92 -152 -240 -152q-130 0 -211 97q-81 98 -81 342v750h278v-750q0 -119 32 -160q33 -39 94 -39q103 0 128 142v807h278zM342 1330q-56 0 -93 37t-37 89q0 51 37 87q37 37 93 37t93 -37q37 -36 37 -87q0 -52 -37 -89t-93 -37zM719 1330
q-56 0 -93 37t-37 89q0 51 37 87q37 37 93 37t93 -37q37 -36 37 -87q0 -52 -37 -89t-93 -37z" />
    <glyph glyph-name="yacute" unicode="&#xfd;" 
d="M457 1335l180 245h280l-236 -245h-224zM506 -365h-276l2 38q8 127 69 285l101 262l-215 538q-79 198 -86 324l-5 90h276l5 -84q11 -186 51 -289l102 -264l94 264q50 129 59 289l5 84h276l-6 -90q-8 -131 -83 -324l-310 -805q-46 -121 -57 -280z" />
    <glyph glyph-name="thorn" unicode="&#xfe;" 
d="M955 698v-220q0 -271 -81 -383t-211 -112q-149 0 -240 153v-501h-278v1945h278v-539q91 151 240 151q130 0 211 -113t81 -381zM677 517v142q0 165 -33 229q-32 66 -93 66q-92 0 -128 -133v-466q35 -132 128 -132q61 0 93 65q33 65 33 229z" />
    <glyph glyph-name="ydieresis" unicode="&#xff;" 
d="M342 1330q-56 0 -93 37t-37 89q0 51 37 87q37 37 93 37t93 -37q37 -36 37 -87q0 -52 -37 -89t-93 -37zM719 1330q-56 0 -93 37t-37 89q0 51 37 87q37 37 93 37t93 -37q37 -36 37 -87q0 -52 -37 -89t-93 -37zM492 -365h-276l2 38q8 127 69 285l101 262l-215 538
q-79 198 -86 324l-5 90h276l5 -84q11 -186 51 -289l102 -264l94 264q50 129 59 289l5 84h276l-6 -90q-8 -131 -83 -324l-310 -805q-46 -121 -57 -280z" />
    <glyph glyph-name="Amacron" unicode="&#x100;" 
d="M815 1800v-176h-571v176h571zM359 88v-88h-276v88q0 230 79 573l188 829h359l189 -829q79 -343 79 -573v-88h-276v88q0 122 -15 260h-313q-14 -143 -14 -260zM652 585l-122 673l-122 -673h244z" />
    <glyph glyph-name="amacron" unicode="&#x101;" 
d="M954 813v-813h-278v135q-80 -155 -231 -155q-123 0 -212 98q-88 98 -88 248q0 175 110 279q112 104 325 104h96v126q0 121 -128 121q-124 0 -186 -132l-199 163q145 207 386 207q190 0 297 -97q108 -96 108 -284zM676 360v172h-96q-79 0 -119 -43t-40 -123
q0 -139 118 -139q124 0 137 133zM815 1490v-176h-571v176h571z" />
    <glyph glyph-name="Abreve" unicode="&#x102;" 
d="M828 1950v-248q-111 -157 -298 -157q-189 0 -298 157v248h30q98 -216 268 -216q169 0 268 216h30zM359 88v-88h-276v88q0 230 79 573l180 789h376l180 -789q79 -343 79 -573v-88h-276v88q0 122 -15 260h-313q-14 -143 -14 -260zM652 585l-122 673l-122 -673h244z" />
    <glyph glyph-name="abreve" unicode="&#x103;" 
d="M954 813v-813h-278v135q-80 -155 -231 -155q-123 0 -212 98q-88 98 -88 248q0 175 110 279q112 104 325 104h96v126q0 121 -128 121q-124 0 -186 -132l-199 163q145 207 386 207q190 0 297 -97q108 -96 108 -284zM676 360v172h-96q-79 0 -119 -43t-40 -123
q0 -139 118 -139q124 0 137 133zM828 1720v-248q-111 -157 -298 -157q-189 0 -298 157v248h30q98 -216 268 -216q169 0 268 216h30z" />
    <glyph glyph-name="Aogonek" unicode="&#x104;" 
d="M359 88v-88h-276v88q0 230 79 573l209 919h318l209 -919q79 -343 79 -573v-88h-276v88q0 118 -17 260h-308q-17 -142 -17 -260zM644 585l-114 581l-114 -581h228zM999 -210v-159q-226 -6 -301 51q-75 56 -75 146q0 106 128 172h197q-121 -55 -121 -129q0 -52 51 -70
q53 -18 121 -11z" />
    <glyph glyph-name="aogonek" unicode="&#x105;" 
d="M954 813v-813h-278v135q-80 -155 -231 -155q-123 0 -212 98q-88 98 -88 248q0 175 110 279q112 104 325 104h96v126q0 121 -128 121q-124 0 -186 -132l-199 163q145 207 386 207q190 0 297 -97q108 -96 108 -284zM676 360v172h-96q-79 0 -119 -43t-40 -123
q0 -139 118 -139q124 0 137 133zM964 -210v-159q-226 -6 -301 51q-75 56 -75 146q0 106 128 172h197q-121 -55 -121 -129q0 -52 51 -70q53 -18 121 -11z" />
    <glyph glyph-name="Cacute" unicode="&#x106;" 
d="M519 1705l180 245h280l-236 -245h-224zM792 362l209 -143q-147 -239 -397 -239q-202 0 -315 114q-112 113 -112 434v442q0 298 115 419t312 121q250 0 397 -239l-209 -143q-73 135 -188 135q-77 0 -113 -57q-36 -56 -36 -200v-523q0 -143 36 -200t113 -57q115 0 188 136z
" />
    <glyph glyph-name="cacute" unicode="&#x107;" 
d="M703 348l229 -153q-135 -215 -385 -215q-190 0 -304 124q-113 125 -113 372v221q0 247 113 372q114 125 304 125q250 0 385 -217l-209 -143q-71 122 -176 122q-77 0 -108 -57q-30 -57 -30 -197v-241q0 -125 31.5 -184.5t106.5 -59.5q94 0 156 131zM464 1335l180 245h280
l-236 -245h-224z" />
    <glyph glyph-name="Ccircumflex" unicode="&#x108;" 
d="M804 1950l143 -245h-225l-137 152l-138 -152h-225l143 245h439zM792 362l209 -143q-147 -239 -397 -239q-202 0 -315 114q-112 113 -112 434v442q0 298 115 419t312 121q250 0 397 -239l-209 -143q-73 135 -188 135q-77 0 -113 -57q-36 -56 -36 -200v-523q0 -143 36 -200
t113 -57q115 0 188 136z" />
    <glyph glyph-name="ccircumflex" unicode="&#x109;" 
d="M703 348l229 -153q-135 -215 -385 -215q-190 0 -304 124q-113 125 -113 372v221q0 247 113 372q114 125 304 125q250 0 385 -217l-209 -143q-71 122 -176 122q-77 0 -108 -57q-30 -57 -30 -197v-241q0 -125 31.5 -184.5t106.5 -59.5q94 0 156 131zM774 1580l143 -245
h-225l-137 152l-138 -152h-225l143 245h439z" />
    <glyph glyph-name="Cdotaccent" unicode="&#x10a;" 
d="M765 1805q0 -64 -42 -104.5t-124 -40.5t-123.5 40t-41.5 105q0 66 41 105.5t124 39.5t124.5 -39.5t41.5 -105.5zM792 362l209 -143q-147 -239 -397 -239q-202 0 -315 114q-112 113 -112 434v442q0 298 115 419t312 121q250 0 397 -239l-209 -143q-73 135 -188 135
q-77 0 -113 -57q-36 -56 -36 -200v-523q0 -143 36 -200t113 -57q115 0 188 136z" />
    <glyph glyph-name="cdotaccent" unicode="&#x10b;" 
d="M703 348l229 -153q-135 -215 -385 -215q-190 0 -304 124q-113 125 -113 372v221q0 247 113 372q114 125 304 125q250 0 385 -217l-209 -143q-71 122 -176 122q-77 0 -108 -57q-30 -57 -30 -197v-241q0 -125 31.5 -184.5t106.5 -59.5q94 0 156 131zM735 1435
q0 -64 -42 -104.5t-124 -40.5t-123.5 40t-41.5 105q0 66 41 105.5t124 39.5t124.5 -39.5t41.5 -105.5z" />
    <glyph glyph-name="Ccaron" unicode="&#x10c;" 
d="M969 1950l-183 -245h-359l-183 245h225l138 -152l137 152h225zM792 362l209 -143q-147 -239 -397 -239q-202 0 -315 114q-112 113 -112 434v442q0 298 115 419t312 121q250 0 397 -239l-209 -143q-73 135 -188 135q-77 0 -113 -57q-36 -56 -36 -200v-523q0 -143 36 -200
t113 -57q115 0 188 136z" />
    <glyph glyph-name="ccaron" unicode="&#x10d;" 
d="M703 348l229 -153q-135 -215 -385 -215q-190 0 -304 124q-113 125 -113 372v221q0 247 113 372q114 125 304 125q250 0 385 -217l-209 -143q-71 122 -176 122q-77 0 -108 -57q-30 -57 -30 -197v-241q0 -125 31.5 -184.5t106.5 -59.5q94 0 156 131zM942 1580l-183 -245
h-359l-183 245h225l138 -152l137 152h225z" />
    <glyph glyph-name="Dcaron" unicode="&#x10e;" 
d="M846 1950l-183 -245h-359l-183 245h225l138 -152l137 152h225zM929 963v-435q0 -298 -113 -414q-112 -114 -324 -114h-361v1490h361q212 0 324 -115q113 -115 113 -412zM651 503v485q0 153 -46 203q-45 51 -134 51h-63v-994h63q89 0 134 51q46 52 46 204z" />
    <glyph glyph-name="dcaron" unicode="&#x10f;" 
d="M745 1580v-1580h-236v111q-74 -131 -202 -131q-110 0 -191 112q-81 113 -81 382v220q0 270 81 382q81 113 191 113q129 0 202 -132v523h236zM509 349v470q-56 132 -130 132q-53 0 -80.5 -64t-27.5 -182v-242q0 -118 27.5 -182.5t80.5 -64.5q75 0 130 133zM875 1580h200
l-69 -365h-175z" />
    <glyph glyph-name="Dcroat" unicode="&#x110;" 
d="M54 710v235h107v635h311q213 0 344 -115q133 -114 133 -412v-525q0 -299 -133 -414q-132 -114 -344 -114h-311v710h-107zM671 503v575q0 152 -51 203q-50 51 -139 51h-43v-387h108v-235h-108v-462h43q89 0 139 51q51 53 51 204z" />
    <glyph glyph-name="dcroat" unicode="&#x111;" 
d="M991 1424v-168h-96v-1256h-278v131q-91 -151 -220 -151q-150 0 -231 112q-81 113 -81 382v130q0 270 81 382q81 113 231 113q128 0 220 -152v309h-180v168h180v156h278v-156h96zM617 351v376q-35 132 -128 132q-61 0 -94 -65q-32 -66 -32 -229v-52q0 -163 32 -230
q33 -65 94 -65q92 0 128 133z" />
    <glyph glyph-name="Emacron" unicode="&#x112;" 
d="M834 1900v-176h-571v176h571zM944 238v-238h-788v1490h788v-238h-510v-351h366v-238h-366v-425h510z" />
    <glyph glyph-name="emacron" unicode="&#x113;" 
d="M934 697v-146h-532v-130q0 -104 32.5 -153.5t106.5 -49.5q111 0 177 110l209 -143q-135 -205 -397 -205q-180 0 -293 114q-113 115 -113 382v221q0 267 113 382q112 115 293 115q178 0 291 -114q113 -115 113 -383zM401 729h257v43q0 204 -128 204q-129 0 -129 -204v-43z
M816 1580v-176h-571v176h571z" />
    <glyph glyph-name="Ebreve" unicode="&#x114;" 
d="M828 1950v-248q-111 -157 -298 -157q-189 0 -298 157v248h30q98 -216 268 -216q169 0 268 216h30zM964 238v-238h-798v1450h788v-238h-510v-306h366v-238h-366v-430h520z" />
    <glyph glyph-name="ebreve" unicode="&#x115;" 
d="M934 697v-146h-532v-130q0 -104 32.5 -153.5t106.5 -49.5q111 0 177 110l209 -143q-135 -205 -397 -205q-180 0 -293 114q-113 115 -113 382v221q0 267 113 382q112 115 293 115q178 0 291 -114q113 -115 113 -383zM401 729h257v43q0 204 -128 204q-129 0 -129 -204v-43z
M828 1720v-248q-111 -157 -298 -157q-189 0 -298 157v248h30q98 -216 268 -216q169 0 268 216h30z" />
    <glyph glyph-name="Edotaccent" unicode="&#x116;" 
d="M695 1805q0 -64 -42 -104.5t-124 -40.5t-123.5 40t-41.5 105q0 66 41 105.5t124 39.5t124.5 -39.5t41.5 -105.5zM944 238v-238h-788v1490h788v-238h-510v-351h366v-238h-366v-425h510z" />
    <glyph glyph-name="edotaccent" unicode="&#x117;" 
d="M934 697v-146h-532v-130q0 -104 32.5 -153.5t106.5 -49.5q111 0 177 110l209 -143q-135 -205 -397 -205q-180 0 -293 114q-113 115 -113 382v221q0 267 113 382q112 115 293 115q178 0 291 -114q113 -115 113 -383zM401 729h257v43q0 204 -128 204q-129 0 -129 -204v-43z
M685 1435q0 -64 -42 -104.5t-124 -40.5t-123.5 40t-41.5 105q0 66 41 105.5t124 39.5t124.5 -39.5t41.5 -105.5z" />
    <glyph glyph-name="Eogonek" unicode="&#x118;" 
d="M954 238v-238h-798v1580h788v-238h-510v-396h366v-238h-366v-470h520zM966 -210v-159q-226 -6 -301 51q-75 56 -75 146q0 106 128 172h197q-121 -55 -121 -129q0 -52 51 -70q53 -18 121 -11z" />
    <glyph glyph-name="eogonek" unicode="&#x119;" 
d="M934 697v-146h-532v-130q0 -104 32.5 -153.5t106.5 -49.5q111 0 177 110l209 -143q-135 -205 -397 -205q-180 0 -293 114q-113 115 -113 382v221q0 267 113 382q112 115 293 115q178 0 291 -114q113 -115 113 -383zM401 729h257v43q0 204 -128 204q-129 0 -129 -204v-43z
M727 -210v-159q-226 -6 -301 51q-75 56 -75 146q0 106 128 172h197q-121 -55 -121 -129q0 -52 51 -70q53 -18 121 -11z" />
    <glyph glyph-name="Ecaron" unicode="&#x11a;" 
d="M893 1950l-183 -245h-359l-183 245h225l138 -152l137 152h225zM944 238v-238h-788v1490h788v-238h-510v-351h366v-238h-366v-425h510z" />
    <glyph glyph-name="ecaron" unicode="&#x11b;" 
d="M934 697v-146h-532v-130q0 -104 32.5 -153.5t106.5 -49.5q111 0 177 110l209 -143q-135 -205 -397 -205q-180 0 -293 114q-113 115 -113 382v221q0 267 113 382q112 115 293 115q178 0 291 -114q113 -115 113 -383zM401 729h257v43q0 204 -128 204q-129 0 -129 -204v-43z
M893 1580l-183 -245h-359l-183 245h225l138 -152l137 152h225z" />
    <glyph glyph-name="Gcircumflex" unicode="&#x11c;" 
d="M736 1950l143 -245h-225l-137 152l-138 -152h-225l143 245h439zM935 850v-343q0 -298 -113 -413q-112 -114 -292 -114t-292 114q-113 115 -113 413v475q0 298 113 413q112 115 292 115q248 0 385 -216l-209 -143q-64 112 -168 112q-69 0 -102.5 -59t-33.5 -193v-540
q0 -130 26 -188q27 -57 103 -57q75 0 101 56q25 56 25 189v142h-95v237h373z" />
    <glyph glyph-name="gcircumflex" unicode="&#x11d;" 
d="M940 1172v-200h-61l-47 10q30 -57 30 -136q0 -136 -99 -226q-97 -90 -279 -90q-51 0 -78 1q-56 -56 -56 -107q0 -72 128 -72h77q199 0 297 -99q98 -98 98 -250q0 -171 -130 -274q-131 -104 -353 -104q-215 0 -315 102q-100 100 -100 233q0 160 169 256q-122 68 -122 181
q0 106 141 190q-144 85 -144 267q0 154 102 244q104 90 287 90q45 0 103 -9q73 -7 352 -7zM595 865q0 142 -114 142q-117 0 -117 -145q0 -151 116 -151q58 0 86.5 35t28.5 119zM672 -7q0 67 -36.5 104t-104.5 37h-47q-72 0 -113.5 -40.5t-41.5 -110.5q0 -65 38.5 -103
t117.5 -38q187 0 187 151zM749 1580l143 -245h-225l-137 152l-138 -152h-225l143 245h439z" />
    <glyph glyph-name="Gbreve" unicode="&#x11e;" 
d="M828 1950v-248q-111 -157 -298 -157q-189 0 -298 157v248h30q98 -216 268 -216q169 0 268 216h30zM935 855v-348q0 -298 -113 -413q-112 -114 -292 -114t-292 114q-113 115 -113 413v434q0 298 113 413q112 115 292 115q248 0 385 -216l-209 -143q-64 112 -168 112
q-69 0 -102.5 -59t-33.5 -193v-499q0 -130 26 -188q27 -57 103 -57q75 0 101 56q25 56 25 189v147h-95v237h373z" />
    <glyph glyph-name="gbreve" unicode="&#x11f;" 
d="M940 1172v-200h-61l-47 10q30 -57 30 -136q0 -136 -99 -226q-97 -90 -279 -90q-51 0 -78 1q-56 -56 -56 -107q0 -72 128 -72h77q199 0 297 -99q98 -98 98 -250q0 -171 -130 -274q-131 -104 -353 -104q-215 0 -315 102q-100 100 -100 233q0 160 169 256q-122 68 -122 181
q0 106 141 190q-144 85 -144 267q0 154 102 244q104 90 287 90q45 0 103 -9q73 -7 352 -7zM595 865q0 142 -114 142q-117 0 -117 -145q0 -151 116 -151q58 0 86.5 35t28.5 119zM672 -7q0 67 -36.5 104t-104.5 37h-47q-72 0 -113.5 -40.5t-41.5 -110.5q0 -65 38.5 -103
t117.5 -38q187 0 187 151zM828 1720v-248q-111 -157 -298 -157q-189 0 -298 157v248h30q98 -216 268 -216q169 0 268 216h30z" />
    <glyph glyph-name="Gdotaccent" unicode="&#x120;" 
d="M694 1805q0 -64 -42 -104.5t-124 -40.5t-123.5 40t-41.5 105q0 66 41 105.5t124 39.5t124.5 -39.5t41.5 -105.5zM935 850v-343q0 -298 -113 -413q-112 -114 -292 -114t-292 114q-113 115 -113 413v475q0 298 113 413q112 115 292 115q248 0 385 -216l-209 -143
q-64 112 -168 112q-69 0 -102.5 -59t-33.5 -193v-540q0 -130 26 -188q27 -57 103 -57q75 0 101 56q25 56 25 189v142h-95v237h373z" />
    <glyph glyph-name="gdotaccent" unicode="&#x121;" 
d="M940 1172v-200h-61l-47 10q30 -57 30 -136q0 -136 -99 -226q-97 -90 -279 -90q-51 0 -78 1q-56 -56 -56 -107q0 -72 128 -72h77q199 0 297 -99q98 -98 98 -250q0 -171 -130 -274q-131 -104 -353 -104q-215 0 -315 102q-100 100 -100 233q0 160 169 256q-122 68 -122 181
q0 106 141 190q-144 85 -144 267q0 154 102 244q104 90 287 90q45 0 103 -9q73 -7 352 -7zM595 865q0 142 -114 142q-117 0 -117 -145q0 -151 116 -151q58 0 86.5 35t28.5 119zM672 -7q0 67 -36.5 104t-104.5 37h-47q-72 0 -113.5 -40.5t-41.5 -110.5q0 -65 38.5 -103
t117.5 -38q187 0 187 151zM682 1435q0 -64 -42 -104.5t-124 -40.5t-123.5 40t-41.5 105q0 66 41 105.5t124 39.5t124.5 -39.5t41.5 -105.5z" />
    <glyph glyph-name="Gcommaaccent" unicode="&#x122;" 
d="M935 895v-388q0 -298 -113 -413q-112 -114 -292 -114t-292 114q-113 115 -113 413v567q0 298 113 413q112 115 292 115q248 0 385 -216l-209 -143q-64 112 -168 112q-69 0 -102.5 -59t-33.5 -193v-632q0 -130 26 -188q27 -57 103 -57q75 0 101 56q25 56 25 189v187h-95
v237h373zM629 -159q0 -81 -77 -206h-114q49 68 67 140q-33 1 -57 27t-24 61q0 37 25.5 62t73.5 25q45 0 75.5 -31.5t30.5 -77.5z" />
    <glyph glyph-name="gcommaaccent" unicode="&#x123;" 
d="M940 1172v-200h-61l-47 10q30 -57 30 -136q0 -136 -99 -226q-97 -90 -279 -90q-51 0 -78 1q-56 -56 -56 -107q0 -72 128 -72h77q199 0 297 -99q98 -98 98 -250q0 -171 -130 -274q-131 -104 -353 -104q-215 0 -315 102q-100 100 -100 233q0 160 169 256q-122 68 -122 181
q0 106 141 190q-144 85 -144 267q0 154 102 244q104 90 287 90q45 0 103 -9q73 -7 352 -7zM595 865q0 142 -114 142q-117 0 -117 -145q0 -151 116 -151q58 0 86.5 35t28.5 119zM672 -7q0 67 -36.5 104t-104.5 37h-47q-72 0 -113.5 -40.5t-41.5 -110.5q0 -65 38.5 -103
t117.5 -38q187 0 187 151zM650 1315h-330l275 265h274z" />
    <glyph glyph-name="Hcircumflex" unicode="&#x124;" 
d="M749 1950l143 -245h-225l-137 152l-138 -152h-225l143 245h439zM934 1490v-1490h-278v685h-253v-685h-278v1490h278v-567h253v567h278z" />
    <glyph glyph-name="hcircumflex" unicode="&#x125;" 
d="M940 748v-748h-278v738q0 132 -33 171q-31 40 -93 40q-103 0 -128 -142v-807h-278v1580h278v-543q92 152 240 152q130 0 211 -97q81 -98 81 -344zM729 1950l143 -245h-225l-137 152l-138 -152h-225l143 245h439z" />
    <glyph glyph-name="Hbar" unicode="&#x126;" 
d="M934 1185v-1185h-278v690h-253v-690h-278v1185h-80v154h80v241h278v-241h253v241h278v-241h80v-154h-80zM403 928h253v257h-253v-257z" />
    <glyph glyph-name="hbar" unicode="&#x127;" 
d="M605 1429v-154h-192v-308q92 152 240 152q130 0 211 -97q81 -98 81 -344v-678h-278v668q0 132 -33 171q-31 40 -93 40q-103 0 -128 -142v-737h-278v1275h-101v154h101v151h278v-151h192z" />
    <glyph glyph-name="Itilde" unicode="&#x128;" 
d="M779 1950l127 -92q-115 -214 -243 -214q-50 0 -135 58q-85 59 -122 59q-64 0 -126 -117l-127 92q115 214 243 214q49 0 134 -59q85 -58 123 -58q65 0 126 117zM876 228v-228h-692v228h207v1034h-164v228h606v-228h-164v-1034h207z" />
    <glyph glyph-name="itilde" unicode="&#x129;" 
d="M879 228v-228h-699v228h211v716h-181v228h459v-944h210zM729 1600l127 -92q-115 -214 -243 -214q-50 0 -135 58q-85 59 -122 59q-64 0 -126 -117l-127 92q115 214 243 214q49 0 134 -59q85 -58 123 -58q65 0 126 117z" />
    <glyph glyph-name="Imacron" unicode="&#x12a;" 
d="M816 1950v-176h-571v176h571zM876 228v-228h-692v228h207v1034h-164v228h606v-228h-164v-1034h207z" />
    <glyph glyph-name="imacron" unicode="&#x12b;" 
d="M879 228v-228h-699v228h211v716h-181v228h459v-944h210zM746 1580v-176h-571v176h571z" />
    <glyph glyph-name="Ibreve" unicode="&#x12c;" 
d="M829 1950v-248q-111 -157 -298 -157q-189 0 -298 157v248h30q98 -216 268 -216q169 0 268 216h30zM876 228v-228h-692v228h207v994h-164v228h606v-228h-164v-994h207z" />
    <glyph glyph-name="ibreve" unicode="&#x12d;" 
d="M879 228v-228h-699v228h211v716h-181v228h459v-944h210zM789 1720v-248q-111 -157 -298 -157q-189 0 -298 157v248h30q98 -216 268 -216q169 0 268 216h30z" />
    <glyph glyph-name="Iogonek" unicode="&#x12e;" 
d="M876 228v-228h-692v228h207v1124h-164v228h606v-228h-164v-1124h207zM670 -210v-159q-226 -6 -301 51q-75 56 -75 146q0 106 128 172h197q-121 -55 -121 -129q0 -52 51 -70q53 -18 121 -11z" />
    <glyph glyph-name="iogonek" unicode="&#x12f;" 
d="M673 1549q0 -76 -51 -127q-50 -50 -135 -50t-135 50q-50 52 -50 127t50 127q50 51 135 51t135 -51q51 -51 51 -127zM869 228v-228h-699v228h211v716h-181v228h459v-944h210zM670 -210v-159q-226 -6 -301 51q-75 56 -75 146q0 106 128 172h197q-121 -55 -121 -129
q0 -52 51 -70q53 -18 121 -11z" />
    <glyph glyph-name="Idotaccent" unicode="&#x130;" 
d="M695 1805q0 -64 -42 -104.5t-124 -40.5t-123.5 40t-41.5 105q0 66 41 105.5t124 39.5t124.5 -39.5t41.5 -105.5zM876 228v-228h-692v228h207v1034h-164v228h606v-228h-164v-1034h207z" />
    <glyph glyph-name="dotlessi" unicode="&#x131;" 
d="M879 228v-228h-699v228h211v716h-181v228h459v-944h210z" />
    <glyph glyph-name="IJ" unicode="&#x132;" 
d="M935 1580v-1116q0 -255 -113 -370q-112 -114 -292 -114t-292 114q-113 115 -113 370v130h278v-163q0 -110 30 -161.5t96 -51.5t97 52t31 161v1149h278zM403 1580v-816h-278v816h278z" />
    <glyph glyph-name="ij" unicode="&#x133;" 
d="M442 1549q0 -68 -44.5 -111.5t-118.5 -43.5t-118.5 43.5t-44.5 111.5t44.5 112t118.5 44t118.5 -44t44.5 -112zM429 1172v-1172h-277v1172h277zM632 26v1146h277v-1140q0 -208 -92 -307.5t-279 -99.5q-227 0 -350 185l210 120q39 -67 128 -67q106 0 106 163zM922 1549
q0 -68 -44.5 -111.5t-118.5 -43.5t-118.5 43.5t-44.5 111.5t44.5 112t118.5 44t118.5 -44t44.5 -112z" />
    <glyph glyph-name="Jcircumflex" unicode="&#x134;" 
d="M819 1950l143 -245h-225l-137 152l-138 -152h-225l143 245h439zM883 1490v-1005q0 -276 -113 -391q-112 -114 -292 -114t-292 114q-113 115 -113 391v221h278v-226q0 -140 30 -202t96 -62q67 0 97.5 62.5t30.5 201.5v1010h278z" />
    <glyph glyph-name="jcircumflex" unicode="&#x135;" 
d="M749 1580l143 -245h-225l-137 152l-138 -152h-225l143 245h439zM496 26v918h-265v228h542v-1140q0 -208 -92 -307.5t-279 -99.5q-227 0 -350 185l210 120q39 -67 128 -67q52 0 79 37.5t27 125.5z" />
    <glyph glyph-name="Kcommaaccent" unicode="&#x136;" 
d="M180 1580h278v-659l141 207q103 153 129 380l8 72h276l-19 -160q-23 -201 -159 -403l-73 -107l97 -165q143 -243 174 -508l28 -237h-286l-21 176q-35 291 -136 463l-49 81l-110 -162v-558h-278v1580zM739 -159q0 -81 -77 -206h-114q49 68 67 140q-33 1 -57 27t-24 61
q0 37 25.5 62t73.5 25q45 0 75.5 -31.5t30.5 -77.5z" />
    <glyph glyph-name="kcommaaccent" unicode="&#x137;" 
d="M1024 41l3 -41h-276q-8 130 -192 422l-27 39l-82 -100v-361h-276v1580h276v-871l103 129q160 197 167 334h276l-2 -38q-9 -158 -232 -429l-54 -66l54 -81q254 -364 262 -517zM700 -159q0 -81 -77 -206h-114q49 68 67 140q-33 1 -57 27t-24 61q0 37 25.5 62t73.5 25
q45 0 75.5 -31.5t30.5 -77.5z" />
    <glyph glyph-name="kgreenlandic" unicode="&#x138;" 
d="M997 41l3 -41h-276q-8 130 -192 422l-27 39l-82 -100v-361h-276v1172h276v-463l103 129q160 197 167 334h276l-2 -38q-9 -158 -232 -429l-54 -66l54 -81q254 -364 262 -517z" />
    <glyph glyph-name="Lacute" unicode="&#x139;" 
d="M240 1705l180 245h280l-236 -245h-224zM987 238v-238h-788v1490h278v-1252h510z" />
    <glyph glyph-name="lacute" unicode="&#x13a;" 
d="M439 1705l180 245h280l-236 -245h-224zM890 228v-228h-700v228h212v1034h-172v228h450v-1262h210z" />
    <glyph glyph-name="Lcommaaccent" unicode="&#x13b;" 
d="M954 238v-238h-788v1580h278v-1342h510zM639 -159q0 -81 -77 -206h-114q49 68 67 140q-33 1 -57 27t-24 61q0 37 25.5 62t73.5 25q45 0 75.5 -31.5t30.5 -77.5z" />
    <glyph glyph-name="lcommaaccent" unicode="&#x13c;" 
d="M900 228v-228h-700v228h212v1124h-172v228h450v-1352h210zM609 -159q0 -81 -77 -206h-114q49 68 67 140q-33 1 -57 27t-24 61q0 37 25.5 62t73.5 25q45 0 75.5 -31.5t30.5 -77.5z" />
    <glyph glyph-name="Lcaron" unicode="&#x13d;" 
d="M954 238v-238h-788v1580h278v-1342h510zM695 1580h210l-69 -365h-185z" />
    <glyph glyph-name="lcaron" unicode="&#x13e;" 
d="M774 1580h210l-69 -365h-185zM790 228v-228h-700v228h212v1124h-172v228h450v-1352h210z" />
    <glyph glyph-name="Ldot" unicode="&#x13f;" 
d="M944 238v-238h-788v1580h278v-1342h510zM928 657q0 -64 -42 -104.5t-124 -40.5t-123.5 40t-41.5 105q0 66 41 105.5t124 39.5t124.5 -39.5t41.5 -105.5z" />
    <glyph glyph-name="ldot" unicode="&#x140;" 
d="M790 228v-228h-700v228h212v1124h-172v228h450v-1352h210zM1008 657q0 -64 -42 -104.5t-124 -40.5t-123.5 40t-41.5 105q0 66 41 105.5t124 39.5t124.5 -39.5t41.5 -105.5z" />
    <glyph glyph-name="Lslash" unicode="&#x141;" 
d="M1027 238v-238h-788v483l10 204l-101 -117l-132 137l223 183v690h278v-297l-10 -204l133 141l132 -137l-255 -211v-634h510z" />
    <glyph glyph-name="lslash" unicode="&#x142;" 
d="M776 1240l151 -157l-247 -205v-640h210v-238h-700v238h212v259l10 180l-129 -127l-151 157l270 223v412h-172v238h450v-269l-10 -180z" />
    <glyph glyph-name="Nacute" unicode="&#x143;" 
d="M449 1705l180 245h280l-236 -245h-224zM914 1490v-1490h-264l-312 980q33 -330 33 -703v-277h-226v1490h266l310 -980q-33 330 -33 703v277h226z" />
    <glyph glyph-name="nacute" unicode="&#x144;" 
d="M940 750v-750h-278v750q0 120 -33 159q-31 40 -93 40q-103 0 -128 -142v-807h-278v1172h278v-135q92 152 240 152q130 0 211 -97q81 -98 81 -342zM499 1335l180 245h280l-236 -245h-224z" />
    <glyph glyph-name="Ncommaaccent" unicode="&#x145;" 
d="M918 1580v-1580h-266l-310 1000q33 -350 33 -723v-277h-226v1580h266l310 -1000q-33 350 -33 723v277h226zM629 -159q0 -81 -77 -206h-114q49 68 67 140q-33 1 -57 27t-24 61q0 37 25.5 62t73.5 25q45 0 75.5 -31.5t30.5 -77.5z" />
    <glyph glyph-name="ncommaaccent" unicode="&#x146;" 
d="M940 750v-750h-278v750q0 120 -33 159q-31 40 -93 40q-103 0 -128 -142v-807h-278v1172h278v-135q92 152 240 152q130 0 211 -97q81 -98 81 -342zM629 -159q0 -81 -77 -206h-114q49 68 67 140q-33 1 -57 27t-24 61q0 37 25.5 62t73.5 25q45 0 75.5 -31.5t30.5 -77.5z" />
    <glyph glyph-name="Ncaron" unicode="&#x147;" 
d="M892 1950l-183 -245h-359l-183 245h225l138 -152l137 152h225zM914 1490v-1490h-264l-312 980q33 -330 33 -703v-277h-226v1490h266l310 -980q-33 330 -33 703v277h226z" />
    <glyph glyph-name="ncaron" unicode="&#x148;" 
d="M940 750v-750h-278v750q0 120 -33 159q-31 40 -93 40q-103 0 -128 -142v-807h-278v1172h278v-135q92 152 240 152q130 0 211 -97q81 -98 81 -342zM883 1580l-183 -245h-359l-183 245h225l138 -152l137 152h225z" />
    <glyph glyph-name="napostrophe" unicode="&#x149;" 
d="M945 750v-750h-278v750q0 121 -28 159q-27 40 -78 40q-83 0 -108 -142v-807h-278v1172h278v-135q81 152 220 152q120 0 196 -97t76 -342zM110 1580h207l-68 -257h-182z" />
    <glyph glyph-name="Eng" unicode="&#x14a;" 
d="M934 1580v-1548q0 -203 -88.5 -299t-260.5 -96h-113v236h52q68 0 100 37.5t32 121.5v446l-278 608l25 -732v-354h-278v1580h233l322 -703l-24 478v225h278z" />
    <glyph glyph-name="eng" unicode="&#x14b;" 
d="M656 17l1 733q0 120 -33 159q-31 40 -93 40q-103 0 -128 -142v-807h-278v1172h278v-135q92 152 241 152q129 0 210 -97q81 -98 81 -342v-698q0 -238 -94 -326q-94 -89 -262 -89h-94v218h31q76 0 108 37t32 125z" />
    <glyph glyph-name="Omacron" unicode="&#x14c;" 
d="M816 1950v-176h-571v176h571zM938 982v-475q0 -298 -113 -413q-113 -114 -295 -114q-183 0 -295 114q-113 115 -113 413v475q0 298 113 413q112 115 295 115t295 -115q113 -115 113 -413zM660 473v543q0 131 -26 189q-26 57 -105 57t-104 -57q-25 -54 -25 -189v-543
q0 -130 26 -188q26 -57 105 -57q78 0 104 56q25 56 25 189z" />
    <glyph glyph-name="omacron" unicode="&#x14d;" 
d="M935 697v-222q0 -267 -113 -382q-113 -113 -291 -113q-179 0 -292 113q-113 115 -113 382v222q0 268 113 383q113 114 292 114t291 -114q113 -115 113 -383zM657 472v222q0 159 -30 210q-30 52 -96 52t-97 -52q-30 -51 -30 -210v-222q0 -150 30 -203q31 -51 97 -51t96 51
q30 52 30 203zM816 1580v-176h-571v176h571z" />
    <glyph glyph-name="Obreve" unicode="&#x14e;" 
d="M828 1950v-248q-111 -157 -298 -157q-189 0 -298 157v248h30q98 -216 268 -216q169 0 268 216h30zM938 942v-435q0 -298 -113 -413q-113 -114 -295 -114q-183 0 -295 114q-113 115 -113 413v435q0 298 113 413q112 115 295 115t295 -115q113 -115 113 -413zM660 473v503
q0 131 -26 189q-26 57 -105 57t-104 -57q-25 -54 -25 -189v-503q0 -130 26 -188q26 -57 105 -57q78 0 104 56q25 56 25 189z" />
    <glyph glyph-name="obreve" unicode="&#x14f;" 
d="M934 697v-222q0 -267 -113 -382q-113 -113 -291 -113q-179 0 -292 113q-113 115 -113 382v222q0 268 113 383q113 114 292 114q178 0 291 -114q113 -115 113 -383zM656 472v222q0 159 -30 210q-30 52 -96 52t-97 -52q-30 -51 -30 -210v-222q0 -150 30 -203q31 -51 97 -51
t96 51q30 52 30 203zM828 1720v-248q-111 -157 -298 -157q-189 0 -298 157v248h30q98 -216 268 -216q169 0 268 216h30z" />
    <glyph glyph-name="Ohungarumlaut" unicode="&#x150;" 
d="M845 1950h241l-276 -305h-184zM473 1950h240l-275 -305h-185zM938 982v-475q0 -298 -113 -413q-113 -114 -295 -114q-183 0 -295 114q-113 115 -113 413v475q0 298 113 413q112 115 295 115t295 -115q113 -115 113 -413zM660 473v543q0 131 -26 189q-26 57 -105 57
t-104 -57q-25 -54 -25 -189v-543q0 -130 26 -188q26 -57 105 -57q78 0 104 56q25 56 25 189z" />
    <glyph glyph-name="ohungarumlaut" unicode="&#x151;" 
d="M934 697v-222q0 -267 -113 -382q-113 -113 -291 -113q-179 0 -292 113q-113 115 -113 382v222q0 268 113 383q113 114 292 114q178 0 291 -114q113 -115 113 -383zM656 472v222q0 159 -30 210q-30 52 -96 52t-97 -52q-30 -51 -30 -210v-222q0 -150 30 -203q31 -51 97 -51
t96 51q30 52 30 203zM835 1580h241l-276 -305h-184zM463 1580h240l-275 -305h-185z" />
    <glyph glyph-name="OE" unicode="&#x152;" 
d="M1005 237v-237h-494q-226 0 -340.5 113.5t-114.5 326.5v700q0 213 114.5 326.5t340.5 113.5h494v-236h-251v-399h209v-237h-209v-471h251zM462 237h36v1107h-38q-76 0 -112 -52q-35 -52 -35 -189v-625q0 -136 36 -189q37 -52 113 -52z" />
    <glyph glyph-name="oe" unicode="&#x153;" 
d="M1020 797v-291h-367v-181q0 -125 81 -125q64 0 88 101l186 -127q-83 -194 -259 -194q-145 0 -215 136q-72 -136 -223 -136q-120 0 -196 85t-76 310v422q0 226 76 311q77 86 196 86q151 0 223 -131q71 131 215 131q118 0 195 -86q76 -85 76 -311zM653 687h140v167
q0 119 -69 119q-71 0 -71 -119v-167zM406 339v490q0 144 -69 144q-71 0 -71 -139v-495q0 -139 71 -139q69 0 69 139z" />
    <glyph glyph-name="Racute" unicode="&#x154;" 
d="M409 1705l180 245h280l-236 -245h-224zM987 70l4 -70h-275l-4 57q-28 395 -166 584h-111v-641h-278v1490h405q190 0 292.5 -109.5t102.5 -315.5q0 -273 -177 -373q180 -244 207 -622zM678 1065q0 85 -31 137q-30 52 -117 52h-95v-377h95q87 0 117 52q31 52 31 136z" />
    <glyph glyph-name="racute" unicode="&#x155;" 
d="M1040 974l-264 -120q-39 95 -108 95q-148 0 -148 -246v-703h-278v1172h278v-135q94 157 250 157q165 0 270 -220zM490 1335l180 245h280l-236 -245h-224z" />
    <glyph glyph-name="Rcommaaccent" unicode="&#x156;" 
d="M968 173l10 -173h-282l-9 137q-22 351 -166 549h-99v-686h-278v1580h405q395 0 395 -452q0 -280 -181 -386q184 -250 205 -569zM665 1128q0 112 -31 164q-30 52 -117 52h-95v-422h95q84 0 116 49.5t32 156.5zM659 -159q0 -81 -77 -206h-114q49 68 67 140q-33 1 -57 27
t-24 61q0 37 25.5 62t73.5 25q45 0 75.5 -31.5t30.5 -77.5z" />
    <glyph glyph-name="rcommaaccent" unicode="&#x157;" 
d="M1040 974l-264 -120q-39 95 -108 95q-148 0 -148 -246v-703h-278v1172h278v-135q94 157 250 157q165 0 270 -220zM435 -159q0 -81 -77 -206h-114q49 68 67 140q-33 1 -57 27t-24 61q0 37 25.5 62t73.5 25q45 0 75.5 -31.5t30.5 -77.5z" />
    <glyph glyph-name="Rcaron" unicode="&#x158;" 
d="M862 1950l-183 -245h-359l-183 245h225l138 -152l137 152h225zM987 70l4 -70h-275l-4 57q-28 395 -166 584h-111v-641h-278v1490h405q190 0 292.5 -109.5t102.5 -315.5q0 -273 -177 -373q180 -244 207 -622zM678 1065q0 85 -31 137q-30 52 -117 52h-95v-377h95
q87 0 117 52q31 52 31 136z" />
    <glyph glyph-name="rcaron" unicode="&#x159;" 
d="M1040 974l-264 -120q-39 95 -108 95q-148 0 -148 -246v-703h-278v1172h278v-135q94 157 250 157q165 0 270 -220zM933 1580l-183 -245h-359l-183 245h225l138 -152l137 152h225z" />
    <glyph glyph-name="Sacute" unicode="&#x15a;" 
d="M469 1705l180 245h280l-236 -245h-224zM980 399q0 -182 -112 -300q-113 -119 -334 -119q-267 0 -424 250l209 143q94 -147 224 -147q76 0 118 39.5t42 112.5q0 82 -90 156l-291 236q-162 132 -162 320q0 192 109 305q109 115 295 115q240 0 387 -206l-209 -143
q-82 102 -167 102q-66 0 -102 -36t-36 -104q0 -71 90 -144l273 -222q180 -145 180 -358z" />
    <glyph glyph-name="sacute" unicode="&#x15b;" 
d="M968 326q0 -151 -103 -248q-104 -98 -313 -98q-264 0 -420 239l191 131q80 -143 221 -143q146 0 146 121q0 66 -82 106l-177 86q-230 116 -230 321q0 164 103 258q104 95 282 95q231 0 376 -217l-193 -132q-64 121 -173 121q-54 0 -86 -28.5t-32 -78.5q0 -77 90 -120
l149 -73q251 -123 251 -340zM489 1335l180 245h280l-236 -245h-224z" />
    <glyph glyph-name="Scircumflex" unicode="&#x15c;" 
d="M779 1950l143 -245h-225l-137 152l-138 -152h-225l143 245h439zM980 399q0 -182 -112 -300q-113 -119 -334 -119q-267 0 -424 250l209 143q94 -147 224 -147q76 0 118 39.5t42 112.5q0 82 -90 156l-291 236q-162 132 -162 320q0 192 109 305q109 115 295 115
q240 0 387 -206l-209 -143q-82 102 -167 102q-66 0 -102 -36t-36 -104q0 -71 90 -144l273 -222q180 -145 180 -358z" />
    <glyph glyph-name="scircumflex" unicode="&#x15d;" 
d="M968 326q0 -151 -103 -248q-104 -98 -313 -98q-264 0 -420 239l191 131q80 -143 221 -143q146 0 146 121q0 66 -82 106l-177 86q-230 116 -230 321q0 164 103 258q104 95 282 95q231 0 376 -217l-193 -132q-64 121 -173 121q-54 0 -86 -28.5t-32 -78.5q0 -77 90 -120
l149 -73q251 -123 251 -340zM792 1580l143 -245h-225l-137 152l-138 -152h-225l143 245h439z" />
    <glyph glyph-name="Scedilla" unicode="&#x15e;" 
d="M978 399q0 -182 -112 -300q-113 -119 -334 -119q-267 0 -424 250l209 143q95 -147 224 -147q76 0 118 39.5t42 112.5q0 78 -73 151l-324 324q-146 144 -146 329q0 192 109 305q109 115 295 115q240 0 387 -206l-209 -143q-82 102 -167 102q-138 0 -138 -150
q0 -73 75 -147l301 -300q167 -156 167 -359zM339 -375v134q146 -11 146 46q0 53 -81 46l49 99q246 -8 246 -144q0 -82 -67 -131q-68 -50 -293 -50z" />
    <glyph glyph-name="scedilla" unicode="&#x15f;" 
d="M968 326q0 -151 -103 -248q-104 -98 -313 -98q-264 0 -420 239l191 131q80 -143 221 -143q146 0 146 121q0 66 -82 106l-177 86q-230 116 -230 321q0 164 103 258q104 95 282 95q231 0 376 -217l-193 -132q-64 121 -173 121q-54 0 -86 -28.5t-32 -78.5q0 -77 90 -120
l149 -73q251 -123 251 -340zM349 -375v134q146 -11 146 46q0 53 -81 46l49 99q246 -8 246 -144q0 -82 -67 -131q-68 -50 -293 -50z" />
    <glyph glyph-name="Scaron" unicode="&#x160;" 
d="M926 1950l-183 -245h-359l-183 245h225l138 -152l137 152h225zM980 399q0 -182 -112 -300q-113 -119 -334 -119q-267 0 -424 250l209 143q94 -147 224 -147q76 0 118 39.5t42 112.5q0 82 -90 156l-291 236q-162 132 -162 320q0 192 109 305q109 115 295 115
q240 0 387 -206l-209 -143q-82 102 -167 102q-66 0 -102 -36t-36 -104q0 -71 90 -144l273 -222q180 -145 180 -358z" />
    <glyph glyph-name="scaron" unicode="&#x161;" 
d="M947 326q0 -151 -103 -248q-104 -98 -313 -98q-264 0 -420 239l191 131q80 -143 221 -143q146 0 146 121q0 66 -82 106l-177 86q-230 116 -230 321q0 164 103 258q104 95 282 95q231 0 376 -217l-193 -132q-64 121 -173 121q-54 0 -86 -28.5t-32 -78.5q0 -77 90 -120
l149 -73q251 -123 251 -340zM920 1580l-183 -245h-359l-183 245h225l138 -152l137 152h225z" />
    <glyph glyph-name="Tcommaaccent" unicode="&#x162;" 
d="M964 1580v-238h-295v-1342h-278v1342h-295v238h868zM629 -159q0 -81 -77 -206h-114q49 68 67 140q-33 1 -57 27t-24 61q0 37 25.5 62t73.5 25q45 0 75.5 -31.5t30.5 -77.5z" />
    <glyph glyph-name="tcommaaccent" unicode="&#x163;" 
d="M771 297l209 -143q-133 -174 -329 -174t-289.5 97.5t-93.5 299.5v567h-156v228h156v408h278v-408h355v-228h-355v-587q0 -74 25.5 -106.5t79.5 -32.5q63 0 120 79zM739 -159q0 -81 -77 -206h-114q49 68 67 140q-33 1 -57 27t-24 61q0 37 25.5 62t73.5 25q45 0 75.5 -31.5
t30.5 -77.5z" />
    <glyph glyph-name="Tcaron" unicode="&#x164;" 
d="M892 1950l-183 -245h-359l-183 245h225l138 -152l137 152h225zM964 1490v-238h-295v-1252h-278v1252h-295v238h868z" />
    <glyph glyph-name="tcaron" unicode="&#x165;" 
d="M716 297l209 -143q-133 -174 -329 -174t-289.5 97.5t-93.5 299.5v566h-136v229h136v408h278v-408h265v-229h-265v-586q0 -74 25.5 -106.5t79.5 -32.5q63 0 120 79zM785 1580h210l-69 -365h-185z" />
    <glyph glyph-name="Tbar" unicode="&#x166;" 
d="M964 1580v-238h-295v-406h266v-177h-266v-759h-278v759h-266v177h266v406h-295v238h868z" />
    <glyph glyph-name="tbar" unicode="&#x167;" 
d="M776 297l209 -143q-133 -174 -329 -174t-289.5 97.5t-93.5 299.5v218h-156v177h156v171h-156v229h156v408h278v-408h355v-229h-355v-171h355v-177h-355v-238q0 -74 25.5 -106.5t79.5 -32.5q63 0 120 79z" />
    <glyph glyph-name="Utilde" unicode="&#x168;" 
d="M779 1950l127 -92q-115 -214 -243 -214q-50 0 -135 58q-85 59 -122 59q-64 0 -126 -117l-127 92q115 214 243 214q49 0 134 -59q85 -58 123 -58q65 0 126 117zM935 1490v-1026q0 -255 -113 -370q-112 -114 -292 -114t-292 114q-113 115 -113 370v1026h278v-1059
q0 -110 30 -161.5t96 -51.5t97 52t31 161v1059h278z" />
    <glyph glyph-name="utilde" unicode="&#x169;" 
d="M935 1172v-1172h-278v135q-92 -152 -240 -152q-130 0 -211 97q-81 98 -81 342v750h278v-750q0 -119 32 -160q33 -39 94 -39q103 0 128 142v807h278zM779 1600l127 -92q-115 -214 -243 -214q-50 0 -135 58q-85 59 -122 59q-64 0 -126 -117l-127 92q115 214 243 214
q49 0 134 -59q85 -58 123 -58q65 0 126 117z" />
    <glyph glyph-name="Umacron" unicode="&#x16a;" 
d="M816 1900v-176h-571v176h571zM935 1490v-1026q0 -255 -113 -370q-112 -114 -292 -114t-292 114q-113 115 -113 370v1026h278v-1059q0 -110 30 -161.5t96 -51.5t97 52t31 161v1059h278z" />
    <glyph glyph-name="umacron" unicode="&#x16b;" 
d="M935 1172v-1172h-278v135q-92 -152 -240 -152q-130 0 -211 97q-81 98 -81 342v750h278v-750q0 -119 32 -160q33 -39 94 -39q103 0 128 142v807h278zM816 1580v-176h-571v176h571z" />
    <glyph glyph-name="Ubreve" unicode="&#x16c;" 
d="M828 1950v-248q-111 -157 -298 -157q-189 0 -298 157v248h30q98 -216 268 -216q169 0 268 216h30zM935 1450v-986q0 -255 -113 -370q-112 -114 -292 -114t-292 114q-113 115 -113 370v986h278v-1019q0 -110 30 -161.5t96 -51.5t97 52t31 161v1019h278z" />
    <glyph glyph-name="ubreve" unicode="&#x16d;" 
d="M935 1172v-1172h-278v135q-92 -152 -240 -152q-130 0 -211 97q-81 98 -81 342v750h278v-750q0 -119 32 -160q33 -39 94 -39q103 0 128 142v807h278zM828 1720v-248q-111 -157 -298 -157q-189 0 -298 157v248h30q98 -216 268 -216q169 0 268 216h30z" />
    <glyph glyph-name="Uring" unicode="&#x16e;" 
d="M794 1706q0 -102 -72 -174q-71 -71 -193 -71t-193 71q-71 73 -71 174q0 102 71 173t193 71t193 -71q72 -71 72 -173zM630 1706q0 46 -27 73t-74 27q-46 0 -73 -27t-27 -73t27 -73.5t73 -27.5t73.5 28t27.5 73zM935 1330v-866q0 -255 -113 -370q-112 -114 -292 -114
t-292 114q-113 115 -113 370v866h278v-899q0 -110 30 -161.5t96 -51.5t97 52t31 161v899h278z" />
    <glyph glyph-name="uring" unicode="&#x16f;" 
d="M935 1172v-1172h-278v135q-92 -152 -240 -152q-130 0 -211 97q-81 98 -81 342v750h278v-750q0 -119 32 -160q33 -39 94 -39q103 0 128 142v807h278zM794 1498q0 -102 -72 -174q-71 -71 -193 -71t-193 71q-71 73 -71 174q0 102 71 173t193 71t193 -71q72 -70 72 -173z
M630 1498q0 46 -27 73t-74 27q-46 0 -73 -27t-27 -73t27 -73.5t73 -27.5t73.5 28t27.5 73z" />
    <glyph glyph-name="Uhungarumlaut" unicode="&#x170;" 
d="M825 1950h241l-276 -305h-184zM453 1950h240l-275 -305h-185zM935 1490v-1026q0 -255 -113 -370q-112 -114 -292 -114t-292 114q-113 115 -113 370v1026h278v-1059q0 -110 30 -161.5t96 -51.5t97 52t31 161v1059h278z" />
    <glyph glyph-name="uhungarumlaut" unicode="&#x171;" 
d="M935 1172v-1172h-278v135q-92 -152 -240 -152q-130 0 -211 97q-81 98 -81 342v750h278v-750q0 -119 32 -160q33 -39 94 -39q103 0 128 142v807h278zM825 1580h241l-276 -305h-184zM453 1580h240l-275 -305h-185z" />
    <glyph glyph-name="Uogonek" unicode="&#x172;" 
d="M935 1580v-1116q0 -254 -112 -369q-111 -115 -293 -115t-294 115q-111 115 -111 369v1116h278v-1139q0 -125 31 -169q32 -44 95 -44t95 44q33 45 33 169v1139h278zM690 -210v-159q-226 -6 -301 51q-75 56 -75 146q0 106 128 172h197q-121 -55 -121 -129q0 -52 51 -70
q53 -18 121 -11z" />
    <glyph glyph-name="uogonek" unicode="&#x173;" 
d="M935 1172v-1172h-278v135q-92 -152 -240 -152q-130 0 -211 97q-81 98 -81 342v750h278v-750q0 -119 32 -160q33 -39 94 -39q103 0 128 142v807h278zM963 -210v-159q-226 -6 -301 51q-75 56 -75 146q0 106 128 172h197q-121 -55 -121 -129q0 -52 51 -70q53 -18 121 -11z
" />
    <glyph glyph-name="Wcircumflex" unicode="&#x174;" 
d="M749 1950l143 -245h-225l-137 152l-138 -152h-225l143 245h439zM474 914h112l131 -636v1212h258v-291q0 -375 -50 -731l-66 -468h-217l-112 532l-112 -532h-217l-66 468q-50 356 -50 731v291h258v-1212z" />
    <glyph glyph-name="wcircumflex" unicode="&#x175;" 
d="M628 737l97 -538v973h270v-155q0 -221 -66 -540l-99 -477h-193l-107 595l-107 -595h-193l-99 477q-66 319 -66 540v155h270v-973l97 538h196zM749 1580l143 -245h-225l-137 152l-138 -152h-225l143 245h439z" />
    <glyph glyph-name="Ycircumflex" unicode="&#x176;" 
d="M749 1950l143 -245h-225l-137 152l-138 -152h-225l143 245h439zM456 989l74 -146l74 146q76 148 90 428l2 73h276l-2 -73q-14 -288 -147 -547l-154 -301v-569h-278v569l-154 301q-133 259 -147 547l-2 73h276l2 -73q14 -280 90 -428z" />
    <glyph glyph-name="ycircumflex" unicode="&#x177;" 
d="M506 -365h-276l2 38q8 127 69 285l101 262l-215 538q-79 198 -86 324l-5 90h276l5 -84q11 -186 51 -289l102 -264l94 264q50 129 59 289l5 84h276l-6 -90q-8 -131 -83 -324l-310 -805q-46 -121 -57 -280zM749 1580l143 -245h-225l-137 152l-138 -152h-225l143 245h439z
" />
    <glyph glyph-name="Ydieresis" unicode="&#x178;" 
d="M342 1700q-56 0 -93 37t-37 89q0 51 37 87q37 37 93 37t93 -37q37 -36 37 -87q0 -52 -37 -89t-93 -37zM719 1700q-56 0 -93 37t-37 89q0 51 37 87q37 37 93 37t93 -37q37 -36 37 -87q0 -52 -37 -89t-93 -37zM456 989l74 -146l74 146q76 148 90 428l2 73h276l-2 -73
q-14 -288 -147 -547l-154 -301v-569h-278v569l-154 301q-133 259 -147 547l-2 73h276l2 -73q14 -280 90 -428z" />
    <glyph glyph-name="Zacute" unicode="&#x179;" 
d="M449 1705l180 245h280l-236 -245h-224zM184 1490h732v-150q0 -267 -122 -449l-277 -407q-68 -101 -68 -246h477v-238h-752v150q0 263 122 447l277 409q68 98 68 246h-457v238z" />
    <glyph glyph-name="zacute" unicode="&#x17a;" 
d="M896 238v-238h-772v188q0 174 143 347l201 238q88 106 88 161h-422v238h732v-160q0 -150 -121 -305l-212 -272q-98 -128 -98 -197h461zM409 1335l180 245h280l-236 -245h-224z" />
    <glyph glyph-name="Zdotaccent" unicode="&#x17b;" 
d="M715 1805q0 -64 -42 -104.5t-124 -40.5t-123.5 40t-41.5 105q0 66 41 105.5t124 39.5t124.5 -39.5t41.5 -105.5zM184 1490h732v-150q0 -267 -122 -449l-277 -407q-68 -101 -68 -246h477v-238h-752v150q0 263 122 447l277 409q68 98 68 246h-457v238z" />
    <glyph glyph-name="zdotaccent" unicode="&#x17c;" 
d="M896 238v-238h-772v188q0 174 143 347l201 238q88 106 88 161h-422v238h732v-160q0 -150 -121 -305l-212 -272q-98 -128 -98 -197h461zM691 1435q0 -64 -42 -104.5t-124 -40.5t-123.5 40t-41.5 105q0 66 41 105.5t124 39.5t124.5 -39.5t41.5 -105.5z" />
    <glyph glyph-name="Zcaron" unicode="&#x17d;" 
d="M892 1950l-183 -245h-359l-183 245h225l138 -152l137 152h225zM184 1490h732v-150q0 -267 -122 -449l-277 -407q-68 -101 -68 -246h477v-238h-752v150q0 263 122 447l277 409q68 98 68 246h-457v238z" />
    <glyph glyph-name="zcaron" unicode="&#x17e;" 
d="M915 238v-238h-772v188q0 174 143 347l201 238q88 106 88 161h-422v238h732v-160q0 -150 -121 -305l-212 -272q-98 -128 -98 -197h461zM892 1580l-183 -245h-359l-183 245h225l138 -152l137 152h225z" />
    <glyph glyph-name="slong" unicode="&#x17f;" 
d="M994 1459l-209 -143q-35 57 -93 57q-97 0 -97 -143v-1230h-279v879h-177v228h177v127q0 180 98 273q97 94 253 94q207 0 327 -142z" />
    <glyph glyph-name="florin" unicode="&#x192;" 
d="M1024 1439l-209 -143q-51 68 -119 68q-46 0 -71 -33.5t-25 -115.5v-153h324v-237h-335l-86 -1057h-278l86 1057h-195v237h207v152q0 179 98 283q99 104 265 104q206 0 338 -162z" />
    <glyph glyph-name="dotlessj" unicode="&#x237;" 
d="M496 26v918h-265v228h542v-1140q0 -208 -92 -307.5t-279 -99.5q-227 0 -350 185l210 120q39 -67 128 -67q52 0 79 37.5t27 125.5z" />
    <glyph glyph-name="uni0245" unicode="&#x245;" 
d="M648 564l-118 602l-118 -602q-53 -271 -53 -476v-88h-276v88q0 230 79 573l209 919h318l209 -919q79 -343 79 -573v-88h-276v88q0 205 -53 476z" />
    <glyph glyph-name="circumflex" unicode="&#x2c6;" 
d="M749 1580l143 -245h-225l-137 152l-138 -152h-225l143 245h439z" />
    <glyph glyph-name="caron" unicode="&#x2c7;" 
d="M892 1580l-183 -245h-359l-183 245h225l138 -152l137 152h225z" />
    <glyph glyph-name="breve" unicode="&#x2d8;" 
d="M828 1720v-248q-111 -157 -298 -157q-189 0 -298 157v248h30q98 -216 268 -216q169 0 268 216h30z" />
    <glyph glyph-name="dotaccent" unicode="&#x2d9;" 
d="M695 1435q0 -64 -42 -104.5t-124 -40.5t-123.5 40t-41.5 105q0 66 41 105.5t124 39.5t124.5 -39.5t41.5 -105.5z" />
    <glyph glyph-name="ring" unicode="&#x2da;" 
d="M794 1498q0 -102 -72 -174q-71 -71 -193 -71t-193 71q-71 73 -71 174q0 102 71 173t193 71t193 -71q72 -70 72 -173zM630 1498q0 46 -27 73t-74 27q-46 0 -73 -27t-27 -73t27 -73.5t73 -27.5t73.5 28t27.5 73z" />
    <glyph glyph-name="ogonek" unicode="&#x2db;" 
d="M720 -210v-159q-226 -6 -301 51q-75 56 -75 146q0 106 128 172h197q-121 -55 -121 -129q0 -52 51 -70q53 -18 121 -11z" />
    <glyph glyph-name="tilde" unicode="&#x2dc;" 
d="M779 1600l127 -92q-115 -214 -243 -214q-50 0 -135 58q-85 59 -122 59q-64 0 -126 -117l-127 92q115 214 243 214q49 0 134 -59q85 -58 123 -58q65 0 126 117z" />
    <glyph glyph-name="hungarumlaut" unicode="&#x2dd;" 
d="M705 1580h241l-276 -305h-184zM333 1580h240l-275 -305h-185z" />
    <glyph glyph-name="gravecomb" unicode="&#x300;" 
d="M570 1580l179 -245h-204l-235 245h260z" />
    <glyph glyph-name="acutecomb" unicode="&#x301;" 
d="M489 1580h260l-235 -245h-204z" />
    <glyph glyph-name="uni0302" unicode="&#x302;" 
d="M629 1580l213 -265h-195l-117 122l-118 -122h-195l213 265h199z" />
    <glyph glyph-name="tildecomb" unicode="&#x303;" 
d="M779 1600l127 -92q-115 -214 -243 -214q-50 0 -135 58q-85 59 -122 59q-64 0 -126 -117l-127 92q115 214 243 214q49 0 134 -59q85 -58 123 -58q65 0 126 117z" />
    <glyph glyph-name="uni0304" unicode="&#x304;" 
d="M815 1580v-214h-571v214h571z" />
    <glyph glyph-name="uni0305" unicode="&#x305;" 
d="M956 1580v-214h-852v214h852z" />
    <glyph glyph-name="uni0306" unicode="&#x306;" 
d="M828 1720v-248q-111 -157 -298 -157q-189 0 -298 157v248h30q98 -216 268 -216q169 0 268 216h30z" />
    <glyph glyph-name="uni0307" unicode="&#x307;" 
d="M715 1445q0 -76 -51 -127q-50 -50 -135 -50t-135 50q-50 52 -50 127t50 127q50 51 135 51t135 -51q51 -51 51 -127z" />
    <glyph glyph-name="uni0308" unicode="&#x308;" 
d="M341 1330q-56 0 -93 37t-37 89q0 51 37 87q37 37 93 37t93 -37q37 -36 37 -87q0 -52 -37 -89t-93 -37zM718 1330q-56 0 -93 37t-37 89q0 51 37 87q37 37 93 37t93 -37q37 -36 37 -87q0 -52 -37 -89t-93 -37z" />
    <glyph glyph-name="hookabovecomb" unicode="&#x309;" 
d="M341 1391v150q195 6 280 -54q85 -58 85 -153q0 -101 -118 -162h-226q141 64 141 134q0 47 -45.5 69.5t-116.5 15.5z" />
    <glyph glyph-name="uni030A" unicode="&#x30a;" 
d="M771 1447q0 -72 -59.5 -113.5t-181.5 -41.5t-181.5 41.5t-59.5 113.5t59.5 113.5t181.5 41.5t181.5 -41.5t59.5 -113.5zM597 1447q0 29 -18.5 45t-48.5 16q-31 0 -49 -16t-18 -45t18 -45t49 -16q30 0 48.5 16t18.5 45z" />
    <glyph glyph-name="uni030B" unicode="&#x30b;" 
d="M705 1580h251l-236 -265h-204zM353 1580h250l-235 -265h-205z" />
    <glyph glyph-name="uni030C" unicode="&#x30c;" 
d="M842 1580l-213 -265h-199l-213 265h195l118 -122l117 122h195z" />
    <glyph glyph-name="uni030D" unicode="&#x30d;" 
d="M436 1580h188v-295h-188v295z" />
    <glyph glyph-name="uni030E" unicode="&#x30e;" 
d="M288 1580h188v-295h-188v295zM584 1580h188v-295h-188v295z" />
    <glyph glyph-name="dblgravecmb" unicode="&#x30f;" 
d="M104 1580h251l189 -265h-204zM457 1580h250l190 -265h-205z" />
    <glyph glyph-name="uni0310" unicode="&#x310;" 
d="M808 1510v-153q-121 -107 -278 -107t-278 107v153q137 -136 278 -136q138 0 278 136zM646 1517q0 -39 -31 -62t-85 -23t-85 23t-31 62t31 62t85 23t85 -23t31 -62z" />
    <glyph glyph-name="breveinvertedcmb" unicode="&#x311;" 
d="M828 1533v-248h-30q-99 218 -268 218q-170 0 -268 -218h-30v248q109 157 298 157q187 0 298 -157z" />
    <glyph glyph-name="uni0312" unicode="&#x312;" 
d="M348 1375q0 117 171 205h200v-45q-142 -57 -174 -119q91 0 139.5 -21.5t48.5 -59.5q0 -35 -46 -68q-46 -32 -137 -32q-100 0 -151 36.5t-51 103.5z" />
    <glyph glyph-name="uni0313" unicode="&#x313;" 
d="M735 1492q0 -143 -194 -244h-226v39q212 104 212 179q0 65 -147 65h-65v162q59 15 138 15q134 0 208 -58.5t74 -157.5z" />
    <glyph glyph-name="uni0314" unicode="&#x314;" 
d="M325 1492q0 99 74 157.5t208 58.5q79 0 138 -15v-162h-65q-147 0 -147 -65q0 -75 212 -179v-39h-226q-194 101 -194 244z" />
    <glyph glyph-name="caroncommaaccent" unicode="&#x315;" 
d="M875 1580h210l-69 -365h-185z" />
    <glyph glyph-name="uni0316" unicode="&#x316;" 
d="M570 -120l179 -245h-204l-235 245h260z" />
    <glyph glyph-name="uni0317" unicode="&#x317;" 
d="M489 -120h260l-235 -245h-204z" />
    <glyph glyph-name="uni0318" unicode="&#x318;" 
d="M831 -80v-285h-144v81h-458v123h458v81h144z" />
    <glyph glyph-name="uni0319" unicode="&#x319;" 
d="M229 -365v285h144v-81h458v-123h-458v-81h-144z" />
    <glyph glyph-name="uni031A" unicode="&#x31a;" 
d="M662 1440v140h378v-288h-164v148h-214z" />
    <glyph glyph-name="uni031B" unicode="&#x31b;" 
d="M1100 1492q0 -143 -194 -244h-246v29q212 104 212 189t-147 85h-65v142q59 15 148 15q143 0 217.5 -58t74.5 -158z" />
    <glyph glyph-name="uni031C" unicode="&#x31c;" 
d="M349 -220q0 72 59.5 113.5t181.5 41.5q51 0 88 -5v-102q-33 3 -62 3q-93 0 -93 -51t93 -51q29 0 62 3v-102q-37 -5 -88 -5q-122 0 -181.5 41.5t-59.5 113.5z" />
    <glyph glyph-name="uni031D" unicode="&#x31d;" 
d="M831 -240v-125h-602v125h214v133h174v-133h214z" />
    <glyph glyph-name="uni031E" unicode="&#x31e;" 
d="M831 -107v-125h-214v-133h-174v133h-214v125h602z" />
    <glyph glyph-name="uni031F" unicode="&#x31f;" 
d="M831 -121v-123h-224v-121h-154v121h-224v123h224v121h154v-121h224z" />
    <glyph glyph-name="uni0320" unicode="&#x320;" 
d="M888 -215v-150h-716v150h716z" />
    <glyph glyph-name="uni0321" unicode="&#x321;" 
d="M1030 178v-258q0 -142 -68.5 -213.5t-196.5 -71.5h-117v167h47q119 0 119 118v258h216z" />
    <glyph glyph-name="uni0322" unicode="&#x322;" 
d="M678 -80v258h216v-258q0 -118 119 -118h47v-167h-117q-128 0 -196.5 71.5t-68.5 213.5z" />
    <glyph glyph-name="dotbelowcomb" unicode="&#x323;" 
d="M715 -198q0 -76 -51 -126q-50 -51 -135 -51t-135 51q-50 50 -50 126q0 75 50 127q50 51 135 51t135 -51q51 -51 51 -127z" />
    <glyph glyph-name="uni0324" unicode="&#x324;" 
d="M849 -249q0 -52 -37 -89t-93 -37t-93 37t-37 89q0 51 37 88q38 36 93 36t93 -36q37 -37 37 -88zM471 -249q0 -52 -37 -89t-93 -37t-93 37t-37 89q0 51 37 88q38 36 93 36t93 -36q37 -37 37 -88z" />
    <glyph glyph-name="uni0325" unicode="&#x325;" 
d="M771 -220q0 -72 -59.5 -113.5t-181.5 -41.5t-181.5 41.5t-59.5 113.5t59.5 113.5t181.5 41.5t181.5 -41.5t59.5 -113.5zM597 -220q0 29 -18.5 45t-48.5 16q-31 0 -49 -16t-18 -45t18 -45t49 -16q30 0 48.5 16t18.5 45z" />
    <glyph glyph-name="uni0326" unicode="&#x326;" 
d="M743 -131q0 -143 -194 -244h-246v29q212 104 212 189t-147 85h-65v142q59 15 148 15q143 0 217.5 -58t74.5 -158z" />
    <glyph glyph-name="uni0327" unicode="&#x327;" 
d="M343 -375v131q174 -15 174 47q0 51 -111 43l57 104q254 -8 254 -145q0 -84 -68 -132q-67 -48 -306 -48z" />
    <glyph glyph-name="uni0328" unicode="&#x328;" 
d="M719 -219v-150q-195 -6 -280 54q-85 58 -85 153q0 101 118 162h216q-131 -56 -131 -134q0 -47 45.5 -69.5t116.5 -15.5z" />
    <glyph glyph-name="uni0329" unicode="&#x329;" 
d="M617 -107v-258h-174v258h174z" />
    <glyph glyph-name="uni032A" unicode="&#x32a;" 
d="M744 -365v145h-428v-145h-164v275h756v-275h-164z" />
    <glyph glyph-name="uni032B" unicode="&#x32b;" 
d="M123 -270l92 100q62 -65 130 -65q94 0 115 120h140q21 -120 115 -120q68 0 130 65l92 -100q-101 -105 -212 -105q-136 0 -195 95q-59 -95 -195 -95q-111 0 -212 105z" />
    <glyph glyph-name="uni032C" unicode="&#x32c;" 
d="M842 -100l-243 -265h-139l-243 265h195l118 -102l117 102h195z" />
    <glyph glyph-name="uni032D" unicode="&#x32d;" 
d="M599 -100l243 -265h-195l-117 102l-118 -102h-195l243 265h139z" />
    <glyph glyph-name="uni032E" unicode="&#x32e;" 
d="M530 -232q105 0 138 112h175q-66 -255 -313 -255t-313 255h175q33 -112 138 -112z" />
    <glyph glyph-name="uni032F" unicode="&#x32f;" 
d="M530 -253q-105 0 -138 -112h-175q66 255 313 255t313 -255h-175q-33 112 -138 112z" />
    <glyph glyph-name="uni0330" unicode="&#x330;" 
d="M779 -69l127 -92q-115 -214 -243 -214q-49 0 -135 59q-83 58 -122 58q-64 0 -126 -117l-127 92q115 214 243 214q51 0 134 -58q86 -59 123 -59q65 0 126 117z" />
    <glyph glyph-name="uni0331" unicode="&#x331;" 
d="M815 -189v-176h-571v176h571z" />
    <glyph glyph-name="uni0332" unicode="&#x332;" 
d="M1061 -137v-238h-1062v238h1062z" />
    <glyph glyph-name="uni0333" unicode="&#x333;" 
d="M1071 -259v-106h-1082v106h1082zM1071 -84v-106h-1082v106h1082z" />
    <glyph glyph-name="uni0334" unicode="&#x334;" 
d="M343 608q-98 0 -217 -126h-39v189q131 123 256 123q85 0 195 -71q109 -70 176 -70q102 0 220 126h39v-169q-131 -143 -259 -143q-93 0 -206 70q-115 71 -165 71z" />
    <glyph glyph-name="uni0335" unicode="&#x335;" 
d="M971 706v-146h-882v146h882z" />
    <glyph glyph-name="uni0336" unicode="&#x336;" 
d="M1071 706v-146h-1082v146h1082z" />
    <glyph glyph-name="uni0337" unicode="&#x337;" 
d="M754 1372h151l-599 -1572h-151z" />
    <glyph glyph-name="uni0338" unicode="&#x338;" 
d="M754 1777h151l-599 -1977h-151z" />
    <glyph glyph-name="uni0339" unicode="&#x339;" 
d="M701 -220q0 -72 -59.5 -113.5t-181.5 -41.5q-51 0 -88 5v102q33 -3 62 -3q93 0 93 51t-93 51q-29 0 -62 -3v102q37 5 88 5q122 0 181.5 -41.5t59.5 -113.5z" />
    <glyph glyph-name="uni033A" unicode="&#x33a;" 
d="M744 -235v145h164v-275h-756v275h164v-145h428z" />
    <glyph glyph-name="uni033B" unicode="&#x33b;" 
d="M908 -90v-275h-756v275h756zM764 -265v75h-468v-75h468z" />
    <glyph glyph-name="uni033C" unicode="&#x33c;" 
d="M215 -310l-92 100q100 105 212 105q136 0 195 -95q59 95 195 95q111 0 212 -105l-92 -100q-62 65 -130 65q-94 0 -115 -120h-140q-21 120 -115 120q-68 0 -130 -65z" />
    <glyph glyph-name="uni033D" unicode="&#x33d;" 
d="M302 1371l111 66l-111 66l74 99l154 -93l154 93l73 -99l-111 -66l111 -66l-73 -100l-154 94l-154 -94z" />
    <glyph glyph-name="uni033E" unicode="&#x33e;" 
d="M492 1349q0 19 -26 39l-40 29q-45 33 -45 77q0 55 82 86h210v-25q-105 -23 -105 -61q0 -19 26 -39l40 -29q45 -33 45 -77q0 -55 -82 -86h-210v25q105 22 105 61z" />
    <glyph glyph-name="uni033F" unicode="&#x33f;" 
d="M1071 1405v-106h-1082v106h1082zM1071 1580v-106h-1082v106h1082z" />
    <glyph glyph-name="uni0340" unicode="&#x340;" 
d="M570 1580l179 -245h-204l-235 245h260z" />
    <glyph glyph-name="uni0341" unicode="&#x341;" 
d="M489 1580h260l-235 -245h-204z" />
    <glyph glyph-name="uni0342" unicode="&#x342;" 
d="M301 1254h-156v63l15 141q21 202 198 202q92 0 159 -69l108 -110q38 -38 64 -38q36 0 44 62l18 155h156v-63l-15 -141q-21 -202 -193 -202q-93 0 -157 66l-112 113q-38 38 -67 38q-36 0 -44 -62z" />
    <glyph glyph-name="uni0343" unicode="&#x343;" 
d="M743 1492q0 -143 -194 -244h-246v29q212 104 212 189t-147 85h-65v142q58 15 148 15q143 0 217.5 -58t74.5 -158z" />
    <glyph glyph-name="uni0344" unicode="&#x344;" 
d="M886 1384q0 -46 -33 -81q-31 -34 -83 -34q-50 0 -83 34q-32 35 -32 81q0 48 32.5 81.5t82.5 33.5t83 -33.5t33 -81.5zM404 1384q0 -46 -33 -81q-31 -34 -83 -34q-50 0 -83 34q-32 35 -32 81q0 48 32.5 81.5t82.5 33.5t83 -33.5t33 -81.5zM586 1682h259l-240 -183h-199z
" />
    <glyph glyph-name="uni0345" unicode="&#x345;" 
d="M589 -84v-70q0 -91 65 -91q40 0 73 49l114 -94q-72 -85 -187 -85q-116 0 -175 57t-59 154v80h169z" />
    <glyph glyph-name="uni0346" unicode="&#x346;" 
d="M744 1305v145h-428v-145h-164v275h756v-275h-164z" />
    <glyph glyph-name="uni0347" unicode="&#x347;" 
d="M821 -259v-106h-582v106h582zM821 -84v-106h-582v106h582z" />
    <glyph glyph-name="uni0348" unicode="&#x348;" 
d="M288 -70h188v-295h-188v295zM584 -70h188v-295h-188v295z" />
    <glyph glyph-name="uni0349" unicode="&#x349;" 
d="M252 -235v130h388v-258h-174v128h-214z" />
    <glyph glyph-name="uni034A" unicode="&#x34a;" 
d="M528 1510l55 91l84 -50l-58 -95q29 -15 59 -15q63 0 125 110l103 -61q-79 -196 -238 -196q-63 0 -122 41l-59 -97l-84 50l62 102q-34 21 -59 21q-64 0 -146 -111l-87 73q105 187 243 187q57 0 122 -50z" />
    <glyph glyph-name="uni034B" unicode="&#x34b;" 
d="M793 1551l103 -61q-101 -188 -238 -188q-59 0 -135 59q-75 60 -117 60q-74 0 -156 -121l-87 73q105 177 243 177q60 0 135 -60q76 -59 117 -59q74 0 135 120zM725 1537q0 -30 -19.5 -47.5t-52.5 -17.5q-32 0 -51 18t-19 47t19 47t51 18q33 0 52.5 -17.5t19.5 -47.5z
M481 1315q0 -29 -19 -47t-52 -18t-52 18t-19 47t19 47t52 18t52 -18t19 -47z" />
    <glyph glyph-name="uni034C" unicode="&#x34c;" 
d="M822 1602v-92q-76 -96 -149 -96q-52 0 -138 49q-85 47 -148 47q-72 0 -149 -74v102q76 64 149 64q89 0 174 -47q86 -49 112 -49q72 0 120 96h29zM238 1254v92q77 96 149 96q49 0 134 -47q86 -49 152 -49q72 0 149 74v-102q-76 -64 -149 -64q-92 0 -178 49q-85 47 -108 47
q-72 0 -120 -96h-29z" />
    <glyph glyph-name="uni034D" unicode="&#x34d;" 
d="M960 -226l-252 -149v83h-356v-83l-252 149l252 149v-84h356v84z" />
    <glyph glyph-name="uni034E" unicode="&#x34e;" 
d="M530 -50l259 -193h-159v-122h-200v122h-159z" />
    <glyph glyph-name="uni034F" unicode="&#x34f;" 
 />
    <glyph glyph-name="uni0350" unicode="&#x350;" 
d="M509 1438l-140 42v122l353 -124v-80l-353 -124v123z" />
    <glyph glyph-name="uni0351" unicode="&#x351;" 
d="M691 1480l-140 -42l140 -41v-123l-353 124v80l353 124v-122z" />
    <glyph glyph-name="uni0352" unicode="&#x352;" 
d="M808 1495v-153q-140 136 -278 136q-141 0 -278 -136v153q121 107 278 107t278 -107zM646 1335q0 -39 -31 -62t-85 -23t-85 23t-31 62t31 62t85 23t85 -23t31 -62z" />
    <glyph glyph-name="uni0353" unicode="&#x353;" 
d="M302 -275l111 66l-111 66l74 99l154 -93l154 93l73 -99l-111 -66l111 -66l-73 -100l-154 94l-154 -94z" />
    <glyph glyph-name="uni0354" unicode="&#x354;" 
d="M691 -169l-140 -42l140 -41v-123l-353 124v80l353 124v-122z" />
    <glyph glyph-name="uni0355" unicode="&#x355;" 
d="M509 -211l-140 42v122l353 -124v-80l-353 -124v123z" />
    <glyph glyph-name="uni0356" unicode="&#x356;" 
d="M376 -211l-140 42v122l305 -106v-115l-305 -107v123zM748 -225l-42 -140h-122l106 305h115l107 -305h-123z" />
    <glyph glyph-name="uni0357" unicode="&#x357;" 
d="M701 1447q0 -72 -59.5 -113.5t-181.5 -41.5q-51 0 -88 5v102q33 -3 62 -3q93 0 93 51t-93 51q-29 0 -62 -3v102q37 5 88 5q122 0 181.5 -41.5t59.5 -113.5z" />
    <glyph glyph-name="uni0358" unicode="&#x358;" 
d="M1060 1435q0 -64 -42 -104.5t-124 -40.5t-123.5 40t-41.5 105q0 66 41 105.5t124 39.5t124.5 -39.5t41.5 -105.5z" />
    <glyph glyph-name="uni0359" unicode="&#x359;" 
d="M579 -375l-49 80l-49 -80l-87 63l60 73l-111 29l33 102l106 -41l-7 95h109l-6 -95l105 41l33 -102l-110 -29l60 -73z" />
    <glyph glyph-name="uni035A" unicode="&#x35a;" 
d="M915 -220q0 -70 -58 -112.5t-163 -42.5q-98 0 -164 57q-66 -57 -164 -57q-105 0 -163 42.5t-58 112.5t58 112.5t163 42.5q97 0 164 -56q67 56 164 56q105 0 163 -42.5t58 -112.5zM299 -220q0 -26 21.5 -43.5t55.5 -17.5t55.5 17.5t21.5 43.5t-21.5 43.5t-55.5 17.5
t-55.5 -17.5t-21.5 -43.5zM761 -220q0 26 -21.5 43.5t-55.5 17.5t-55.5 -17.5t-21.5 -43.5t21.5 -43.5t55.5 -17.5t55.5 17.5t21.5 43.5z" />
    <glyph glyph-name="uni035B" unicode="&#x35b;" 
d="M509 1263l48 95l-305 34l109 188h190l-48 -95l305 -34l-109 -188h-190z" />
    <glyph glyph-name="uni035C" unicode="&#x35c;" 
d="M1061 -206q479 0 761 171l90 -129q-292 -211 -851 -211q-561 0 -853 211l90 129q282 -171 763 -171z" />
    <glyph glyph-name="uni035D" unicode="&#x35d;" 
d="M1061 1431q489 0 771 171l90 -129q-301 -211 -861 -211q-562 0 -863 211l90 129q282 -171 773 -171z" />
    <glyph glyph-name="uni035E" unicode="&#x35e;" 
d="M248 1602h1624v-159h-1624v159z" />
    <glyph glyph-name="uni035F" unicode="&#x35f;" 
d="M248 -206h1624v-159h-1624v159z" />
    <glyph glyph-name="uni0360" unicode="&#x360;" 
d="M606 1433q-198 0 -278 -131l-120 79q116 221 398 221q100 0 237 -28l481 -93q109 -20 190 -20q190 0 278 141l120 -79q-116 -231 -398 -231q-98 0 -237 27l-481 94q-109 20 -190 20z" />
    <glyph glyph-name="uni0361" unicode="&#x361;" 
d="M1061 1433q-491 0 -763 -171l-90 129q292 211 853 211q559 0 851 -211l-90 -129q-271 171 -761 171z" />
    <glyph glyph-name="uni0362" unicode="&#x362;" 
d="M1814 -226l-252 -149v73h-1342v150h1342v75z" />
    <glyph glyph-name="uni037E" unicode="&#x37e;" 
d="M763 998q0 -112 -67 -173t-167 -61t-167 61q-66 62 -66 173q0 110 66 171q67 62 167 62q99 0 167 -62q67 -61 67 -171zM763 175q0 -211 -192 -540h-243q125 182 177 365q-82 3 -146 59q-63 57 -63 156q0 109 63 171q65 62 160 62q115 0 179.5 -72t64.5 -201z" />
    <glyph glyph-name="tonos" unicode="&#x384;" 
d="M525 1698h289l-260 -450h-204z" />
    <glyph glyph-name="dieresistonos" unicode="&#x385;" 
d="M550 1698h259l-262 -449h-170zM325 1355q0 -47 -33 -81t-84 -34q-50 0 -83 34q-32 35 -32 81q0 48 32.5 81.5t82.5 33.5q51 0 84 -34t33 -81zM966 1355q0 -47 -33 -81q-31 -34 -83 -34q-50 0 -83 34q-32 35 -32 81q0 48 32.5 81.5t82.5 33.5t83 -33.5t33 -81.5z" />
    <glyph glyph-name="Alphatonos" unicode="&#x386;" 
d="M252 1895h289l-260 -450h-204zM313 1330h433l152 -669q79 -344 79 -573v-88h-276v88q0 118 -17 260h-308q-17 -142 -17 -260v-88h-276v88q0 230 79 573zM592 850l-62 316l-62 -316q-32 -144 -52 -265h228q-20 121 -52 265z" />
    <glyph glyph-name="anoteleia" unicode="&#x387;" 
d="M763 751q0 -111 -67 -172q-68 -62 -167 -62t-167 62q-66 61 -66 172t66 172q65 61 167 61q99 0 167 -62q67 -61 67 -171z" />
    <glyph glyph-name="Epsilontonos" unicode="&#x388;" 
d="M342 1895h289l-260 -450h-204zM964 238v-238h-798v1330h788v-238h-510v-232h366v-238h-366v-384h520z" />
    <glyph glyph-name="Etatonos" unicode="&#x389;" 
d="M300 1895h289l-260 -450h-204zM934 1330v-1330h-278v622h-253v-622h-278v1330h278v-470h253v470h278z" />
    <glyph glyph-name="Iotatonos" unicode="&#x38a;" 
d="M390 1895h289l-260 -450h-204zM876 228v-228h-692v228h207v874h-164v228h606v-228h-164v-874h207z" />
    <glyph glyph-name="Omicrontonos" unicode="&#x38c;" 
d="M300 1895h289l-260 -450h-204zM122 507v504q0 339 338 339h139q339 0 339 -339v-504q0 -297 -111 -412q-109 -115 -297 -115q-187 0 -298 115q-110 116 -110 412zM400 993v-520q0 -155 32 -201q33 -44 99 -44q64 0 96 44q33 45 33 201v520q0 109 -91 109h-80
q-89 0 -89 -109z" />
    <glyph glyph-name="Upsilontonos" unicode="&#x38e;" 
d="M260 1895h289l-260 -450h-204zM669 539v-539h-278v539l-154 255q-132 219 -143 392l-9 144h279l7 -118q9 -151 85 -277l74 -122l74 122q76 126 85 277l7 118h279l-9 -144q-11 -173 -143 -392z" />
    <glyph glyph-name="Omegatonos" unicode="&#x38f;" 
d="M300 1895h289l-260 -450h-204zM938 1011v-287q0 -348 -177 -489h189v-235h-371v352q81 98 81 352v289q0 109 -91 109h-80q-89 0 -89 -109v-289q0 -255 82 -352v-352h-372v235h189q-177 141 -177 489v287q0 339 338 339h139q339 0 339 -339z" />
    <glyph glyph-name="iotadieresistonos" unicode="&#x390;" 
d="M293 367v577h-203v228h481v-825q0 -78 29 -104q29 -25 66 -25q63 0 120 79l209 -143q-142 -175 -329 -175q-373 0 -373 388zM500 1798h259l-262 -449h-170zM275 1455q0 -47 -33 -81t-84 -34q-50 0 -83 34q-32 35 -32 81q0 48 32.5 81.5t82.5 33.5q51 0 84 -34t33 -81z
M916 1455q0 -47 -33 -81q-31 -34 -83 -34q-50 0 -83 34q-32 35 -32 81q0 48 32.5 81.5t82.5 33.5t83 -33.5t33 -81.5z" />
    <glyph glyph-name="Alpha" unicode="&#x391;" 
d="M359 88v-88h-276v88q0 230 79 573l209 919h318l209 -919q79 -343 79 -573v-88h-276v88q0 118 -17 260h-308q-17 -142 -17 -260zM644 585l-114 581l-114 -581h228z" />
    <glyph glyph-name="Beta" unicode="&#x392;" 
d="M956 480q0 -261 -113 -371q-112 -109 -294 -109h-406v1580h364q202 0 304 -109t102 -292q0 -132 -58 -214q-60 -84 -137 -106q128 -45 183 -129q55 -82 55 -250zM635 1179q0 89 -35.5 127t-114.5 38h-64v-378h74q70 0 105 49t35 164zM678 480q0 156 -41 203t-118 47h-98
v-493h107q67 0 108 41q42 42 42 202z" />
    <glyph glyph-name="Gamma" unicode="&#x393;" 
d="M953 1580v-238h-459v-1342h-278v1580h737z" />
    <glyph glyph-name="Deltagreek" unicode="&#x394;" 
d="M83 0v88q0 230 79 573l209 919h318l209 -919q79 -343 79 -573v-88h-894zM648 564l-118 602l-118 -602q-38 -200 -48 -326h332q-12 125 -48 326z" />
    <glyph glyph-name="Epsilon" unicode="&#x395;" 
d="M954 238v-238h-798v1580h788v-238h-510v-396h366v-238h-366v-470h520z" />
    <glyph glyph-name="Zeta" unicode="&#x396;" 
d="M184 1580h732v-150q0 -244 -112 -443l-287 -503q-68 -124 -68 -246h477v-238h-752v150q0 244 112 443l287 503q68 124 68 246h-457v238z" />
    <glyph glyph-name="Eta" unicode="&#x397;" 
d="M934 1580v-1580h-278v730h-253v-730h-278v1580h278v-612h253v612h278z" />
    <glyph glyph-name="Theta" unicode="&#x398;" 
d="M590 983v-258h-120v258h120zM122 507v567q0 298 110 413q111 115 298 115q188 0 297 -115q111 -114 111 -413v-567q0 -299 -111 -413q-109 -114 -297 -114q-187 0 -298 114q-110 115 -110 413zM400 1108v-635q0 -155 32 -201q33 -44 99 -44q64 0 96 44q33 45 33 201v635
q0 158 -33 201q-31 45 -98 45q-64 0 -97 -45q-32 -44 -32 -201z" />
    <glyph glyph-name="Iota" unicode="&#x399;" 
d="M876 228v-228h-692v228h207v1124h-164v228h606v-228h-164v-1124h207z" />
    <glyph glyph-name="Kappa" unicode="&#x39a;" 
d="M140 1580h278v-659l141 207q103 153 129 380l8 72h276l-19 -160q-23 -201 -159 -403l-73 -107l97 -165q143 -243 174 -508l28 -237h-286l-21 176q-35 291 -136 463l-49 81l-110 -162v-558h-278v1580z" />
    <glyph glyph-name="Lambda" unicode="&#x39b;" 
d="M648 564l-118 602l-118 -602q-53 -271 -53 -476v-88h-276v88q0 230 79 573l209 919h318l209 -919q79 -343 79 -573v-88h-276v88q0 205 -53 476z" />
    <glyph glyph-name="Mu" unicode="&#x39c;" 
d="M371 1580l159 -527l159 527h255v-1580h-255v247q0 409 80 1099l-184 -606h-110l-184 606q80 -690 80 -1099v-247h-255v1580h255z" />
    <glyph glyph-name="Nu" unicode="&#x39d;" 
d="M918 1580v-1580h-266l-310 1000q33 -350 33 -723v-277h-226v1580h266l310 -1000q-33 350 -33 723v277h226z" />
    <glyph glyph-name="Xi" unicode="&#x39e;" 
d="M198 946h664v-238h-664v238zM954 238v-238h-848v238h848zM106 1342v238h848v-238h-848z" />
    <glyph glyph-name="Omicron" unicode="&#x39f;" 
d="M938 1075v-568q0 -297 -111 -412q-109 -115 -297 -115q-187 0 -298 115q-110 116 -110 412v568q0 297 110 412q111 115 298 115q188 0 297 -115q111 -114 111 -412zM660 473v635q0 158 -33 201q-31 45 -98 45q-64 0 -97 -45q-32 -44 -32 -201v-635q0 -155 32 -201
q33 -44 99 -44q64 0 96 44q33 45 33 201z" />
    <glyph glyph-name="Pi" unicode="&#x3a0;" 
d="M126 0v1580h808v-1580h-278v1342h-252v-1342h-278z" />
    <glyph glyph-name="Rho" unicode="&#x3a1;" 
d="M1006 1180v-72q0 -171 -113 -287q-113 -114 -293 -114h-126v-707h-278v1580h404q201 0 303 -115q103 -113 103 -285zM728 1117v54q0 68 -32 121q-31 52 -118 52h-104v-400h104q75 0 112.5 46t37.5 127z" />
    <glyph glyph-name="Sigma" unicode="&#x3a3;" 
d="M264 547l200 259l-180 222q-113 143 -113 331v221h758v-238h-482q0 -84 63 -164l265 -327v-91l-291 -378q-57 -75 -57 -144h522v-238h-798v237q0 161 113 310z" />
    <glyph glyph-name="Tau" unicode="&#x3a4;" 
d="M964 1580v-238h-295v-1342h-278v1342h-295v238h868z" />
    <glyph glyph-name="Upsilon" unicode="&#x3a5;" 
d="M456 1079l74 -146l74 146q76 148 90 428l2 73h276l-2 -73q-14 -288 -147 -547l-154 -301v-659h-278v659l-154 301q-133 259 -147 547l-2 73h276l2 -73q14 -280 90 -428z" />
    <glyph glyph-name="Phi" unicode="&#x3a6;" 
d="M658 1580v-126q300 -64 300 -522v-284q0 -458 -300 -522v-126h-256v126q-300 64 -300 522v284q0 458 300 522v126h256zM447 335v910q-118 -18 -118 -268v-374q0 -250 118 -268zM613 1245v-910q118 18 118 268v374q0 250 -118 268z" />
    <glyph glyph-name="Chi" unicode="&#x3a7;" 
d="M530 524l-90 -180q-75 -149 -83 -289l-3 -55h-276l4 70q9 133 105 325l204 405l-169 339q-111 216 -120 371l-4 70h276l3 -55q11 -167 83 -310l70 -139l70 139q72 143 83 310l3 55h276l-4 -70q-9 -155 -120 -371l-170 -338l205 -406q96 -192 105 -325l4 -70h-276l-3 55
q-8 140 -83 289z" />
    <glyph glyph-name="Psi" unicode="&#x3a8;" 
d="M447 575v1005h166v-1005q118 18 118 268v737h227v-692q0 -458 -294 -522v-366h-268v366q-294 64 -294 522v692h227v-737q0 -250 118 -268z" />
    <glyph glyph-name="Omegagreek" unicode="&#x3a9;" 
d="M530 1354q-65 0 -98 -45q-32 -44 -32 -201v-404q0 -255 82 -352v-352h-372v235h189q-177 141 -177 489v350q0 298 110 413q111 115 298 115q188 0 297 -115q111 -114 111 -413v-350q0 -348 -177 -489h189v-235h-372v352q82 97 82 352v404q0 158 -33 201q-31 45 -97 45z
" />
    <glyph glyph-name="Iotadieresis" unicode="&#x3aa;" 
d="M341 1700q-56 0 -93 37t-37 89q0 51 37 87q37 37 93 37t93 -37q37 -36 37 -87q0 -52 -37 -89t-93 -37zM718 1700q-56 0 -93 37t-37 89q0 51 37 87q37 37 93 37t93 -37q37 -36 37 -87q0 -52 -37 -89t-93 -37zM876 228v-228h-692v228h207v1034h-164v228h606v-228h-164
v-1034h207z" />
    <glyph glyph-name="Upsilondieresis" unicode="&#x3ab;" 
d="M341 1700q-56 0 -93 37t-37 89q0 51 37 87q37 37 93 37t93 -37q37 -36 37 -87q0 -52 -37 -89t-93 -37zM718 1700q-56 0 -93 37t-37 89q0 51 37 87q37 37 93 37t93 -37q37 -36 37 -87q0 -52 -37 -89t-93 -37zM456 989l74 -146l74 146q76 148 90 428l2 73h276l-2 -73
q-14 -288 -147 -547l-154 -301v-569h-278v569l-154 301q-133 259 -147 547l-2 73h276l2 -73q14 -280 90 -428z" />
    <glyph glyph-name="alphatonos" unicode="&#x3ac;" 
d="M105 478v220q0 270 91 382q91 114 221 114q185 0 274 -257l32 235h274q-82 -350 -82 -582q0 -239 82 -589h-274l-32 236q-89 -257 -274 -257q-129 0 -221 114q-91 113 -91 384zM381 659v-142q0 -168 22 -233q23 -66 76 -66q88 0 160 372q-72 367 -160 367q-53 0 -76 -66
q-22 -65 -22 -232zM645 1798h289l-260 -450h-204z" />
    <glyph glyph-name="epsilontonos" unicode="&#x3ad;" 
d="M793 383l209 -143q-156 -260 -444 -260q-218 0 -330 99q-111 99 -111 249q0 193 212 271q-180 95 -180 263q0 133 110 232q110 100 317 100q250 0 396 -210l-209 -143q-79 115 -187 115q-65 0 -107.5 -31.5t-42.5 -79.5q0 -111 179 -111h87v-238h-77q-107 0 -164 -39.5
t-57 -108.5q0 -55 43.5 -92.5t120.5 -37.5q146 0 235 165zM625 1798h289l-260 -450h-204z" />
    <glyph glyph-name="etatonos" unicode="&#x3ae;" 
d="M935 750v-1115h-278v1115q0 120 -33 159q-31 40 -93 40q-103 0 -128 -142v-807h-278v1172h278v-135q92 152 240 152q130 0 211 -97q81 -98 81 -342zM615 1798h289l-260 -450h-204z" />
    <glyph glyph-name="iotatonos" unicode="&#x3af;" 
d="M293 367v577h-203v228h481v-825q0 -78 29 -104q29 -25 66 -25q63 0 120 79l209 -143q-142 -175 -329 -175q-373 0 -373 388zM515 1798h289l-260 -450h-204z" />
    <glyph glyph-name="upsilondieresistonos" unicode="&#x3b0;" 
d="M530 -20q-195 0 -300 115q-105 116 -105 380v697h276v-761q0 -98 33 -140.5t96 -42.5q59 0 94 50t35 193q0 304 -68 701h276q68 -438 68 -697t-123 -377q-122 -118 -282 -118zM550 1798h259l-262 -449h-170zM325 1455q0 -47 -33 -81t-84 -34q-50 0 -83 34q-32 35 -32 81
q0 48 32.5 81.5t82.5 33.5q51 0 84 -34t33 -81zM966 1455q0 -47 -33 -81q-31 -34 -83 -34q-50 0 -83 34q-32 35 -32 81q0 48 32.5 81.5t82.5 33.5t83 -33.5t33 -81.5z" />
    <glyph glyph-name="alpha" unicode="&#x3b1;" 
d="M105 478v220q0 270 91 382q91 114 221 114q185 0 274 -257l32 235h274q-82 -350 -82 -582q0 -239 82 -589h-274l-32 236q-89 -257 -274 -257q-129 0 -221 114q-91 113 -91 384zM381 659v-142q0 -168 22 -233q23 -66 76 -66q88 0 160 372q-72 367 -160 367q-53 0 -76 -66
q-22 -65 -22 -232z" />
    <glyph glyph-name="beta" unicode="&#x3b2;" 
d="M995 483v-63q0 -210 -113 -326q-112 -114 -272 -114q-104 0 -157 27v-372h-278v1557q0 182 103 295q103 115 272 115q178 0 282 -105q103 -103 103 -295v-42q0 -134 -49 -205q-49 -72 -105 -103q93 -30 153 -119q61 -88 61 -250zM453 1204v-963q35 -23 106 -23
q75 0 116 47q42 47 42 193v58q0 114 -34.5 163t-102.5 49h-25v237h14q46 0 67 37.5t21 123.5v78q0 161 -108 161q-45 0 -70.5 -42t-25.5 -119z" />
    <glyph glyph-name="gamma" unicode="&#x3b3;" 
d="M669 -365h-278v365l-228 732q-63 204 -72 356l-5 84h276l5 -84q11 -171 41 -292l122 -477l49 78q105 165 112 496l7 279h276l-7 -279q-11 -382 -220 -708l-78 -114v-436z" />
    <glyph glyph-name="delta" unicode="&#x3b4;" 
d="M916 1580v-237h-471q0 -62 62 -118l200 -180q237 -215 237 -538q0 -299 -113 -414q-113 -113 -291 -113q-179 0 -292 113q-113 115 -113 382q0 340 240 556l-73 66q-133 120 -133 293v190h747zM666 472q0 293 -115 402q-138 -122 -138 -402q0 -150 30 -203q32 -51 97 -51
q66 0 96 51q30 52 30 203z" />
    <glyph glyph-name="epsilon" unicode="&#x3b5;" 
d="M793 383l209 -143q-156 -260 -444 -260q-218 0 -330 99q-111 99 -111 249q0 193 212 271q-180 95 -180 263q0 133 110 232q110 100 317 100q250 0 396 -210l-209 -143q-79 115 -187 115q-65 0 -107.5 -31.5t-42.5 -79.5q0 -111 179 -111h87v-238h-77q-107 0 -164 -39.5
t-57 -108.5q0 -55 43.5 -92.5t120.5 -37.5q146 0 235 165z" />
    <glyph glyph-name="zeta" unicode="&#x3b6;" 
d="M442 3q-307 60 -307 440q0 311 275 598l186 195q56 59 57 107h-471v237h747v-167q0 -172 -146 -327l-190 -197q-181 -190 -181 -426q0 -220 211 -260q346 -67 346 -456q1 -42 -7 -112h-276q7 53 7 101q0 219 -251 267z" />
    <glyph glyph-name="eta" unicode="&#x3b7;" 
d="M935 750v-1115h-278v1115q0 120 -33 159q-31 40 -93 40q-103 0 -128 -142v-807h-278v1172h278v-135q92 152 240 152q130 0 211 -97q81 -98 81 -342z" />
    <glyph glyph-name="theta" unicode="&#x3b8;" 
d="M938 1209v-702q0 -299 -111 -413q-109 -114 -297 -114q-187 0 -298 114q-110 115 -110 413v702q0 298 110 413q111 115 298 115q188 0 297 -115q111 -114 111 -413zM660 976v267q0 157 -33 201q-31 45 -98 45q-64 0 -97 -45q-32 -44 -32 -201v-267h260zM660 473v265h-260
v-265q0 -155 32 -201q33 -44 99 -44q64 0 96 44q33 45 33 201z" />
    <glyph glyph-name="iota" unicode="&#x3b9;" 
d="M333 367v577h-203v228h481v-825q0 -78 29 -104q29 -25 66 -25q63 0 120 79l209 -143q-142 -175 -329 -175q-373 0 -373 388z" />
    <glyph glyph-name="kappa" unicode="&#x3ba;" 
d="M1000 41v-41h-276q-8 130 -192 422l-27 39l-82 -100v-361h-276v1172h276v-463l103 129q160 197 167 334h276l-2 -38q-9 -158 -232 -429l-54 -66l54 -81q254 -364 265 -517z" />
    <glyph glyph-name="lambda" unicode="&#x3bb;" 
d="M418 1073l-48 168q-29 101 -135 101h-45v238h116q231 0 296 -227l298 -1043q21 -72 114 -72v-238h-125q-164 0 -209 158l-146 495l-85 -267q-45 -142 -52 -282l-6 -104h-276l6 104q8 109 86 340z" />
    <glyph glyph-name="greekmu" unicode="&#x3bc;" 
d="M915 1172v-1172h-258v115q-51 -135 -151 -135q-60 0 -103 45v-390h-258v1537h258v-750q0 -107 31.5 -153t94.5 -46q103 0 128 142v807h258z" />
    <glyph glyph-name="nu" unicode="&#x3bd;" 
d="M747 185l-126 -185h-230l-228 732q-63 202 -72 356l-5 84h276l5 -84q11 -171 41 -292l122 -477l49 78q105 165 112 496l7 279h276l-7 -279q-11 -382 -220 -708z" />
    <glyph glyph-name="xi" unicode="&#x3be;" 
d="M442 3q-314 62 -314 380q0 246 222 364q-170 86 -170 273q0 222 327 323h-325v237h747v-237q-472 -130 -472 -323q0 -154 199 -154h235v-237h-235q-251 0 -251 -219q0 -166 218 -207q346 -67 346 -456q1 -42 -7 -112h-276q7 53 7 101q0 219 -251 267z" />
    <glyph glyph-name="omicron" unicode="&#x3bf;" 
d="M934 697v-222q0 -267 -113 -382q-113 -113 -291 -113q-179 0 -292 113q-113 115 -113 382v222q0 268 113 383q113 114 292 114q178 0 291 -114q113 -115 113 -383zM656 472v222q0 159 -30 210q-30 52 -96 52t-97 -52q-30 -51 -30 -210v-222q0 -150 30 -203q31 -51 97 -51
t96 51q30 52 30 203z" />
    <glyph glyph-name="pi" unicode="&#x3c0;" 
d="M860 935v-635q0 -63 44 -63h91v-237h-152q-241 0 -241 280v655h-155v-935h-258v935h-125v237h931v-237h-135z" />
    <glyph glyph-name="rho" unicode="&#x3c1;" 
d="M955 718v-240q0 -270 -101 -383q-100 -112 -231 -112q-149 0 -200 152v-500h-278v1083q0 259 113 367q112 109 292 109q184 -1 294 -110q111 -106 111 -366zM677 517v142q0 165 -33 229q-32 66 -93 66q-63 0 -96 -66q-32 -66 -32 -229v-304q35 -132 128 -132q61 0 93 65
q33 65 33 229z" />
    <glyph glyph-name="sigma1" unicode="&#x3c2;" 
d="M965 -365h-276q11 42 11 99q0 221 -258 269q-314 60 -314 460q0 403 118 566q118 165 331 165q260 0 405 -217l-211 -143q-71 122 -186 122q-97 0 -139 -116q-41 -117 -41 -377q0 -217 189 -254q382 -73 382 -445q0 -66 -11 -129z" />
    <glyph glyph-name="sigma" unicode="&#x3c3;" 
d="M955 934h-124q103 -106 103 -286v-173q0 -267 -113 -382q-113 -113 -291 -113q-179 0 -292 113q-113 115 -113 382v173q0 269 118 396.5t371 127.5h341v-238zM656 472v192q0 189 -83 269q-78 0 -125 -56q-45 -55 -45 -213v-192q0 -150 30 -203q31 -51 97 -51t96 51
q30 52 30 203z" />
    <glyph glyph-name="tau" unicode="&#x3c4;" 
d="M806 297l209 -143q-142 -174 -329 -174q-185 -1 -279 95t-94 292v577h-196v228h839v-228h-365v-597q0 -78 29 -104q29 -25 66 -25q63 0 120 79z" />
    <glyph glyph-name="upsilon" unicode="&#x3c5;" 
d="M530 -20q-195 0 -300 115q-105 116 -105 380v697h276v-761q0 -98 33 -140.5t96 -42.5q59 0 94 50t35 193q0 304 -68 701h276q68 -438 68 -697t-123 -377q-122 -118 -282 -118z" />
    <glyph glyph-name="phi" unicode="&#x3c6;" 
d="M613 812v-613q118 18 118 275v175q0 308 -74 308q-44 0 -44 -145zM650 1194q308 -2 308 -538v-144q0 -457 -300 -526v-351h-256v351q-300 69 -300 526v184q0 366 187 490l111 -187q-71 -53 -71 -258v-274q0 -250 118 -268v701q0 294 203 294z" />
    <glyph glyph-name="chi" unicode="&#x3c7;" 
d="M139 935h-45v237h73q251 0 308 -181l104 -307l48 78q72 116 85 340l1 70h274l-4 -58q-12 -257 -139 -459l-156 -249l167 -458q30 -75 116 -75h45v-238h-139q-191 0 -255 208l-103 302l-63 -103q-69 -110 -79 -337l-4 -70h-271l4 70q14 252 131 441l175 278l-154 420
q-34 91 -119 91z" />
    <glyph glyph-name="psi" unicode="&#x3c8;" 
d="M447 189v1391h166v-1391q118 18 118 268v715h229v-670q-1 -457 -296 -522v-344h-268v344q-296 65 -296 522v670h229v-715q0 -250 118 -268z" />
    <glyph glyph-name="omega" unicode="&#x3c9;" 
d="M447 379v474h166v-474q0 -161 63 -161q76 0 79 212q0 326 -60 742h224q60 -424 60 -752q0 -440 -255 -440q-140 0 -194 120q-54 -120 -194 -120q-255 0 -255 440q0 328 60 752h224q-60 -416 -60 -742q3 -212 79 -212q63 0 63 161z" />
    <glyph glyph-name="iotadieresis" unicode="&#x3ca;" 
d="M293 367v577h-203v228h481v-825q0 -78 29 -104q29 -25 66 -25q63 0 120 79l209 -143q-142 -175 -329 -175q-373 0 -373 388zM261 1330q-56 0 -93 37t-37 89q0 51 37 87q37 37 93 37t93 -37q37 -36 37 -87q0 -52 -37 -89t-93 -37zM638 1330q-56 0 -93 37t-37 89
q0 51 37 87q37 37 93 37t93 -37q37 -36 37 -87q0 -52 -37 -89t-93 -37z" />
    <glyph glyph-name="upsilondieresis" unicode="&#x3cb;" 
d="M530 -20q-195 0 -300 115q-105 116 -105 380v697h276v-761q0 -98 33 -140.5t96 -42.5q59 0 94 50t35 193q0 304 -68 701h276q68 -438 68 -697t-123 -377q-122 -118 -282 -118zM341 1330q-56 0 -93 37t-37 89q0 51 37 87q37 37 93 37t93 -37q37 -36 37 -87q0 -52 -37 -89
t-93 -37zM718 1330q-56 0 -93 37t-37 89q0 51 37 87q37 37 93 37t93 -37q37 -36 37 -87q0 -52 -37 -89t-93 -37z" />
    <glyph glyph-name="omicrontonos" unicode="&#x3cc;" 
d="M934 697v-222q0 -267 -113 -382q-113 -113 -291 -113q-179 0 -292 113q-113 115 -113 382v222q0 268 113 383q113 114 292 114q178 0 291 -114q113 -115 113 -383zM656 472v222q0 159 -30 210q-30 52 -96 52t-97 -52q-30 -51 -30 -210v-222q0 -150 30 -203q31 -51 97 -51
t96 51q30 52 30 203zM605 1798h289l-260 -450h-204z" />
    <glyph glyph-name="upsilontonos" unicode="&#x3cd;" 
d="M530 -20q-195 0 -300 115q-105 116 -105 380v697h276v-761q0 -98 33 -140.5t96 -42.5q59 0 94 50t35 193q0 304 -68 701h276q68 -438 68 -697t-123 -377q-122 -118 -282 -118zM595 1798h289l-260 -450h-204z" />
    <glyph glyph-name="omegatonos" unicode="&#x3ce;" 
d="M447 379v474h166v-474q0 -161 63 -161q76 0 79 212q0 326 -60 742h224q60 -424 60 -752q0 -440 -255 -440q-140 0 -194 120q-54 -120 -194 -120q-255 0 -255 440q0 328 60 752h224q-60 -416 -60 -742q3 -212 79 -212q63 0 63 161zM595 1798h289l-260 -450h-204z" />
    <glyph glyph-name="varbeta" unicode="&#x3d0;" 
d="M975 481q0 -271 -115 -386t-305 -115q-201 0 -300.5 100.5t-99.5 309.5v802q0 182 103 295q103 115 275 115q175 0 279 -105q103 -104 103 -298q0 -251 -154 -347q214 -61 214 -371zM433 1204v-826q0 -90 35 -125t87 -35q73 0 107 55q35 56 35 214q0 147 -36 194t-104 47
h-22v237h14q45 0 66 36q22 35 22 179q0 99 -26 142t-82 43q-45 0 -70.5 -42t-25.5 -119z" />
    <glyph glyph-name="vartheta" unicode="&#x3d1;" 
d="M589 734h-23q-178 0 -288 110q-108 111 -108 316q0 212 93 326q94 114 257 114q168 0 256.5 -115.5t88.5 -345.5v-175h118v-230h-118v-243q0 -281 -105 -396t-280 -115q-191 0 -300 115q-108 115 -108 412v52h285v-86q0 -155 29 -201q29 -44 87 -44t87 44q29 46 29 201
v261zM589 964v145q0 158 -16 200q-15 45 -53 45q-41 0 -56.5 -43.5t-15.5 -150.5q0 -196 117 -196h24z" />
    <glyph glyph-name="varphi" unicode="&#x3d5;" 
d="M447 209v756q-118 -18 -118 -268v-220q0 -250 118 -268zM613 965v-756q118 18 118 268v220q0 250 -118 268zM958 652v-130q0 -458 -300 -522v-365h-256v365q-300 64 -300 522v130q0 458 300 522v406h256v-406q300 -64 300 -522z" />
    <glyph glyph-name="varomega" unicode="&#x3d6;" 
d="M50 935v238h506q423 0 423 -498v-255q0 -440 -255 -440q-140 0 -194 120q-54 -120 -194 -120q-255 0 -255 440q0 274 70 515h-101zM447 379v376h166v-376q0 -161 63 -161q79 0 79 212v245q0 260 -189 260h-231q-30 -265 -30 -445q0 -272 79 -272q63 0 63 161z" />
    <glyph glyph-name="varkappa" unicode="&#x3f0;" 
d="M531 448l-278 -468l-192 108q202 299 202 502q0 347 -206 358v242q472 0 472 -468l278 468l192 -108q-202 -299 -202 -492q0 -357 206 -368v-242q-472 0 -472 468z" />
    <glyph glyph-name="varrho" unicode="&#x3f1;" 
d="M955 718v-190q0 -269 -101 -382q-100 -111 -231 -111q-149 -2 -200 150v-143q0 -144 135 -162l363 -44l-11 -201h-283l-155 18q-327 37 -327 409v656q0 259 113 367q112 109 292 109q184 -1 294 -110q111 -106 111 -366zM677 567v92q0 165 -33 229q-32 66 -93 66
q-63 0 -96 -66q-32 -66 -32 -229v-254q35 -132 128 -132q61 0 93 65q33 64 33 229z" />
    <glyph glyph-name="varepsilon" unicode="&#x3f5;" 
d="M439 721h410v-238h-410v-13q0 -133 31 -193t107 -60q115 0 198 131l209 -143q-147 -225 -397 -225q-200 0 -314 114q-113 115 -113 382v221q0 497 417 497q260 0 407 -217l-209 -143q-73 123 -188 123q-84 -1 -116 -55.5t-32 -175.5v-5z" />
    <glyph glyph-name="uni0400" unicode="&#x400;" 
d="M499 1950l180 -245h-224l-236 245h280zM944 238v-238h-788v1490h788v-238h-510v-351h366v-238h-366v-425h510z" />
    <glyph glyph-name="Iocyrillic" unicode="&#x401;" 
d="M341 1700q-56 0 -93 37t-37 89q0 51 37 87q37 37 93 37t93 -37q37 -36 37 -87q0 -52 -37 -89t-93 -37zM718 1700q-56 0 -93 37t-37 89q0 51 37 87q37 37 93 37t93 -37q37 -36 37 -87q0 -52 -37 -89t-93 -37zM944 238v-238h-788v1490h788v-238h-510v-351h366v-238h-366
v-425h510z" />
    <glyph glyph-name="Djecyrillic" unicode="&#x402;" 
d="M945 768v-716q0 -417 -324 -417h-106v228h45q107 0 107 155v740q0 113 -28 151q-27 40 -78 40q-103 0 -118 -142v-807h-278v1342h-160v238h616v-238h-178v-305q81 152 230 152q131 0 201 -97q71 -98 71 -324z" />
    <glyph glyph-name="Gjecyrillic" unicode="&#x403;" 
d="M459 1705l180 245h280l-236 -245h-224zM953 1490v-238h-458v-1252h-279v1490h737z" />
    <glyph glyph-name="Ecyrillic" unicode="&#x404;" 
d="M762 362l209 -143q-147 -239 -397 -239q-202 0 -315 114q-112 113 -112 434v534q0 298 115 419t312 121q250 0 397 -239l-209 -143q-74 135 -188 135q-77 0 -113 -57q-36 -56 -36 -200v-140h315v-239h-315v-236q0 -143 36 -200t113 -57q115 0 188 136z" />
    <glyph glyph-name="Dzecyrillic" unicode="&#x405;" 
d="M978 399q0 -182 -112 -300q-113 -119 -334 -119q-267 0 -424 250l209 143q95 -147 224 -147q76 0 118 39.5t42 112.5q0 78 -73 151l-324 324q-146 144 -146 329q0 192 109 305q109 115 295 115q240 0 387 -206l-209 -143q-82 102 -167 102q-138 0 -138 -150
q0 -73 75 -147l301 -300q167 -156 167 -359z" />
    <glyph glyph-name="Icyrillic" unicode="&#x406;" 
d="M876 228v-228h-692v228h207v1124h-164v228h606v-228h-164v-1124h207z" />
    <glyph glyph-name="Yicyrillic" unicode="&#x407;" 
d="M341 1700q-56 0 -93 37t-37 89q0 51 37 87q37 37 93 37t93 -37q37 -36 37 -87q0 -52 -37 -89t-93 -37zM718 1700q-56 0 -93 37t-37 89q0 51 37 87q37 37 93 37t93 -37q37 -36 37 -87q0 -52 -37 -89t-93 -37zM876 228v-228h-692v228h207v1034h-164v228h606v-228h-164
v-1034h207z" />
    <glyph glyph-name="Jecyrillic" unicode="&#x408;" 
d="M873 1580v-1095q0 -276 -113 -391q-112 -114 -292 -114t-292 114q-113 115 -113 391v221h278v-226q0 -140 30 -202t96 -62q67 0 97.5 62.5t30.5 201.5v1100h278z" />
    <glyph glyph-name="Ljecyrillic" unicode="&#x409;" 
d="M94 0h-96v238h25q92 0 101 220l33 1122h493v-562h48q151 0 233 -105q83 -104 83 -347v-146q0 -201 -83 -310.5t-233 -109.5h-244v1342h-70l-27 -909q-9 -433 -263 -433zM777 400v176q0 121 -22 162q-21 42 -68 42h-37v-542h37q48 0 69 37t21 125z" />
    <glyph glyph-name="Njecyrillic" unicode="&#x40a;" 
d="M111 0v1580h226v-562h117v562h196v-562h48q151 0 233 -105q83 -104 83 -347v-146q0 -201 -83 -310.5t-233 -109.5h-244v780h-117v-780h-226zM777 400v176q0 120 -21 162t-68 42h-38v-542h37q48 0 69 37t21 125z" />
    <glyph glyph-name="Tshecyrillic" unicode="&#x40b;" 
d="M945 768v-768h-278v758q0 113 -28 151q-27 40 -78 40q-103 0 -118 -142v-807h-278v1342h-160v238h616v-238h-178v-305q81 152 230 152q131 0 201 -97q71 -98 71 -324z" />
    <glyph glyph-name="Kjecyrillic" unicode="&#x40c;" 
d="M485 1705l180 245h280l-236 -245h-224zM140 1490h278v-614l57 84q172 251 215 494l6 36h276l-8 -53q-53 -289 -244 -571q219 -373 290 -796l10 -70h-286l-8 55q-64 381 -201 615l-107 -157v-513h-278v1490z" />
    <glyph glyph-name="uni040D" unicode="&#x40d;" 
d="M439 1950l180 -245h-224l-236 245h280zM370 530l278 960h286v-1490h-278v277q0 334 33 683l-278 -960h-286v1490h278v-277q0 -333 -33 -683z" />
    <glyph glyph-name="Ushortcyrillic" unicode="&#x40e;" 
d="M530 1690q-356 0 -367 260h214q3 -99 153 -99t153 99h214q-11 -260 -367 -260zM258 255l134 319l-217 502q-86 207 -94 324l-5 90h276l5 -84q5 -71 81 -278l94 -247l91 243q76 201 80 282l5 84h276l-6 -90q-4 -121 -93 -328l-357 -831q-35 -80 -42 -190l-3 -51h-276l3 51
q6 108 48 204z" />
    <glyph glyph-name="Dzhecyrillic" unicode="&#x40f;" 
d="M126 0v1580h277v-1344h254v1344h277v-1580h-266v-278h-276v278h-266z" />
    <glyph glyph-name="Acyrillic" unicode="&#x410;" 
d="M359 88v-88h-276v88q0 230 79 573l209 919h318l209 -919q79 -343 79 -573v-88h-276v88q0 118 -17 260h-308q-17 -142 -17 -260zM644 585l-114 581l-114 -581h228z" />
    <glyph glyph-name="Becyrillic" unicode="&#x411;" 
d="M891 1580v-236h-470v-368h88q199 0 323 -110q123 -110 123 -330v-86q0 -231 -113 -341q-112 -109 -293 -109h-406v1580h748zM678 450v46q0 139 -41 192q-40 52 -118 52h-98v-503h107q67 0 108 41q42 42 42 172z" />
    <glyph glyph-name="Vecyrillic" unicode="&#x412;" 
d="M956 480q0 -261 -113 -371q-112 -109 -294 -109h-406v1580h364q202 0 304 -109t102 -292q0 -132 -58 -214q-60 -84 -137 -106q128 -45 183 -129q55 -82 55 -250zM635 1179q0 89 -35.5 127t-114.5 38h-64v-378h74q70 0 105 49t35 164zM678 480q0 156 -41 203t-118 47h-98
v-493h107q67 0 108 41q42 42 42 202z" />
    <glyph glyph-name="Gecyrillic" unicode="&#x413;" 
d="M953 1580v-238h-458v-1342h-279v1580h737z" />
    <glyph glyph-name="Decyrillic" unicode="&#x414;" 
d="M976 238v-516h-268v278h-395v-278h-268v516h73q82 214 115 702l38 640h616v-1342h89zM379 238h237v1103h-92l-25 -421q-29 -477 -120 -682z" />
    <glyph glyph-name="Iecyrillic" unicode="&#x415;" 
d="M954 238v-238h-798v1580h788v-238h-510v-396h366v-238h-366v-470h520z" />
    <glyph glyph-name="Zhecyrillic" unicode="&#x416;" 
d="M674 465l-64 105l23 -251v-319h-196v319l23 251l-64 -105q-58 -94 -68 -324l-7 -141h-256l6 123q7 209 153 432l171 263l-170 261q-144 222 -153 431l-4 70h246l4 -87q11 -230 71 -328l71 -115l-23 255v275h196v-275l-23 -255l71 114q61 100 71 329l4 87h246l-3 -69
q-11 -211 -154 -432l-170 -260l171 -264q146 -223 153 -432l6 -123h-256l-7 141q-10 230 -68 324z" />
    <glyph glyph-name="Zecyrillic" unicode="&#x417;" 
d="M951 466q0 -238 -123 -362t-335 -124q-272 0 -428 260l209 143q88 -165 218 -165q78 0 129 52q52 52 52 196q0 152 -56 202q-55 51 -165 51h-77v238h77q189 0 189 216q0 90 -42 140.5t-117 50.5q-118 0 -187 -166l-209 143q146 261 417 261q191 0 303 -115
q113 -115 113 -314q0 -237 -190 -336q222 -89 222 -371z" />
    <glyph glyph-name="Iicyrillic" unicode="&#x418;" 
d="M360 560l306 1020h268v-1580h-268v277q0 373 33 743l-306 -1020h-268v1580h268v-277q0 -372 -33 -743z" />
    <glyph glyph-name="Iishortcyrillic" unicode="&#x419;" 
d="M531 1690q-356 0 -367 260h214q3 -99 153 -99t153 99h214q-11 -260 -367 -260zM370 530l278 960h286v-1490h-278v277q0 334 33 683l-278 -960h-286v1490h278v-277q0 -333 -33 -683z" />
    <glyph glyph-name="Kacyrillic" unicode="&#x41a;" 
d="M180 1580h278v-659l141 207q103 153 129 380l8 72h276l-19 -160q-23 -201 -159 -403l-73 -107l97 -165q143 -243 174 -508l28 -237h-286l-21 176q-35 291 -136 463l-49 81l-110 -162v-558h-278v1580z" />
    <glyph glyph-name="Elcyrillic" unicode="&#x41b;" 
d="M144 0h-106v238h35q114 0 128 305l42 1037h691v-1580h-278v1342h-152l-31 -779q-21 -563 -329 -563z" />
    <glyph glyph-name="Emcyrillic" unicode="&#x41c;" 
d="M371 1580l159 -527l159 527h255v-1580h-255v247q0 409 80 1099l-184 -606h-110l-184 606q80 -690 80 -1099v-247h-255v1580h255z" />
    <glyph glyph-name="Encyrillic" unicode="&#x41d;" 
d="M934 1580v-1580h-278v730h-253v-730h-278v1580h278v-612h253v612h278z" />
    <glyph glyph-name="Ocyrillic" unicode="&#x41e;" 
d="M938 1075v-568q0 -297 -111 -412q-109 -115 -297 -115q-187 0 -298 115q-110 116 -110 412v568q0 297 110 412q111 115 298 115q188 0 297 -115q111 -114 111 -412zM660 473v635q0 158 -33 201q-31 45 -98 45q-64 0 -97 -45q-32 -44 -32 -201v-635q0 -155 32 -201
q33 -44 99 -44q64 0 96 44q33 45 33 201z" />
    <glyph glyph-name="Pecyrillic" unicode="&#x41f;" 
d="M125 0v1580h809v-1580h-278v1342h-253v-1342h-278z" />
    <glyph glyph-name="Ercyrillic" unicode="&#x420;" 
d="M1006 1180v-72q0 -171 -113 -287q-113 -114 -293 -114h-126v-707h-278v1580h404q201 0 303 -115q103 -113 103 -285zM728 1117v54q0 68 -32 121q-31 52 -118 52h-104v-400h104q75 0 112.5 46t37.5 127z" />
    <glyph glyph-name="Escyrillic" unicode="&#x421;" 
d="M803 362l209 -143q-147 -239 -397 -239q-187 0 -307 120t-120 420v542q0 300 120 420t307 120q250 0 397 -239l-209 -143q-74 135 -188 135q-68 0 -109 -50q-40 -49 -40 -207v-615q0 -157 40 -207q41 -50 109 -50q115 0 188 136z" />
    <glyph glyph-name="Tecyrillic" unicode="&#x422;" 
d="M964 1580v-238h-295v-1342h-278v1342h-295v238h868z" />
    <glyph glyph-name="Ucyrillic" unicode="&#x423;" 
d="M258 255l138 367l-221 544q-86 213 -94 324l-5 90h276l5 -84q5 -71 81 -278l94 -255l91 251q76 209 80 282l5 84h276l-6 -90q-4 -98 -93 -324l-360 -934q-33 -86 -39 -181l-3 -51h-276l3 51q6 96 48 204z" />
    <glyph glyph-name="Efcyrillic" unicode="&#x424;" 
d="M658 1580v-126q300 -64 300 -522v-284q0 -458 -300 -522v-126h-256v126q-300 64 -300 522v284q0 458 300 522v126h256zM447 335v910q-118 -18 -118 -268v-374q0 -250 118 -268zM613 1245v-910q118 18 118 268v374q0 250 -118 268z" />
    <glyph glyph-name="Khacyrillic" unicode="&#x425;" 
d="M530 524l-90 -180q-75 -149 -83 -289l-3 -55h-276l4 70q9 133 105 325l204 405l-169 339q-111 216 -120 371l-4 70h276l3 -55q11 -167 83 -310l70 -139l70 139q72 143 83 310l3 55h276l-4 -70q-9 -155 -120 -371l-170 -338l205 -406q96 -192 105 -325l4 -70h-276l-3 55
q-8 140 -83 289z" />
    <glyph glyph-name="Tsecyrillic" unicode="&#x426;" 
d="M126 0v1580h277v-1343h217v1343h277v-1342h89v-516h-276v278h-584z" />
    <glyph glyph-name="Checyrillic" unicode="&#x427;" 
d="M140 1580h278v-472q0 -152 45 -204q47 -51 135 -51h64v727h276v-1580h-276v605h-105q-192 0 -305 104q-112 105 -112 404v467z" />
    <glyph glyph-name="Shacyrillic" unicode="&#x428;" 
d="M96 0v1580h222v-1342h119v1342h187v-1342h119v1342h222v-1580h-869z" />
    <glyph glyph-name="Shchacyrillic" unicode="&#x429;" 
d="M96 0v1580h222v-1342h119v1342h187v-1342h119v1342h222v-1342h78v-516h-246v278h-701z" />
    <glyph glyph-name="Hardsigncyrillic" unicode="&#x42a;" 
d="M541 1580v-604h48q199 0 323 -110q123 -110 123 -330v-86q0 -231 -113 -341q-112 -109 -293 -109h-366v1344h-191v236h469zM758 450v46q0 139 -41 192q-40 52 -118 52h-58v-503h67q67 0 108 41q42 42 42 172z" />
    <glyph glyph-name="Yericyrillic" unicode="&#x42b;" 
d="M101 1580h246v-604h22q130 0 203 -110t73 -310v-156q0 -198 -72 -299t-204 -101h-268v1580zM449 410v156q0 87 -21.5 130.5t-58.5 43.5h-22v-503h21q81 0 81 173zM713 1580h246v-1580h-246v1580z" />
    <glyph glyph-name="Soft" unicode="&#x42c;" 
d="M143 1580h278v-604h88q199 0 323 -110q123 -110 123 -330v-86q0 -231 -113 -341q-112 -109 -293 -109h-406v1580zM678 450v46q0 139 -41 192q-40 52 -118 52h-98v-503h107q67 0 108 41q42 42 42 172z" />
    <glyph glyph-name="Ereversedcyrillic" unicode="&#x42d;" 
d="M89 219l209 143q73 -136 188 -136q77 0 113 57t36 200v236h-315v239h315v140q0 144 -36 200q-36 57 -113 57q-114 0 -188 -135l-209 143q147 239 397 239q211 0 319 -121t108 -419v-534q0 -319 -113 -434q-112 -114 -314 -114q-250 0 -397 239z" />
    <glyph glyph-name="IUcyrillic" unicode="&#x42e;" 
d="M97 1580h226v-611h82v235q0 178 72 288q74 110 210 110q135 0 207 -110q73 -109 73 -288v-826q0 -179 -73 -288q-71 -108 -207 -110q-137 0 -210 109q-72 110 -72 289v353h-82v-731h-226v1580zM740 364v855q0 148 -69 148t-69 -148v-855q0 -149 70 -149q68 3 68 149z" />
    <glyph glyph-name="IAcyrillic" unicode="&#x42f;" 
d="M514 686l-11 -16q-127 -172 -155 -613l-4 -57h-275l4 70q27 421 194 648l13 19q-182 101 -182 391q0 452 395 452h410v-1580h-278v686h-111zM625 922v422h-95q-87 0 -118 -52q-30 -52 -30 -164q0 -107 32 -156.5t116 -49.5h95z" />
    <glyph glyph-name="acyrillic" unicode="&#x430;" 
d="M954 813v-813h-278v135q-80 -155 -231 -155q-123 0 -212 98q-88 98 -88 248q0 175 110 279q112 104 325 104h96v126q0 121 -128 121q-124 0 -186 -132l-199 163q145 207 386 207q190 0 297 -97q108 -96 108 -284zM676 360v172h-96q-79 0 -119 -43t-40 -123
q0 -139 118 -139q124 0 137 133z" />
    <glyph glyph-name="becyrillic" unicode="&#x431;" 
d="M125 409v642q0 301 120 425q120 126 368 126h252v-237h-121q-199 0 -272 -64q-72 -65 -72 -229v-89q83 125 242 125q120 0 206 -113q85 -112 85 -385v-136q0 -267 -123 -381q-122 -113 -281 -113q-179 0 -292 113q-112 113 -112 316zM400 734v-285q0 -108 26 -171
q25 -61 102 -61q66 0 97.5 62t31.5 194v162q0 232 -118 232q-103 0 -139 -133z" />
    <glyph glyph-name="vecyrillic" unicode="&#x432;" 
d="M955 351q0 -162 -113 -257q-112 -94 -293 -94h-406v1172h363q203 0 304 -82q102 -81 102 -218q0 -196 -194 -253q237 -51 237 -268zM635 851q0 115 -140 115h-74v-240h84q130 0 130 125zM682 363q0 64 -39.5 95.5t-108.5 31.5h-113v-253h113q148 0 148 126z" />
    <glyph glyph-name="gecyrillic" unicode="&#x433;" 
d="M953 1172v-238h-458v-934h-279v1172h737z" />
    <glyph glyph-name="decyrillic" unicode="&#x434;" 
d="M976 238v-516h-268v278h-395v-278h-268v516h73q110 219 132 585l21 349h616v-934h89zM379 238h237v695h-92l-7 -110q-23 -379 -138 -585z" />
    <glyph glyph-name="iecyrillic" unicode="&#x435;" 
d="M934 697v-146h-532v-130q0 -104 32.5 -153.5t106.5 -49.5q111 0 177 110l209 -143q-135 -205 -397 -205q-180 0 -293 114q-113 115 -113 382v221q0 267 113 382q112 115 293 115q178 0 291 -114q113 -115 113 -383zM401 729h257v43q0 204 -128 204q-129 0 -129 -204v-43z
" />
    <glyph glyph-name="zhecyrillic" unicode="&#x436;" 
d="M674 347l-64 78l23 -187v-238h-196v238l23 187l-64 -78q-58 -71 -68 -242l-7 -105h-256l6 92q7 155 153 322l171 196l-184 211q-129 147 -140 307l-2 44h246l3 -58q10 -171 71 -245l71 -86l-23 190v199h196v-199l-23 -190l71 85q61 74 71 246l3 58h247l-3 -45
q-10 -157 -153 -322l-169 -195l169 -196q146 -167 153 -322l6 -92h-256l-7 105q-10 171 -68 242z" />
    <glyph glyph-name="zecyrillic" unicode="&#x437;" 
d="M78 240l209 143q89 -165 235 -165q77 0 120.5 37.5t43.5 92.5q0 69 -57 108.5t-164 39.5h-77v238h87q179 0 179 111q0 48 -42.5 79.5t-107.5 31.5q-108 0 -187 -115l-209 143q146 210 396 210q206 0 316 -95q111 -95 111 -227q0 -199 -200 -273q232 -67 232 -271
q0 -150 -122 -249q-121 -99 -319 -99q-288 0 -444 260z" />
    <glyph glyph-name="iicyrillic" unicode="&#x438;" 
d="M359 422l308 751h267v-1173h-267v206q0 278 33 549l-308 -755h-267v1173h267v-203q0 -278 -33 -548z" />
    <glyph glyph-name="iishortcyrillic" unicode="&#x439;" 
d="M359 422l308 751h267v-1173h-267v206q0 278 33 549l-308 -755h-267v1173h267v-203q0 -278 -33 -548zM530 1320q-356 0 -367 260h214q3 -99 153 -99t153 99h214q-11 -260 -367 -260z" />
    <glyph glyph-name="kacyrillic" unicode="&#x43a;" 
d="M1000 41v-41h-276q-8 130 -192 422l-27 39l-82 -100v-361h-276v1172h276v-463l103 129q160 197 167 334h276l-2 -38q-9 -158 -232 -429l-54 -66l54 -81q254 -364 265 -517z" />
    <glyph glyph-name="elcyrillic" unicode="&#x43b;" 
d="M144 0h-106v238h35q114 0 128 305l29 629h704v-1172h-278v934h-169l-14 -371q-21 -563 -329 -563z" />
    <glyph glyph-name="emcyrillic" unicode="&#x43c;" 
d="M944 1172v-1172h-250v157l75 781l-184 -606h-110l-184 606l75 -781v-157h-250v1172h255l159 -527l159 527h255z" />
    <glyph glyph-name="encyrillic" unicode="&#x43d;" 
d="M935 1172v-1172h-278v503h-254v-503h-278v1172h278v-431h254v431h278z" />
    <glyph glyph-name="ocyrillic" unicode="&#x43e;" 
d="M934 697v-222q0 -267 -113 -382q-113 -113 -291 -113q-179 0 -292 113q-113 115 -113 382v222q0 268 113 383q113 114 292 114q178 0 291 -114q113 -115 113 -383zM656 472v222q0 159 -30 210q-30 52 -96 52t-97 -52q-30 -51 -30 -210v-222q0 -150 30 -203q31 -51 97 -51
t96 51q30 52 30 203z" />
    <glyph glyph-name="pecyrillic" unicode="&#x43f;" 
d="M125 0v1172h810v-1172h-278v934h-254v-934h-278z" />
    <glyph glyph-name="ercyrillic" unicode="&#x440;" 
d="M149 -365v1537h278v-131q91 151 240 151q130 0 211 -113t81 -381v-220q0 -271 -81 -383t-211 -112q-148 0 -240 152v-500h-278zM427 821v-466q35 -132 128 -132q61 0 93 65q33 65 33 229v142q0 165 -33 229q-32 66 -93 66q-92 0 -128 -133z" />
    <glyph glyph-name="escyrillic" unicode="&#x441;" 
d="M703 348l229 -153q-135 -215 -385 -215q-190 0 -304 124q-113 125 -113 372v221q0 247 113 372q114 125 304 125q250 0 385 -217l-209 -143q-71 122 -176 122q-77 0 -108 -57q-30 -57 -30 -197v-241q0 -125 31.5 -184.5t106.5 -59.5q94 0 156 131z" />
    <glyph glyph-name="tecyrillic" unicode="&#x442;" 
d="M964 1172v-238h-295v-934h-278v934h-295v238h868z" />
    <glyph glyph-name="ucyrillic" unicode="&#x443;" 
d="M506 -365h-276l2 38q8 127 69 285l101 262l-215 538q-79 198 -86 324l-5 90h276l5 -84q11 -186 51 -289l102 -264l94 264q50 129 59 289l5 84h276l-6 -90q-8 -131 -83 -324l-310 -805q-46 -121 -57 -280z" />
    <glyph glyph-name="efcyrillic" unicode="&#x444;" 
d="M447 209v756q-118 -18 -118 -268v-220q0 -250 118 -268zM613 965v-756q118 18 118 268v220q0 250 -118 268zM958 652v-130q0 -458 -300 -522v-365h-256v365q-300 64 -300 522v130q0 458 300 522v406h256v-406q300 -64 300 -522z" />
    <glyph glyph-name="khacyrillic" unicode="&#x445;" 
d="M378 0h-276l2 40q7 122 120 298l176 273l-158 246q-97 149 -104 276l-2 39h275q10 -160 64 -244l65 -101l65 101q54 84 64 244h275l-2 -39q-7 -127 -104 -276l-159 -246l177 -273q113 -176 120 -298l2 -40h-276q-9 158 -69 251l-93 144l-93 -144q-60 -93 -69 -251z" />
    <glyph glyph-name="tsecyrillic" unicode="&#x446;" 
d="M126 0v1172h277v-935h217v935h277v-934h89v-516h-276v278h-584z" />
    <glyph glyph-name="checyrillic" unicode="&#x447;" 
d="M140 1172h278v-272q0 -152 45 -204q47 -51 135 -51h64v527h276v-1172h-276v397h-105q-192 0 -305 104q-112 105 -112 404v267z" />
    <glyph glyph-name="shacyrillic" unicode="&#x448;" 
d="M96 0v1172h222v-934h119v934h187v-934h119v934h222v-1172h-869z" />
    <glyph glyph-name="shchacyrillic" unicode="&#x449;" 
d="M96 0v1172h222v-934h119v934h187v-934h119v934h222v-934h78v-516h-246v278h-701z" />
    <glyph glyph-name="hardsigncyrillic" unicode="&#x44a;" 
d="M541 1172v-416h88q181 0 293 -100q113 -99 113 -278q0 -180 -113 -279q-112 -99 -293 -99h-366v936h-191v236h469zM758 378q0 72 -38 107t-104 35h-75v-283h75q142 0 142 141z" />
    <glyph glyph-name="yericyrillic" unicode="&#x44b;" 
d="M369 0h-268v1172h246v-416h22q131 0 203 -100q73 -100 73 -256q0 -199 -71.5 -299.5t-204.5 -100.5zM448 378q0 142 -80 142h-21v-283h21q80 0 80 141zM713 1172h246v-1172h-246v1172z" />
    <glyph glyph-name="softsigncyrillic" unicode="&#x44c;" 
d="M548 0h-405v1172h278v-416h127q181 0 292 -99q112 -99 114 -279q0 -180 -113 -279t-293 -99zM677 378q0 72 -38 107t-104 35h-114v-283h114q142 0 142 141z" />
    <glyph glyph-name="ereversedcyrillic" unicode="&#x44d;" 
d="M320 711h315v29q0 217 -149 217q-114 0 -188 -123l-209 143q147 217 404 217q420 0 420 -497v-221q0 -267 -113 -382q-112 -114 -314 -114q-250 0 -397 225l209 143q74 -132 188 -132q78 0 113.5 57.5t35.5 185.5v23h-315v229z" />
    <glyph glyph-name="iucyrillic" unicode="&#x44e;" 
d="M97 1172h226v-468h82v92q0 178 72 288q74 110 210 110q135 0 207 -110q73 -109 73 -288v-418q0 -179 -73 -288q-71 -108 -207 -110q-137 0 -210 109q-72 110 -72 289v88h-82v-466h-226v1172zM740 364v447q0 148 -69 148t-69 -148v-447q0 -149 70 -149q68 3 68 149z" />
    <glyph glyph-name="iacyrillic" unicode="&#x44f;" 
d="M344 0h-276l3 41q10 150 154 386l70 106q-198 88 -198 298q0 153 103 247t293 94h410v-1172h-278v460h-87l-98 -166q-88 -165 -96 -294zM382 821q-2 -60 33.5 -92.5t94.5 -32.5h115v240h-105q-138 0 -138 -115z" />
    <glyph glyph-name="uni0450" unicode="&#x450;" 
d="M934 697v-146h-532v-130q0 -104 32.5 -153.5t106.5 -49.5q111 0 177 110l209 -143q-135 -205 -397 -205q-180 0 -293 114q-113 115 -113 382v221q0 267 113 382q112 115 293 115q178 0 291 -114q113 -115 113 -383zM401 729h257v43q0 204 -128 204q-129 0 -129 -204v-43z
M470 1580l180 -245h-224l-236 245h280z" />
    <glyph glyph-name="iocyrillic" unicode="&#x451;" 
d="M934 697v-146h-532v-130q0 -104 32.5 -153.5t106.5 -49.5q111 0 177 110l209 -143q-135 -205 -397 -205q-180 0 -293 114q-113 115 -113 382v221q0 267 113 382q112 115 293 115q178 0 291 -114q113 -115 113 -383zM401 729h257v43q0 204 -128 204q-129 0 -129 -204v-43z
M341 1330q-56 0 -93 37t-37 89q0 51 37 87q37 37 93 37t93 -37q37 -36 37 -87q0 -52 -37 -89t-93 -37zM718 1330q-56 0 -93 37t-37 89q0 51 37 87q37 37 93 37t93 -37q37 -36 37 -87q0 -52 -37 -89t-93 -37z" />
    <glyph glyph-name="djecyrillic" unicode="&#x452;" 
d="M641 1398v-218h-198v-330q81 152 230 152q131 0 201 -97q71 -98 71 -324v-529q0 -417 -324 -417h-106v228h45q107 0 107 155v553q0 113 -28 151q-27 40 -78 40q-103 0 -118 -142v-620h-278v1180h-108v218h108v182h278v-182h198z" />
    <glyph glyph-name="gjecyrillic" unicode="&#x453;" 
d="M953 1172v-238h-458v-934h-279v1172h737zM459 1335l180 245h280l-236 -245h-224z" />
    <glyph glyph-name="ecyrillic" unicode="&#x454;" 
d="M439 721h300v-238h-300v-13q0 -133 31 -193t107 -60q115 0 198 131l209 -143q-147 -225 -397 -225q-200 0 -314 114q-113 115 -113 382v221q0 497 417 497q260 0 407 -217l-209 -143q-73 123 -188 123q-84 -1 -116 -55.5t-32 -175.5v-5z" />
    <glyph glyph-name="dzecyrillic" unicode="&#x455;" 
d="M968 326q0 -151 -103 -248q-104 -98 -313 -98q-264 0 -420 239l191 131q80 -143 221 -143q146 0 146 121q0 66 -82 106l-177 86q-230 116 -230 321q0 164 103 258q104 95 282 95q231 0 376 -217l-193 -132q-64 121 -173 121q-54 0 -86 -28.5t-32 -78.5q0 -77 90 -120
l149 -73q251 -123 251 -340z" />
    <glyph glyph-name="icyrillic" unicode="&#x456;" 
d="M673 1549q0 -76 -51 -127q-50 -50 -135 -50t-135 50q-50 52 -50 127t50 127q50 51 135 51t135 -51q51 -51 51 -127zM869 228v-228h-699v228h211v716h-181v228h459v-944h210z" />
    <glyph glyph-name="yicyrillic" unicode="&#x457;" 
d="M291 1330q-56 0 -93 37t-37 89q0 51 37 87q37 37 93 37t93 -37q37 -36 37 -87q0 -52 -37 -89t-93 -37zM668 1330q-56 0 -93 37t-37 89q0 51 37 87q37 37 93 37t93 -37q37 -36 37 -87q0 -52 -37 -89t-93 -37zM879 228v-228h-699v228h211v716h-181v228h459v-944h210z" />
    <glyph glyph-name="jecyrillic" unicode="&#x458;" 
d="M771 1549q0 -76 -51 -127q-50 -50 -135 -50t-135 50q-50 52 -50 127t50 127q50 51 135 51t135 -51q51 -51 51 -127zM478 26v918h-265v228h542v-1140q0 -208 -92 -307.5t-279 -99.5q-227 0 -350 185l210 120q39 -67 128 -67q52 0 79 37.5t27 125.5z" />
    <glyph glyph-name="ljecyrillic" unicode="&#x459;" 
d="M124 458l21 714h505v-396h48q151 0 233 -105q83 -104 83 -283q0 -169 -83 -279q-82 -109 -233 -109h-244v944h-82l-15 -511q-9 -433 -263 -433h-102l6 228h25q92 0 101 230zM777 388q0 98 -22 129q-21 31 -67 31h-38v-320h37q47 0 68 31q22 31 22 129z" />
    <glyph glyph-name="njecyrillic" unicode="&#x45a;" 
d="M454 548h-117v-548h-226v1172h226v-396h117l1 396h195v-396h48q151 0 233 -105q83 -104 83 -283q0 -169 -83 -279q-82 -109 -233 -109h-243zM777 388q0 98 -22 129q-21 31 -68 31h-37v-320h37q47 0 68 31q22 31 22 129z" />
    <glyph glyph-name="tshecyrillic" unicode="&#x45b;" 
d="M945 581v-581h-278v571q0 113 -28 151q-27 40 -78 40q-103 0 -118 -142v-620h-278v1172h-108v218h108v190h278v-190h198v-218h-198v-322q81 152 230 152q131 0 201 -97q71 -98 71 -324z" />
    <glyph glyph-name="kjecyrillic" unicode="&#x45c;" 
d="M1000 41v-41h-276q-8 130 -192 422l-27 39l-82 -100v-361h-276v1172h276v-463l103 129q160 197 167 334h276l-2 -38q-9 -158 -232 -429l-54 -66l54 -81q254 -364 265 -517zM489 1335l180 245h280l-236 -245h-224z" />
    <glyph glyph-name="uni045D" unicode="&#x45d;" 
d="M359 422l308 751h267v-1173h-267v206q0 278 33 549l-308 -755h-267v1173h267v-203q0 -278 -33 -548zM453 1580l180 -245h-224l-236 245h280z" />
    <glyph glyph-name="ushortcyrillic" unicode="&#x45e;" 
d="M506 -365h-276l2 38q8 127 69 285l101 262l-215 538q-79 198 -86 324l-5 90h276l5 -84q11 -186 51 -289l102 -264l94 264q50 129 59 289l5 84h276l-6 -90q-8 -131 -83 -324l-310 -805q-46 -121 -57 -280zM530 1320q-356 0 -367 260h214q3 -99 153 -99t153 99h214
q-11 -260 -367 -260z" />
    <glyph glyph-name="dzhecyrillic" unicode="&#x45f;" 
d="M126 0v1172h277v-936h254v936h277v-1172h-266v-278h-276v278h-266z" />
    <glyph glyph-name="Gheupturncyrillic" unicode="&#x490;" 
d="M967 1748v-404h-473v-1344h-278v1580h473v168h278z" />
    <glyph glyph-name="gheupturncyrillic" unicode="&#x491;" 
d="M967 1748v-812h-473v-936h-278v1172h473v576h278z" />
    <glyph glyph-name="dalet" unicode="&#x5d3;" 
d="M973 1172v-256h-152v-916h-277v916h-458v256h887z" />
    <glyph glyph-name="finalkaf" unicode="&#x5da;" 
d="M900 -365h-277v1281h-557v256h834v-1537z" />
    <glyph glyph-name="Alef" unicode="&#x627;" 
d="M621 100h-246q-40 279 -40 1480h256q0 -1198 30 -1480z" />
    <glyph glyph-name="Tatweel" unicode="&#x640;" 
d="M1071 390v-290h-1082v290h1082z" />
    <glyph glyph-name="uni1F00" unicode="&#x1f00;" 
d="M105 478v220q0 270 91 382q91 114 221 114q185 0 274 -257l32 235h274q-82 -350 -82 -582q0 -239 82 -589h-274l-32 236q-89 -257 -274 -257q-129 0 -221 114q-91 113 -91 384zM381 659v-142q0 -168 22 -233q23 -66 76 -66q88 0 160 372q-72 367 -160 367q-53 0 -76 -66
q-22 -65 -22 -232zM743 1592q0 -143 -194 -244h-246v29q212 104 212 189t-147 85h-65v142q58 15 148 15q143 0 217.5 -58t74.5 -158z" />
    <glyph glyph-name="uni1F01" unicode="&#x1f01;" 
d="M105 478v220q0 270 91 382q91 114 221 114q185 0 274 -257l32 235h274q-82 -350 -82 -582q0 -239 82 -589h-274l-32 236q-89 -257 -274 -257q-129 0 -221 114q-91 113 -91 384zM381 659v-142q0 -168 22 -233q23 -66 76 -66q88 0 160 372q-72 367 -160 367q-53 0 -76 -66
q-22 -65 -22 -232zM315 1592q0 100 74.5 158t217.5 58q89 0 148 -15v-142h-65q-147 0 -147 -85t212 -189v-29h-246q-194 101 -194 244z" />
    <glyph glyph-name="uni1F02" unicode="&#x1f02;" 
d="M105 478v220q0 270 91 382q91 114 221 114q185 0 274 -257l32 235h274q-82 -350 -82 -582q0 -239 82 -589h-274l-32 236q-89 -257 -274 -257q-129 0 -221 114q-91 113 -91 384zM381 659v-142q0 -168 22 -233q23 -66 76 -66q88 0 160 372q-72 367 -160 367q-53 0 -76 -66
q-22 -65 -22 -232zM835 1798l175 -450h-184l-260 450h269zM538 1592q0 -143 -194 -244h-226v29q212 104 212 189t-147 85h-65v142q58 15 138 15q134 0 208 -58.5t74 -157.5z" />
    <glyph glyph-name="uni1F03" unicode="&#x1f03;" 
d="M105 478v220q0 270 91 382q91 114 221 114q185 0 274 -257l32 235h274q-82 -350 -82 -582q0 -239 82 -589h-274l-32 236q-89 -257 -274 -257q-129 0 -221 114q-91 113 -91 384zM381 659v-142q0 -168 22 -233q23 -66 76 -66q88 0 160 372q-72 367 -160 367q-53 0 -76 -66
q-22 -65 -22 -232zM815 1798l175 -450h-184l-260 450h269zM98 1592q0 99 74 157.5t208 58.5q80 0 138 -15v-142h-65q-147 0 -147 -85t212 -189v-29h-226q-194 101 -194 244z" />
    <glyph glyph-name="uni1F04" unicode="&#x1f04;" 
d="M105 478v220q0 270 91 382q91 114 221 114q185 0 274 -257l32 235h274q-82 -350 -82 -582q0 -239 82 -589h-274l-32 236q-89 -257 -274 -257q-129 0 -221 114q-91 113 -91 384zM381 659v-142q0 -168 22 -233q23 -66 76 -66q88 0 160 372q-72 367 -160 367q-53 0 -76 -66
q-22 -65 -22 -232zM566 1348l175 450h269l-260 -450h-184zM538 1592q0 -143 -194 -244h-226v29q212 104 212 189t-147 85h-65v142q58 15 138 15q134 0 208 -58.5t74 -157.5z" />
    <glyph glyph-name="uni1F05" unicode="&#x1f05;" 
d="M105 478v220q0 270 91 382q91 114 221 114q185 0 274 -257l32 235h274q-82 -350 -82 -582q0 -239 82 -589h-274l-32 236q-89 -257 -274 -257q-129 0 -221 114q-91 113 -91 384zM381 659v-142q0 -168 22 -233q23 -66 76 -66q88 0 160 372q-72 367 -160 367q-53 0 -76 -66
q-22 -65 -22 -232zM586 1348l175 450h269l-260 -450h-184zM118 1592q0 99 74 157.5t208 58.5q80 0 138 -15v-142h-65q-147 0 -147 -85t212 -189v-29h-226q-194 101 -194 244z" />
    <glyph glyph-name="uni1F06" unicode="&#x1f06;" 
d="M105 478v120q0 270 91 382q91 114 221 114q185 0 274 -257l32 235h274q-82 -350 -82 -532q0 -189 82 -539h-274l-32 236q-89 -257 -274 -257q-129 0 -221 114q-91 113 -91 384zM381 559v-42q0 -168 22 -233q23 -66 76 -66q88 0 160 322q-72 317 -160 317q-53 0 -76 -66
q-22 -65 -22 -232zM280 1651h-137v99l10 34q41 153 189 153q112 0 194 -52l59 -36q61 -39 102 -39q48 0 71 86l11 41h137v-99l-10 -34q-40 -153 -189 -153q-112 0 -195 52l-58 36q-62 39 -102 39q-48 0 -71 -86zM718 1413q0 -117 -171 -185h-254v35q187 61 187 129
q0 54 -90 54h-97v114q78 13 173 13q252 0 252 -160z" />
    <glyph glyph-name="uni1F07" unicode="&#x1f07;" 
d="M314 1413q0 160 252 160q95 0 163 -13v-114h-87q-90 0 -90 -54q0 -68 177 -129v-35h-244q-171 68 -171 185zM280 1651h-137v99l10 34q41 153 189 153q112 0 194 -52l59 -36q61 -39 102 -39q48 0 71 86l11 41h137v-99l-10 -34q-40 -153 -189 -153q-112 0 -195 52l-58 36
q-62 39 -102 39q-48 0 -71 -86zM105 478v120q0 270 91 382q91 114 221 114q185 0 274 -257l32 235h274q-82 -350 -82 -532q0 -189 82 -539h-274l-32 236q-89 -257 -274 -257q-129 0 -221 114q-91 113 -91 384zM381 559v-42q0 -168 22 -233q23 -66 76 -66q88 0 160 322
q-72 317 -160 317q-53 0 -76 -66q-22 -65 -22 -232z" />
    <glyph glyph-name="uni1F08" unicode="&#x1f08;" 
d="M545 1689q0 -143 -194 -244h-246v29q212 104 212 189t-147 85h-65v142q58 15 148 15q143 0 217.5 -58t74.5 -158zM313 1330h433l152 -669q79 -344 79 -573v-88h-276v88q0 118 -17 260h-308q-17 -142 -17 -260v-88h-276v88q0 230 79 573zM592 850l-62 316l-62 -316
q-32 -144 -52 -265h228q-20 121 -52 265z" />
    <glyph glyph-name="uni1F09" unicode="&#x1f09;" 
d="M91 1689q0 100 74.5 158t217.5 58q89 0 148 -15v-142h-65q-147 0 -147 -85t212 -189v-29h-246q-194 101 -194 244zM313 1330h433l152 -669q79 -344 79 -573v-88h-276v88q0 118 -17 260h-308q-17 -142 -17 -260v-88h-276v88q0 230 79 573zM592 850l-62 316l-62 -316
q-32 -144 -52 -265h228q-20 121 -52 265z" />
    <glyph glyph-name="uni1F0A" unicode="&#x1f0a;" 
d="M313 1330h433l152 -669q79 -344 79 -573v-88h-276v88q0 118 -17 260h-308q-17 -142 -17 -260v-88h-276v88q0 230 79 573zM592 850l-62 316l-62 -316q-32 -144 -52 -265h228q-20 121 -52 265zM795 1895l175 -450h-184l-260 450h269zM498 1689q0 -143 -194 -244h-226v29
q212 104 212 189t-147 85h-65v142q58 15 138 15q134 0 208 -58.5t74 -157.5z" />
    <glyph glyph-name="uni1F0B" unicode="&#x1f0b;" 
d="M785 1895l175 -450h-184l-260 450h269zM68 1689q0 99 74 157.5t208 58.5q80 0 138 -15v-142h-65q-147 0 -147 -85t212 -189v-29h-226q-194 101 -194 244zM313 1330h433l152 -669q79 -344 79 -573v-88h-276v88q0 118 -17 260h-308q-17 -142 -17 -260v-88h-276v88
q0 230 79 573zM592 850l-62 316l-62 -316q-32 -144 -52 -265h228q-20 121 -52 265z" />
    <glyph glyph-name="uni1F0C" unicode="&#x1f0c;" 
d="M566 1445l175 450h269l-260 -450h-184zM538 1689q0 -143 -194 -244h-226v29q212 104 212 189t-147 85h-65v142q58 15 138 15q134 0 208 -58.5t74 -157.5zM313 1330h433l152 -669q79 -344 79 -573v-88h-276v88q0 118 -17 260h-308q-17 -142 -17 -260v-88h-276v88
q0 230 79 573zM592 850l-62 316l-62 -316q-32 -144 -52 -265h228q-20 121 -52 265z" />
    <glyph glyph-name="uni1F0D" unicode="&#x1f0d;" 
d="M586 1445l175 450h269l-260 -450h-184zM118 1689q0 99 74 157.5t208 58.5q80 0 138 -15v-142h-65q-147 0 -147 -85t212 -189v-29h-226q-194 101 -194 244zM313 1330h433l152 -669q79 -344 79 -573v-88h-276v88q0 118 -17 260h-308q-17 -142 -17 -260v-88h-276v88
q0 230 79 573zM592 850l-62 316l-62 -316q-32 -144 -52 -265h228q-20 121 -52 265z" />
    <glyph glyph-name="uni1F0E" unicode="&#x1f0e;" 
d="M280 1651h-137v99l10 34q41 153 189 153q112 0 194 -52l59 -36q61 -39 102 -39q48 0 71 86l11 41h137v-99l-10 -34q-40 -153 -189 -153q-112 0 -195 52l-58 36q-62 39 -102 39q-48 0 -71 -86zM718 1413q0 -117 -171 -185h-254v35q187 61 187 129q0 54 -90 54h-97v114
q78 13 173 13q252 0 252 -160zM313 1072h433l152 -502q79 -264 79 -502v-68h-276v58q0 89 -17 199h-308q-17 -110 -17 -199v-58h-276v68q0 238 79 502zM592 729l-62 266l-62 -266q-33 -131 -52 -235h228q-19 104 -52 235z" />
    <glyph glyph-name="uni1F0F" unicode="&#x1f0f;" 
d="M314 1413q0 160 252 160q95 0 163 -13v-114h-87q-90 0 -90 -54q0 -68 177 -129v-35h-244q-171 68 -171 185zM280 1651h-137v99l10 34q41 153 189 153q112 0 194 -52l59 -36q61 -39 102 -39q48 0 71 86l11 41h137v-99l-10 -34q-40 -153 -189 -153q-112 0 -195 52l-58 36
q-62 39 -102 39q-48 0 -71 -86zM313 1072h433l152 -502q79 -264 79 -502v-68h-276v58q0 89 -17 199h-308q-17 -110 -17 -199v-58h-276v68q0 238 79 502zM592 729l-62 266l-62 -266q-33 -131 -52 -235h228q-19 104 -52 235z" />
    <glyph glyph-name="uni1F10" unicode="&#x1f10;" 
d="M793 383l209 -143q-156 -260 -444 -260q-218 0 -330 99q-111 99 -111 249q0 193 212 271q-180 95 -180 263q0 133 110 232q110 100 317 100q250 0 396 -210l-209 -143q-79 115 -187 115q-65 0 -107.5 -31.5t-42.5 -79.5q0 -111 179 -111h87v-238h-77q-107 0 -164 -39.5
t-57 -108.5q0 -55 43.5 -92.5t120.5 -37.5q146 0 235 165zM743 1592q0 -143 -194 -244h-246v29q212 104 212 189t-147 85h-65v142q58 15 148 15q143 0 217.5 -58t74.5 -158z" />
    <glyph glyph-name="uni1F11" unicode="&#x1f11;" 
d="M315 1592q0 100 74.5 158t217.5 58q89 0 148 -15v-142h-65q-147 0 -147 -85t212 -189v-29h-246q-194 101 -194 244zM793 383l209 -143q-156 -260 -444 -260q-218 0 -330 99q-111 99 -111 249q0 193 212 271q-180 95 -180 263q0 133 110 232q110 100 317 100
q250 0 396 -210l-209 -143q-79 115 -187 115q-65 0 -107.5 -31.5t-42.5 -79.5q0 -111 179 -111h87v-238h-77q-107 0 -164 -39.5t-57 -108.5q0 -55 43.5 -92.5t120.5 -37.5q146 0 235 165z" />
    <glyph glyph-name="uni1F12" unicode="&#x1f12;" 
d="M835 1798l175 -450h-184l-260 450h269zM538 1592q0 -143 -194 -244h-226v29q212 104 212 189t-147 85h-65v142q58 15 138 15q134 0 208 -58.5t74 -157.5zM793 383l209 -143q-156 -260 -444 -260q-218 0 -330 99q-111 99 -111 249q0 193 212 271q-180 95 -180 263
q0 133 110 232q110 100 317 100q250 0 396 -210l-209 -143q-79 115 -187 115q-65 0 -107.5 -31.5t-42.5 -79.5q0 -111 179 -111h87v-238h-77q-107 0 -164 -39.5t-57 -108.5q0 -55 43.5 -92.5t120.5 -37.5q146 0 235 165z" />
    <glyph glyph-name="uni1F13" unicode="&#x1f13;" 
d="M815 1798l175 -450h-184l-260 450h269zM98 1592q0 99 74 157.5t208 58.5q80 0 138 -15v-142h-65q-147 0 -147 -85t212 -189v-29h-226q-194 101 -194 244zM793 383l209 -143q-156 -260 -444 -260q-218 0 -330 99q-111 99 -111 249q0 193 212 271q-180 95 -180 263
q0 133 110 232q110 100 317 100q250 0 396 -210l-209 -143q-79 115 -187 115q-65 0 -107.5 -31.5t-42.5 -79.5q0 -111 179 -111h87v-238h-77q-107 0 -164 -39.5t-57 -108.5q0 -55 43.5 -92.5t120.5 -37.5q146 0 235 165z" />
    <glyph glyph-name="uni1F14" unicode="&#x1f14;" 
d="M566 1348l175 450h269l-260 -450h-184zM538 1592q0 -143 -194 -244h-226v29q212 104 212 189t-147 85h-65v142q58 15 138 15q134 0 208 -58.5t74 -157.5zM793 383l209 -143q-156 -260 -444 -260q-218 0 -330 99q-111 99 -111 249q0 193 212 271q-180 95 -180 263
q0 133 110 232q110 100 317 100q250 0 396 -210l-209 -143q-79 115 -187 115q-65 0 -107.5 -31.5t-42.5 -79.5q0 -111 179 -111h87v-238h-77q-107 0 -164 -39.5t-57 -108.5q0 -55 43.5 -92.5t120.5 -37.5q146 0 235 165z" />
    <glyph glyph-name="uni1F15" unicode="&#x1f15;" 
d="M586 1348l175 450h269l-260 -450h-184zM118 1592q0 99 74 157.5t208 58.5q80 0 138 -15v-142h-65q-147 0 -147 -85t212 -189v-29h-226q-194 101 -194 244zM793 383l209 -143q-156 -260 -444 -260q-218 0 -330 99q-111 99 -111 249q0 193 212 271q-180 95 -180 263
q0 133 110 232q110 100 317 100q250 0 396 -210l-209 -143q-79 115 -187 115q-65 0 -107.5 -31.5t-42.5 -79.5q0 -111 179 -111h87v-238h-77q-107 0 -164 -39.5t-57 -108.5q0 -55 43.5 -92.5t120.5 -37.5q146 0 235 165z" />
    <glyph glyph-name="uni1F18" unicode="&#x1f18;" 
d="M558 1689q0 -143 -194 -244h-246v29q212 104 212 189t-147 85h-65v142q58 15 148 15q143 0 217.5 -58t74.5 -158zM964 238v-238h-798v1330h788v-238h-510v-232h366v-238h-366v-384h520z" />
    <glyph glyph-name="uni1F19" unicode="&#x1f19;" 
d="M99 1689q0 100 74.5 158t217.5 58q90 0 148 -15v-142h-65q-147 0 -147 -85t212 -189v-29h-246q-194 101 -194 244zM964 238v-238h-798v1330h788v-238h-510v-232h366v-238h-366v-384h520z" />
    <glyph glyph-name="uni1F1A" unicode="&#x1f1a;" 
d="M795 1895l175 -450h-184l-260 450h269zM498 1689q0 -143 -194 -244h-226v29q212 104 212 189t-147 85h-65v142q58 15 138 15q134 0 208 -58.5t74 -157.5zM964 238v-238h-798v1330h788v-238h-510v-232h366v-238h-366v-384h520z" />
    <glyph glyph-name="uni1F1B" unicode="&#x1f1b;" 
d="M815 1895l175 -450h-184l-260 450h269zM98 1689q0 99 74 157.5t208 58.5q80 0 138 -15v-142h-65q-147 0 -147 -85t212 -189v-29h-226q-194 101 -194 244zM964 238v-238h-798v1330h788v-238h-510v-232h366v-238h-366v-384h520z" />
    <glyph glyph-name="uni1F1C" unicode="&#x1f1c;" 
d="M566 1445l175 450h269l-260 -450h-184zM538 1689q0 -143 -194 -244h-226v29q212 104 212 189t-147 85h-65v142q58 15 138 15q134 0 208 -58.5t74 -157.5zM964 238v-238h-798v1330h788v-238h-510v-232h366v-238h-366v-384h520z" />
    <glyph glyph-name="uni1F1D" unicode="&#x1f1d;" 
d="M586 1445l175 450h269l-260 -450h-184zM118 1689q0 99 74 157.5t208 58.5q80 0 138 -15v-142h-65q-147 0 -147 -85t212 -189v-29h-226q-194 101 -194 244zM964 238v-238h-798v1330h788v-238h-510v-232h366v-238h-366v-384h520z" />
    <glyph glyph-name="uni1F20" unicode="&#x1f20;" 
d="M935 750v-1115h-278v1115q0 120 -33 159q-31 40 -93 40q-103 0 -128 -142v-807h-278v1172h278v-135q92 152 240 152q130 0 211 -97q81 -98 81 -342zM743 1592q0 -143 -194 -244h-246v29q212 104 212 189t-147 85h-65v142q58 15 148 15q143 0 217.5 -58t74.5 -158z" />
    <glyph glyph-name="uni1F21" unicode="&#x1f21;" 
d="M315 1592q0 100 74.5 158t217.5 58q89 0 148 -15v-142h-65q-147 0 -147 -85t212 -189v-29h-246q-194 101 -194 244zM935 750v-1115h-278v1115q0 120 -33 159q-31 40 -93 40q-103 0 -128 -142v-807h-278v1172h278v-135q92 152 240 152q130 0 211 -97q81 -98 81 -342z" />
    <glyph glyph-name="uni1F22" unicode="&#x1f22;" 
d="M835 1798l175 -450h-184l-260 450h269zM538 1592q0 -143 -194 -244h-226v29q212 104 212 189t-147 85h-65v142q58 15 138 15q134 0 208 -58.5t74 -157.5zM935 750v-1115h-278v1115q0 120 -33 159q-31 40 -93 40q-103 0 -128 -142v-807h-278v1172h278v-135q92 152 240 152
q130 0 211 -97q81 -98 81 -342z" />
    <glyph glyph-name="uni1F23" unicode="&#x1f23;" 
d="M775 1798l175 -450h-184l-260 450h269zM58 1592q0 99 74 157.5t208 58.5q80 0 138 -15v-142h-65q-147 0 -147 -85t212 -189v-29h-226q-194 101 -194 244zM935 750v-1115h-278v1115q0 120 -33 159q-31 40 -93 40q-103 0 -128 -142v-807h-278v1172h278v-135q92 152 240 152
q130 0 211 -97q81 -98 81 -342z" />
    <glyph glyph-name="uni1F24" unicode="&#x1f24;" 
d="M566 1348l175 450h269l-260 -450h-184zM538 1592q0 -143 -194 -244h-226v29q212 104 212 189t-147 85h-65v142q58 15 138 15q134 0 208 -58.5t74 -157.5zM935 750v-1115h-278v1115q0 120 -33 159q-31 40 -93 40q-103 0 -128 -142v-807h-278v1172h278v-135q92 152 240 152
q130 0 211 -97q81 -98 81 -342z" />
    <glyph glyph-name="uni1F25" unicode="&#x1f25;" 
d="M586 1348l175 450h269l-260 -450h-184zM118 1592q0 99 74 157.5t208 58.5q80 0 138 -15v-142h-65q-147 0 -147 -85t212 -189v-29h-226q-194 101 -194 244zM935 750v-1115h-278v1115q0 120 -33 159q-31 40 -93 40q-103 0 -128 -142v-807h-278v1172h278v-135
q92 152 240 152q130 0 211 -97q81 -98 81 -342z" />
    <glyph glyph-name="uni1F26" unicode="&#x1f26;" 
d="M280 1651h-137v99l10 34q41 153 189 153q112 0 194 -52l59 -36q61 -39 102 -39q48 0 71 86l11 41h137v-99l-10 -34q-40 -153 -189 -153q-112 0 -195 52l-58 36q-62 39 -102 39q-48 0 -71 -86zM718 1413q0 -117 -171 -185h-254v35q187 61 187 129q0 54 -90 54h-97v114
q78 13 173 13q252 0 252 -160zM935 650v-1015h-278v1015q0 120 -33 159q-31 40 -93 40q-103 0 -128 -142v-707h-278v1072h278v-135q92 152 240 152q130 0 211 -97q81 -98 81 -342z" />
    <glyph glyph-name="uni1F27" unicode="&#x1f27;" 
d="M314 1413q0 160 252 160q95 0 163 -13v-114h-87q-90 0 -90 -54q0 -68 177 -129v-35h-244q-171 68 -171 185zM280 1651h-137v99l10 34q41 153 189 153q112 0 194 -52l59 -36q61 -39 102 -39q48 0 71 86l11 41h137v-99l-10 -34q-40 -153 -189 -153q-112 0 -195 52l-58 36
q-62 39 -102 39q-48 0 -71 -86zM935 650v-1015h-278v1015q0 120 -33 159q-31 40 -93 40q-103 0 -128 -142v-707h-278v1072h278v-135q92 152 240 152q130 0 211 -97q81 -98 81 -342z" />
    <glyph glyph-name="uni1F28" unicode="&#x1f28;" 
d="M551 1689q0 -143 -194 -244h-246v29q212 104 212 189t-147 85h-65v142q59 15 148 15q143 0 217.5 -58t74.5 -158zM934 1330v-1330h-278v622h-253v-622h-278v1330h278v-470h253v470h278z" />
    <glyph glyph-name="uni1F29" unicode="&#x1f29;" 
d="M81 1689q0 100 74.5 158t217.5 58q90 0 148 -15v-142h-65q-147 0 -147 -85t212 -189v-29h-246q-194 101 -194 244zM934 1330v-1330h-278v622h-253v-622h-278v1330h278v-470h253v470h278z" />
    <glyph glyph-name="uni1F2A" unicode="&#x1f2a;" 
d="M795 1895l175 -450h-184l-260 450h269zM498 1689q0 -143 -194 -244h-226v29q212 104 212 189t-147 85h-65v142q58 15 138 15q134 0 208 -58.5t74 -157.5zM934 1330v-1330h-278v622h-253v-622h-278v1330h278v-470h253v470h278z" />
    <glyph glyph-name="uni1F2B" unicode="&#x1f2b;" 
d="M785 1895l175 -450h-184l-260 450h269zM68 1689q0 99 74 157.5t208 58.5q80 0 138 -15v-142h-65q-147 0 -147 -85t212 -189v-29h-226q-194 101 -194 244zM934 1330v-1330h-278v622h-253v-622h-278v1330h278v-470h253v470h278z" />
    <glyph glyph-name="uni1F2C" unicode="&#x1f2c;" 
d="M566 1445l175 450h269l-260 -450h-184zM538 1689q0 -143 -194 -244h-226v29q212 104 212 189t-147 85h-65v142q58 15 138 15q134 0 208 -58.5t74 -157.5zM934 1330v-1330h-278v622h-253v-622h-278v1330h278v-470h253v470h278z" />
    <glyph glyph-name="uni1F2D" unicode="&#x1f2d;" 
d="M586 1445l175 450h269l-260 -450h-184zM118 1689q0 99 74 157.5t208 58.5q80 0 138 -15v-142h-65q-147 0 -147 -85t212 -189v-29h-226q-194 101 -194 244zM934 1330v-1330h-278v622h-253v-622h-278v1330h278v-470h253v470h278z" />
    <glyph glyph-name="uni1F2E" unicode="&#x1f2e;" 
d="M280 1651h-137v99l10 34q41 153 189 153q112 0 194 -52l59 -36q61 -39 102 -39q48 0 71 86l11 41h137v-99l-10 -34q-40 -153 -189 -153q-112 0 -195 52l-58 36q-62 39 -102 39q-48 0 -71 -86zM718 1413q0 -117 -171 -185h-254v35q187 61 187 129q0 54 -90 54h-97v114
q78 13 173 13q252 0 252 -160zM934 1072v-1072h-278v524h-253v-524h-278v1072h278v-310h253v310h278z" />
    <glyph glyph-name="uni1F2F" unicode="&#x1f2f;" 
d="M314 1413q0 160 252 160q95 0 163 -13v-114h-87q-90 0 -90 -54q0 -68 177 -129v-35h-244q-171 68 -171 185zM280 1651h-137v99l10 34q41 153 189 153q112 0 194 -52l59 -36q61 -39 102 -39q48 0 71 86l11 41h137v-99l-10 -34q-40 -153 -189 -153q-112 0 -195 52l-58 36
q-62 39 -102 39q-48 0 -71 -86zM934 1072v-1072h-278v524h-253v-524h-278v1072h278v-310h253v310h278z" />
    <glyph glyph-name="uni1F30" unicode="&#x1f30;" 
d="M333 367v577h-203v228h481v-825q0 -78 29 -104q29 -25 66 -25q63 0 120 79l209 -143q-142 -175 -329 -175q-373 0 -373 388zM743 1592q0 -143 -194 -244h-246v29q212 104 212 189t-147 85h-65v142q58 15 148 15q143 0 217.5 -58t74.5 -158z" />
    <glyph glyph-name="uni1F31" unicode="&#x1f31;" 
d="M333 367v577h-203v228h481v-825q0 -78 29 -104q29 -25 66 -25q63 0 120 79l209 -143q-142 -175 -329 -175q-373 0 -373 388zM315 1592q0 100 74.5 158t217.5 58q89 0 148 -15v-142h-65q-147 0 -147 -85t212 -189v-29h-246q-194 101 -194 244z" />
    <glyph glyph-name="uni1F32" unicode="&#x1f32;" 
d="M333 367v577h-203v228h481v-825q0 -78 29 -104q29 -25 66 -25q63 0 120 79l209 -143q-142 -175 -329 -175q-373 0 -373 388zM835 1798l175 -450h-184l-260 450h269zM538 1592q0 -143 -194 -244h-226v29q212 104 212 189t-147 85h-65v142q58 15 138 15q134 0 208 -58.5
t74 -157.5z" />
    <glyph glyph-name="uni1F33" unicode="&#x1f33;" 
d="M815 1798l175 -450h-184l-260 450h269zM98 1592q0 99 74 157.5t208 58.5q80 0 138 -15v-142h-65q-147 0 -147 -85t212 -189v-29h-226q-194 101 -194 244zM333 367v577h-203v228h481v-825q0 -78 29 -104q29 -25 66 -25q63 0 120 79l209 -143q-142 -175 -329 -175
q-373 0 -373 388z" />
    <glyph glyph-name="uni1F34" unicode="&#x1f34;" 
d="M566 1348l175 450h269l-260 -450h-184zM538 1592q0 -143 -194 -244h-226v29q212 104 212 189t-147 85h-65v142q58 15 138 15q134 0 208 -58.5t74 -157.5zM333 367v577h-203v228h481v-825q0 -78 29 -104q29 -25 66 -25q63 0 120 79l209 -143q-142 -175 -329 -175
q-373 0 -373 388z" />
    </font>
</defs>
</svg>
